<svg width="35" height="35" viewBox="0 0 35 35" fill="none" xmlns="http://www.w3.org/2000/svg">
<g clip-path="url(#clip0)">
<path d="M27.7083 4.40708C27.7083 4.39542 27.7083 4.38667 27.7083 4.375V1.45833C27.7083 1.07156 27.5547 0.700627 27.2812 0.427136C27.0077 0.153645 26.6368 0 26.25 0C25.8632 0 25.4923 0.153645 25.2188 0.427136C24.9453 0.700627 24.7917 1.07156 24.7917 1.45833V3.0625C24.3117 2.96503 23.8231 2.91618 23.3333 2.91667H21.875V1.45833C21.875 1.07156 21.7214 0.700627 21.4479 0.427136C21.1744 0.153645 20.8034 0 20.4167 0C20.0299 0 19.659 0.153645 19.3855 0.427136C19.112 0.700627 18.9583 1.07156 18.9583 1.45833V2.91667H16.0417V1.45833C16.0417 1.07156 15.888 0.700627 15.6145 0.427136C15.341 0.153645 14.9701 0 14.5833 0C14.1966 0 13.8256 0.153645 13.5521 0.427136C13.2786 0.700627 13.125 1.07156 13.125 1.45833V2.91667H11.6667C11.1769 2.91618 10.6883 2.96503 10.2083 3.0625V1.45833C10.2083 1.07156 10.0547 0.700627 9.7812 0.427136C9.50771 0.153645 9.13677 0 8.75 0C8.36323 0 7.99229 0.153645 7.7188 0.427136C7.44531 0.700627 7.29167 1.07156 7.29167 1.45833V4.375C7.29167 4.38667 7.29167 4.39542 7.29167 4.40708C6.38864 5.08138 5.65498 5.95662 5.14874 6.96352C4.64251 7.97042 4.3776 9.08134 4.375 10.2083V27.7083C4.37732 29.6415 5.14629 31.4948 6.51324 32.8618C7.88019 34.2287 9.73351 34.9977 11.6667 35H23.3333C25.2665 34.9977 27.1198 34.2287 28.4868 32.8618C29.8537 31.4948 30.6227 29.6415 30.625 27.7083V10.2083C30.6224 9.08134 30.3575 7.97042 29.8513 6.96352C29.345 5.95662 28.6114 5.08138 27.7083 4.40708ZM27.7083 27.7083C27.7083 28.8687 27.2474 29.9815 26.4269 30.8019C25.6065 31.6224 24.4937 32.0833 23.3333 32.0833H11.6667C10.5063 32.0833 9.39355 31.6224 8.57307 30.8019C7.7526 29.9815 7.29167 28.8687 7.29167 27.7083V10.2083C7.29167 9.04801 7.7526 7.93521 8.57307 7.11474C9.39355 6.29427 10.5063 5.83333 11.6667 5.83333H23.3333C24.4937 5.83333 25.6065 6.29427 26.4269 7.11474C27.2474 7.93521 27.7083 9.04801 27.7083 10.2083V27.7083ZM24.7917 11.6667C24.7917 12.0534 24.638 12.4244 24.3645 12.6979C24.091 12.9714 23.7201 13.125 23.3333 13.125H11.6667C11.2799 13.125 10.909 12.9714 10.6355 12.6979C10.362 12.4244 10.2083 12.0534 10.2083 11.6667C10.2083 11.2799 10.362 10.909 10.6355 10.6355C10.909 10.362 11.2799 10.2083 11.6667 10.2083H23.3333C23.7201 10.2083 24.091 10.362 24.3645 10.6355C24.638 10.909 24.7917 11.2799 24.7917 11.6667ZM24.7917 17.5C24.7917 17.8868 24.638 18.2577 24.3645 18.5312C24.091 18.8047 23.7201 18.9583 23.3333 18.9583H11.6667C11.2799 18.9583 10.909 18.8047 10.6355 18.5312C10.362 18.2577 10.2083 17.8868 10.2083 17.5C10.2083 17.1132 10.362 16.7423 10.6355 16.4688C10.909 16.1953 11.2799 16.0417 11.6667 16.0417H23.3333C23.7201 16.0417 24.091 16.1953 24.3645 16.4688C24.638 16.7423 24.7917 17.1132 24.7917 17.5ZM18.9583 23.3333C18.9583 23.7201 18.8047 24.091 18.5312 24.3645C18.2577 24.638 17.8868 24.7917 17.5 24.7917H11.6667C11.2799 24.7917 10.909 24.638 10.6355 24.3645C10.362 24.091 10.2083 23.7201 10.2083 23.3333C10.2083 22.9466 10.362 22.5756 10.6355 22.3021C10.909 22.0286 11.2799 21.875 11.6667 21.875H17.5C17.8868 21.875 18.2577 22.0286 18.5312 22.3021C18.8047 22.5756 18.9583 22.9466 18.9583 23.3333Z" fill="white"/>
</g>
<defs>
<clipPath id="clip0">
<rect width="35" height="35" fill="white"/>
</clipPath>
</defs>
</svg>
