<svg width="361" height="123" viewBox="0 0 361 123" fill="none" xmlns="http://www.w3.org/2000/svg">
<path d="M198.5 12.5L199.191 13.2225L198.5 12.5ZM361 123L360.263 111.477L350.652 117.876L361 123ZM0.0814835 7.90821C0.681899 8.18489 1.28434 8.4671 1.88875 8.75469L2.74807 6.94871C2.13646 6.65769 1.52658 6.372 0.918516 6.09179L0.0814835 7.90821ZM5.53796 10.5433C6.72433 11.1413 7.91741 11.7582 9.11668 12.3928L10.0521 10.625C8.84176 9.98454 7.63691 9.36157 6.43813 8.75736L5.53796 10.5433ZM12.6939 14.3273C13.8636 14.9731 15.0385 15.6343 16.2182 16.3097L17.212 14.5742C16.0238 13.8938 14.8398 13.2275 13.6606 12.5764L12.6939 14.3273ZM19.7242 18.3506C20.8817 19.035 22.0432 19.7319 23.2082 20.4405L24.2474 18.7316C23.0757 18.0191 21.9071 17.3178 20.7421 16.629L19.7242 18.3506ZM26.6568 22.5644C27.8027 23.2786 28.9515 24.003 30.1029 24.7365L31.1775 23.0497C30.0209 22.3129 28.8666 21.585 27.7148 20.8671L26.6568 22.5644ZM33.5067 26.9262C34.6405 27.6625 35.7764 28.4067 36.9139 29.1579L38.016 27.489C36.8745 26.7351 35.7343 25.9881 34.5959 25.2489L33.5067 26.9262ZM40.288 31.403C41.4116 32.156 42.5363 32.9149 43.6617 33.6788L44.785 32.0241C43.6565 31.258 42.5285 30.4969 41.4015 29.7416L40.288 31.403ZM47.0148 35.9678C48.1308 36.7337 49.2472 37.5038 50.3636 38.2772L51.5025 36.6331C50.3839 35.8582 49.2651 35.0865 48.1465 34.3188L47.0148 35.9678ZM53.7001 40.5978C54.8112 41.3735 55.922 42.1517 57.032 42.9315L58.1817 41.2949C57.0702 40.5141 55.9579 39.7348 54.845 38.9579L53.7001 40.5978ZM60.3566 45.2729C61.4653 46.0555 62.573 46.839 63.6792 47.6224L64.8351 45.9903C63.7282 45.2064 62.6197 44.4223 61.51 43.639L60.3566 45.2729ZM66.9965 49.9745C68.1055 50.7614 69.2125 51.5474 70.3174 52.3318L71.4752 50.701C70.3704 49.9167 69.2632 49.1305 68.154 48.3434L66.9965 49.9745ZM73.6322 54.6843C74.7441 55.4728 75.8533 56.2588 76.9595 57.0414L78.1146 55.4086C77.0092 54.6267 75.9007 53.8411 74.7893 53.0529L73.6322 54.6843ZM80.2762 59.3832C81.394 60.1708 82.5083 60.9539 83.6187 61.7317L84.7661 60.0936C83.6574 59.317 82.5446 58.535 81.4281 57.7483L80.2762 59.3832ZM86.9476 64.0551C88.0727 64.8373 89.1934 65.6129 90.3091 66.3811L91.4433 64.7338C90.3303 63.9675 89.2121 63.1936 88.0892 62.4129L86.9476 64.0551ZM93.6657 68.679C94.7982 69.4496 95.9252 70.2114 97.046 70.9633L98.1602 69.3023C97.0433 68.5531 95.92 67.7938 94.7908 67.0255L93.6657 68.679ZM100.444 73.2239C101.585 73.9763 102.719 74.7171 103.846 75.4451L104.931 73.7653C103.81 73.0408 102.681 72.3035 101.545 71.5543L100.444 73.2239ZM107.302 77.6524C108.462 78.3835 109.613 79.0996 110.755 79.7993L111.8 78.094C110.666 77.3991 109.522 76.6876 108.369 75.9607L107.302 77.6524ZM114.26 81.9121C115.453 82.618 116.634 83.304 117.805 83.9684L118.792 82.2292C117.633 81.5712 116.462 80.8913 115.279 80.1911L114.26 81.9121ZM121.36 85.9389C122.588 86.6019 123.802 87.2385 125.001 87.8465L125.905 86.0627C124.723 85.463 123.524 84.8346 122.31 84.1791L121.36 85.9389ZM128.698 89.6513C129.964 90.244 131.212 90.8011 132.441 91.32L133.219 89.4775C132.015 88.9694 130.791 88.4228 129.546 87.84L128.698 89.6513ZM136.246 92.8242C137.579 93.3133 138.887 93.7512 140.169 94.134L140.741 92.2176C139.502 91.8476 138.233 91.423 136.935 90.9466L136.246 92.8242ZM144.198 95.17C145.608 95.4701 146.984 95.6919 148.321 95.829L148.525 93.8395C147.267 93.7104 145.963 93.5006 144.614 93.2138L144.198 95.17ZM152.523 95.9682C153.98 95.9055 155.383 95.7182 156.727 95.3949L156.26 93.4503C155.053 93.7407 153.778 93.9123 152.437 93.97L152.523 95.9682ZM160.761 93.9114C162.023 93.2639 163.206 92.4594 164.305 91.49L162.982 89.9902C162.007 90.8504 160.961 91.5607 159.848 92.1319L160.761 93.9114ZM167.163 88.3287C167.581 87.7562 167.979 87.1505 168.36 86.5111L166.64 85.4889C166.291 86.0772 165.926 86.6308 165.547 87.1508L167.163 88.3287ZM168.36 86.5111C168.716 85.9118 169.063 85.318 169.401 84.7299L167.668 83.7328C167.334 84.3125 166.992 84.8978 166.64 85.4889L168.36 86.5111ZM171.379 81.1685C172.038 79.9363 172.659 78.7292 173.242 77.546L171.449 76.661C170.875 77.8242 170.265 79.0117 169.616 80.2247L171.379 81.1685ZM174.979 73.865C175.555 72.5851 176.089 71.3342 176.585 70.1105L174.732 69.3591C174.245 70.5595 173.721 71.7872 173.156 73.0441L174.979 73.865ZM178.048 66.2889C178.523 64.971 178.956 63.6858 179.352 62.4307L177.445 61.828C177.056 63.0587 176.632 64.3189 176.167 65.6111L178.048 66.2889ZM180.51 58.5059C180.88 57.157 181.212 55.8439 181.517 54.563L179.572 54.0998C179.271 55.3613 178.944 56.6523 178.581 57.9768L180.51 58.5059ZM182.406 50.5861C182.692 49.2254 182.956 47.8999 183.21 46.607L181.248 46.2214C180.994 47.5115 180.732 48.8265 180.449 50.174L182.406 50.5861ZM183.991 42.6436C184.26 41.3046 184.533 39.9982 184.827 38.7151L182.877 38.2687C182.578 39.5759 182.301 40.9016 182.03 42.2496L183.991 42.6436ZM185.81 34.8474C186.172 33.5738 186.574 32.3185 187.031 31.0735L185.154 30.3835C184.677 31.6819 184.26 32.9854 183.886 34.3003L185.81 34.8474ZM188.558 27.4305C189.108 26.2723 189.723 25.1148 190.419 23.9517L188.702 22.925C187.973 24.1442 187.328 25.3583 186.751 26.5728L188.558 27.4305ZM192.604 20.6543C193.35 19.6315 194.168 18.5991 195.067 17.5533L193.55 16.2495C192.617 17.3344 191.767 18.4085 190.988 19.4759L192.604 20.6543ZM197.759 14.6335C198.219 14.1665 198.696 13.6963 199.191 13.2225L197.809 11.7775C197.3 12.2646 196.808 12.7487 196.334 13.2302L197.759 14.6335ZM199.191 13.2225C199.684 12.7513 200.18 12.298 200.68 11.862L199.365 10.3547C198.842 10.8112 198.323 11.2854 197.809 11.7775L199.191 13.2225ZM203.723 9.45318C204.807 8.67824 205.907 7.97777 207.022 7.34884L206.039 5.6069C204.861 6.27148 203.701 7.01036 202.56 7.82594L203.723 9.45318ZM210.484 5.64192C211.691 5.12944 212.913 4.69278 214.151 4.3288L213.586 2.41007C212.275 2.79567 210.98 3.25831 209.702 3.80112L210.484 5.64192ZM217.927 3.44835C219.203 3.2258 220.494 3.07366 221.799 2.98907L221.669 0.993264C220.295 1.08236 218.932 1.2428 217.584 1.4781L217.927 3.44835ZM225.69 2.9329C226.976 2.97697 228.274 3.08151 229.584 3.24403L229.831 1.25925C228.464 1.08975 227.107 0.980275 225.758 0.934077L225.69 2.9329ZM233.478 3.88889C234.734 4.14751 235.998 4.45553 237.271 4.81081L237.809 2.88447C236.494 2.51743 235.184 2.19838 233.881 1.93L233.478 3.88889ZM241.056 5.99698C242.276 6.41995 243.502 6.88337 244.733 7.38533L245.488 5.53335C244.226 5.01863 242.966 4.54256 241.711 4.10734L241.056 5.99698ZM248.367 8.97072C249.549 9.51936 250.735 10.1012 251.924 10.7146L252.841 8.93723C251.629 8.31167 250.418 7.7175 249.209 7.15658L248.367 8.97072ZM255.413 12.5991C256.555 13.2431 257.699 13.9144 258.844 14.6114L259.884 12.9029C258.721 12.1949 257.558 11.5124 256.395 10.857L255.413 12.5991ZM262.204 16.7265C263.307 17.4437 264.41 18.1831 265.513 18.9437L266.648 17.297C265.531 16.5267 264.413 15.7771 263.294 15.0498L262.204 16.7265ZM268.761 21.2424C269.827 22.0166 270.893 22.8092 271.957 23.619L273.168 22.0272C272.092 21.2088 271.015 20.4073 269.936 19.624L268.761 21.2424ZM275.107 26.0673C276.141 26.8873 277.172 27.7224 278.202 28.5714L279.474 27.0284C278.435 26.1717 277.394 25.3287 276.351 24.5006L275.107 26.0673ZM281.264 31.1429C282.269 32.0008 283.27 32.871 284.269 33.7524L285.592 32.253C284.586 31.3647 283.576 30.4875 282.564 29.6224L281.264 31.1429ZM287.25 36.4252C288.229 37.3156 289.204 38.2158 290.176 39.1249L291.542 37.6645C290.564 36.7493 289.582 35.8428 288.596 34.9459L287.25 36.4252ZM293.078 41.8772C294.035 42.7973 294.989 43.7251 295.938 44.6595L297.341 43.2345C296.387 42.2945 295.427 41.361 294.464 40.435L293.078 41.8772ZM298.767 47.479C299.705 48.4249 300.638 49.3764 301.566 50.3325L303.001 48.9398C302.069 47.9786 301.13 47.0218 300.187 46.0705L298.767 47.479ZM304.332 53.2138C305.251 54.1808 306.164 55.1514 307.071 56.1245L308.534 54.7613C307.623 53.7835 306.706 52.8081 305.782 51.8361L304.332 53.2138ZM309.783 59.0644C310.682 60.0484 311.575 61.0339 312.46 62.0198L313.948 60.6839C313.059 59.6936 312.163 58.7037 311.259 57.7151L309.783 59.0644ZM315.126 65.0167C316.007 66.0154 316.88 67.0134 317.744 68.0097L319.255 66.6992C318.387 65.6988 317.511 64.6967 316.626 63.6937L315.126 65.0167ZM320.367 71.0592C321.234 72.0743 322.091 73.0864 322.938 74.0944L324.469 72.8077C323.619 71.796 322.759 70.78 321.889 69.7609L320.367 71.0592ZM325.513 77.1834C326.367 78.2143 327.209 79.2395 328.039 80.2576L329.589 78.9936C328.755 77.9718 327.91 76.943 327.054 75.9083L325.513 77.1834ZM330.57 83.3835C331.41 84.4289 332.237 85.4651 333.05 86.4907L334.617 85.2484C333.801 84.2193 332.972 83.1795 332.128 82.1305L330.57 83.3835ZM335.541 89.6556C336.367 90.7126 337.177 91.7561 337.97 92.7843L339.554 91.5629C338.758 90.5312 337.946 89.4843 337.117 88.4239L335.541 89.6556ZM340.43 95.9955C341.244 97.0653 342.038 98.1153 342.81 99.1435L344.409 97.9427C343.634 96.9112 342.838 95.8578 342.022 94.7845L340.43 95.9955ZM345.231 102.39C346.05 103.497 346.841 104.572 347.602 105.613L349.217 104.433C348.453 103.389 347.66 102.31 346.838 101.2L345.231 102.39ZM349.91 108.794C350.743 109.95 351.532 111.053 352.273 112.096L353.904 110.938C353.16 109.891 352.369 108.784 351.533 107.624L349.91 108.794ZM354.591 115.385C355.443 116.603 356.204 117.702 356.87 118.672L358.519 117.539C357.849 116.565 357.085 115.461 356.23 114.239L354.591 115.385Z" fill="black"/>
</svg>
