<svg width="334" height="139" viewBox="0 0 334 139" fill="none" xmlns="http://www.w3.org/2000/svg">
<path d="M208.144 99.9525L208.764 99.1676L208.144 99.9525ZM0.5 139L5.7229 128.702L12.03 138.374L0.5 139ZM133.006 31.6838L132.222 31.0639L133.006 31.6838ZM175.297 6.23415L175.816 7.08858L175.297 6.23415ZM214.026 31.6838L214.685 32.4356L214.026 31.6838ZM333.516 11.8565C332.96 12.1918 332.406 12.5367 331.853 12.8909L330.774 11.2074C331.341 10.8434 331.911 10.4887 332.484 10.1435L333.516 11.8565ZM328.579 15.1142C327.517 15.8749 326.463 16.6683 325.417 17.4922L324.18 15.9206C325.249 15.0791 326.327 14.2675 327.414 13.4884L328.579 15.1142ZM322.36 19.9997C321.362 20.8508 320.371 21.728 319.386 22.6291L318.036 21.1536C319.037 20.2378 320.045 19.3452 321.062 18.4782L322.36 19.9997ZM316.489 25.3639C315.549 26.2784 314.614 27.213 313.685 28.166L312.253 26.7695C313.194 25.8048 314.141 24.8576 315.095 23.9302L316.489 25.3639ZM310.941 31.0467C310.039 32.0145 309.143 32.9978 308.251 33.9949L306.76 32.6614C307.661 31.6551 308.566 30.6618 309.477 29.6837L310.941 31.0467ZM305.624 36.9839C304.759 37.9853 303.897 38.9981 303.04 40.0205L301.507 38.7351C302.371 37.7059 303.238 36.6856 304.111 35.6762L305.624 36.9839ZM300.492 43.0978C299.652 44.1244 298.816 45.1586 297.983 46.1986L296.422 44.9482C297.259 43.9034 298.099 42.8639 298.944 41.8315L300.492 43.0978ZM295.498 49.3274C294.674 50.3732 293.853 51.423 293.035 52.4751L291.456 51.2472C292.276 50.1923 293.1 49.1392 293.927 48.0897L295.498 49.3274ZM290.587 55.6372C289.772 56.6946 288.959 57.7526 288.148 58.8096L286.561 57.5923C287.373 56.5346 288.186 55.4752 289.003 54.4161L290.587 55.6372ZM285.716 61.9823C284.901 63.0462 284.087 64.1074 283.275 65.1638L281.69 63.945C282.501 62.8898 283.314 61.8295 284.129 60.7657L285.716 61.9823ZM280.828 68.3366C280.008 69.3958 279.19 70.4483 278.372 71.4924L276.797 70.259C277.612 69.2185 278.429 68.169 279.247 67.1122L280.828 68.3366ZM275.88 74.6486C275.04 75.7026 274.201 76.7458 273.363 77.776L271.812 76.5134C272.645 75.4893 273.48 74.4518 274.315 73.4026L275.88 74.6486ZM270.816 80.8636C269.946 81.9038 269.075 82.928 268.204 83.9339L266.692 82.6246C267.555 81.6281 268.418 80.6126 269.282 79.5801L270.816 80.8636ZM265.536 86.9533C264.626 87.9602 263.716 88.9448 262.804 89.9045L261.354 88.5267C262.253 87.5804 263.152 86.6083 264.051 85.6128L265.536 86.9533ZM259.993 92.7746C259.018 93.7399 258.039 94.674 257.058 95.5739L255.706 94.0998C256.668 93.2184 257.628 92.3018 258.587 91.3528L259.993 92.7746ZM254.009 98.2475C252.952 99.1303 251.891 99.9704 250.824 100.764L249.631 99.1591C250.664 98.39 251.696 97.5734 252.726 96.7126L254.009 98.2475ZM247.482 103.081C246.316 103.829 245.143 104.518 243.961 105.142L243.027 103.374C244.155 102.778 245.28 102.118 246.402 101.398L247.482 103.081ZM240.246 106.874C238.956 107.394 237.655 107.833 236.342 108.184L235.825 106.252C237.054 105.924 238.278 105.511 239.498 105.019L240.246 106.874ZM232.283 108.976C230.915 109.144 229.536 109.211 228.144 109.172L228.2 107.173C229.49 107.209 230.769 107.147 232.04 106.991L232.283 108.976ZM224.023 108.745C222.694 108.506 221.357 108.168 220.011 107.726L220.635 105.826C221.895 106.239 223.142 106.554 224.376 106.776L224.023 108.745ZM216.169 106.19C214.977 105.629 213.779 104.985 212.572 104.256L213.606 102.544C214.757 103.24 215.895 103.85 217.021 104.381L216.169 106.19ZM209.199 102.008C208.642 101.603 208.084 101.179 207.525 100.737L208.764 99.1676C209.304 99.5941 209.841 100.002 210.376 100.391L209.199 102.008ZM207.525 100.737C207.013 100.333 206.502 99.9189 205.991 99.4944L207.27 97.9565C207.768 98.3706 208.266 98.7744 208.764 99.1676L207.525 100.737ZM202.996 96.8831C202.032 96.0044 201.073 95.0921 200.119 94.1494L201.525 92.7271C202.46 93.6518 203.401 94.5454 204.343 95.4053L202.996 96.8831ZM197.352 91.3109C196.456 90.3586 195.568 89.3811 194.688 88.3807L196.189 87.0597C197.055 88.0439 197.929 89.0051 198.809 89.9407L197.352 91.3109ZM192.121 85.3684C191.286 84.3579 190.461 83.3282 189.647 82.2814L191.226 81.0537C192.028 82.0852 192.841 83.0996 193.663 84.0948L192.121 85.3684ZM187.264 79.1253C186.487 78.0653 185.722 76.9909 184.971 75.9043L186.616 74.7667C187.357 75.8383 188.111 76.8977 188.877 77.9428L187.264 79.1253ZM182.766 72.6217C182.046 71.5172 181.341 70.4026 180.652 69.28L182.357 68.234C183.036 69.341 183.731 70.4402 184.442 71.5295L182.766 72.6217ZM178.631 65.8809C177.97 64.7343 177.328 63.5818 176.705 62.4254L178.466 61.4771C179.08 62.6165 179.713 63.7524 180.364 64.8826L178.631 65.8809ZM174.881 58.9141C174.286 57.7261 173.713 56.5364 173.164 55.347L174.98 54.5086C175.52 55.6784 176.084 56.8492 176.669 58.0188L174.881 58.9141ZM171.564 51.7237C171.046 50.4934 170.555 49.2658 170.093 48.0437L171.964 47.3362C172.417 48.5344 172.899 49.739 173.408 50.9475L171.564 51.7237ZM168.765 44.3062C168.342 43.0315 167.953 41.7654 167.6 40.511L169.525 39.9697C169.869 41.1928 170.249 42.4293 170.663 43.6761L168.765 44.3062ZM166.625 36.6594C166.327 35.3336 166.075 34.0245 165.87 32.7361L167.845 32.4223C168.043 33.6665 168.287 34.9342 168.576 36.2217L166.625 36.6594ZM165.387 28.7568C165.276 27.388 165.226 26.0482 165.242 24.7426L167.242 24.7673C167.227 26.0053 167.274 27.2825 167.381 28.5942L165.387 28.7568ZM165.52 20.7198C165.701 19.3349 165.973 17.9992 166.341 16.7215L168.263 17.2757C167.925 18.4483 167.673 19.6849 167.503 20.9794L165.52 20.7198ZM167.829 12.9019C168.456 11.6608 169.205 10.5003 170.083 9.43214L171.628 10.7017C170.848 11.6512 170.178 12.6876 169.614 13.8042L167.829 12.9019ZM173.059 6.55494C173.602 6.13819 174.175 5.74612 174.777 5.37971L175.816 7.08858C175.275 7.41802 174.762 7.76928 174.277 8.14126L173.059 6.55494ZM174.777 5.37971C175.348 5.03253 175.926 4.70474 176.51 4.39587L177.445 6.1637C176.896 6.45413 176.353 6.76229 175.816 7.08858L174.777 5.37971ZM180.124 2.74787C181.368 2.26576 182.629 1.85999 183.9 1.52636L184.408 3.46079C183.208 3.77583 182.018 4.1586 180.846 4.61277L180.124 2.74787ZM187.784 0.729862C189.099 0.533074 190.415 0.407767 191.725 0.349443L191.814 2.34746C190.572 2.40278 189.324 2.52157 188.08 2.70784L187.784 0.729862ZM195.685 0.374261C197.014 0.449748 198.328 0.591876 199.616 0.795869L199.303 2.77126C198.08 2.57765 196.833 2.44271 195.571 2.37104L195.685 0.374261ZM203.493 1.61418C204.793 1.95924 206.054 2.36842 207.267 2.83636L206.547 4.70229C205.403 4.26099 204.211 3.87404 202.98 3.54716L203.493 1.61418ZM210.884 4.48293C212.089 5.12378 213.224 5.82957 214.273 6.59376L213.096 8.21029C212.128 7.50496 211.073 6.84847 209.945 6.24886L210.884 4.48293ZM217.318 9.23071C218.29 10.2399 219.13 11.3197 219.812 12.4604L218.095 13.4868C217.499 12.4894 216.754 11.529 215.877 10.6176L217.318 9.23071ZM221.413 16.2737C221.75 17.6148 221.872 19.0052 221.75 20.4272L219.757 20.2557C219.86 19.061 219.758 17.8933 219.473 16.7615L221.413 16.2737ZM220.756 24.4499C220.271 25.6353 219.611 26.8218 218.769 28.0024L217.141 26.841C217.902 25.7743 218.483 24.722 218.906 23.6916L220.756 24.4499ZM216.159 31.0577C215.698 31.5187 215.207 31.9781 214.685 32.4356L213.366 30.932C213.857 30.5019 214.316 30.0722 214.745 29.6434L216.159 31.0577ZM214.685 32.4356C214.15 32.9046 213.612 33.3291 213.07 33.7111L211.918 32.0759C212.399 31.737 212.882 31.3567 213.366 30.932L214.685 32.4356ZM209.447 35.6245C208.107 36.1099 206.757 36.3661 205.4 36.4283L205.308 34.4304C206.471 34.3771 207.622 34.1583 208.767 33.744L209.447 35.6245ZM201.32 36.0713C200.043 35.8019 198.766 35.3964 197.49 34.889L198.23 33.0307C199.42 33.5044 200.587 33.8727 201.733 34.1144L201.32 36.0713ZM193.9 33.2173C192.773 32.6244 191.641 31.9726 190.503 31.2825L191.541 29.5726C192.653 30.2476 193.749 30.8781 194.831 31.4472L193.9 33.2173ZM187.214 29.2076C186.149 28.5154 185.073 27.8031 183.992 27.0897L185.094 25.4207C186.178 26.1364 187.246 26.8433 188.304 27.5303L187.214 29.2076ZM180.777 24.9871C179.704 24.2971 178.624 23.6185 177.534 22.9642L178.564 21.2496C179.676 21.9174 180.774 22.6076 181.859 23.3049L180.777 24.9871ZM174.23 21.0837C173.108 20.485 171.978 19.9261 170.839 19.4204L171.65 17.5923C172.84 18.1206 174.014 18.7015 175.171 19.3193L174.23 21.0837ZM167.342 18.0603C166.152 17.6665 164.953 17.3437 163.743 17.1058L164.129 15.1434C165.43 15.3991 166.71 15.7444 167.97 16.1616L167.342 18.0603ZM160.073 16.6603C158.863 16.6075 157.641 16.6498 156.404 16.8012L156.161 14.8159C157.512 14.6507 158.845 14.6048 160.16 14.6622L160.073 16.6603ZM152.802 17.5496C151.663 17.8852 150.508 18.3205 149.336 18.8672L148.491 17.0547C149.751 16.467 150.999 15.9958 152.237 15.6312L152.802 17.5496ZM146.069 20.6609C145.065 21.2954 144.048 22.0153 143.018 22.8273L141.78 21.2567C142.861 20.4043 143.935 19.6439 145.001 18.9702L146.069 20.6609ZM140.16 25.2918C139.286 26.1097 138.404 26.9951 137.512 27.9518L136.049 26.5884C136.97 25.6002 137.884 24.6824 138.793 23.8317L140.16 25.2918ZM135.026 30.7802C134.616 31.2727 134.204 31.7804 133.791 32.3037L132.222 31.0639C132.645 30.5278 133.067 30.007 133.488 29.5011L135.026 30.7802ZM133.791 32.3037C133.379 32.8254 132.958 33.3496 132.53 33.876L130.979 32.6129C131.402 32.094 131.816 31.5776 132.222 31.0639L133.791 32.3037ZM129.883 37.0346C129.009 38.0504 128.107 39.0736 127.179 40.1033L125.693 38.7645C126.612 37.7454 127.503 36.7337 128.367 35.7301L129.883 37.0346ZM124.417 43.107C123.494 44.0918 122.548 45.0818 121.583 46.0762L120.148 44.6829C121.106 43.6965 122.043 42.715 122.958 41.7391L124.417 43.107ZM118.711 48.9878C117.759 49.9382 116.79 50.892 115.806 51.8485L114.412 50.414C115.391 49.4636 116.353 48.5163 117.298 47.5726L118.711 48.9878ZM112.846 54.6882C111.868 55.615 110.876 56.5437 109.872 57.4739L108.513 56.0068C109.512 55.0816 110.498 54.1579 111.47 53.2365L112.846 54.6882ZM106.862 60.2343C105.858 61.1456 104.843 62.0577 103.818 62.9701L102.488 61.4764C103.508 60.5681 104.518 59.6602 105.518 58.7533L106.862 60.2343ZM100.765 65.6651C99.7429 66.5593 98.7128 67.4531 97.6753 68.3463L96.3705 66.8305C97.404 65.9408 98.4301 65.0505 99.4477 64.16L100.765 65.6651ZM94.5766 70.9933C93.5412 71.8712 92.4997 72.7478 91.4528 73.6228L90.1702 72.0883C91.2135 71.2162 92.2515 70.3426 93.2832 69.4678L94.5766 70.9933ZM88.313 76.2296C87.2651 77.0938 86.2129 77.9559 85.1574 78.8155L83.8945 77.2647C84.9469 76.4076 85.9959 75.5481 87.0405 74.6866L88.313 76.2296ZM81.9859 81.3827C80.926 82.2355 79.8637 83.0854 78.7999 83.9317L77.5547 82.3666C78.6157 81.5225 79.6752 80.675 80.7321 79.8245L81.9859 81.3827ZM75.6017 86.4623C74.5311 87.3049 73.4599 88.1435 72.389 88.9777L71.16 87.3999C72.2283 86.5677 73.2969 85.7312 74.3648 84.8906L75.6017 86.4623ZM69.1642 91.4771C68.0853 92.3093 67.0077 93.1364 65.9324 93.9579L64.7182 92.3687C65.7912 91.5489 66.8663 90.7237 67.9428 89.8934L69.1642 91.4771ZM62.6803 96.4313C61.5943 97.2534 60.5117 98.0693 59.4335 98.8785L58.233 97.2789C59.3091 96.4713 60.3894 95.6571 61.4731 94.8367L62.6803 96.4313ZM56.1568 101.327C55.0591 102.144 53.9672 102.953 52.882 103.754L51.6943 102.145C52.7775 101.345 53.8673 100.538 54.9628 99.7226L56.1568 101.327ZM49.602 106.165C48.4911 106.978 47.3888 107.782 46.2961 108.576L45.1206 106.958C46.2113 106.165 47.3117 105.363 48.4205 104.551L49.602 106.165ZM43.0042 110.958C41.8864 111.764 40.7805 112.558 39.6879 113.34L38.524 111.714C39.6147 110.933 40.7187 110.141 41.8345 109.336L43.0042 110.958ZM36.3582 115.715C35.2363 116.512 34.1306 117.294 33.0429 118.061L31.8902 116.427C32.9761 115.661 34.0799 114.88 35.1999 114.084L36.3582 115.715ZM29.7103 120.403C28.5659 121.205 27.4449 121.987 26.3492 122.749L25.2075 121.107C26.3013 120.346 27.4205 119.565 28.563 118.765L29.7103 120.403ZM22.9944 125.073C21.842 125.868 20.7235 126.638 19.6418 127.379L18.5112 125.729C19.5911 124.989 20.7077 124.221 21.8582 123.427L22.9944 125.073ZM16.2838 129.672C15.1015 130.476 13.9751 131.239 12.9091 131.959L11.7901 130.301C12.8541 129.583 13.9786 128.821 15.1588 128.018L16.2838 129.672ZM9.50912 134.245C8.2471 135.09 7.10861 135.848 6.10574 136.513L5.00024 134.846C6.00082 134.183 7.13693 133.426 8.39645 132.583L9.50912 134.245Z" fill="black"/>
</svg>
