<svg width="295" height="120" viewBox="0 0 295 120" fill="none" xmlns="http://www.w3.org/2000/svg">
<path d="M294.5 119.5L293.738 107.978L284.141 114.399L294.5 119.5ZM1.01545 0.325569C0.889194 1.0383 0.780511 1.7428 0.689214 2.43918L2.67224 2.69916C2.75955 2.03324 2.86363 1.35838 2.98479 0.674431L1.01545 0.325569ZM0.348561 6.52096C0.301051 7.92343 0.329347 9.29051 0.431606 10.6232L2.42574 10.4702C2.32932 9.21358 2.30231 7.92024 2.34741 6.58867L0.348561 6.52096ZM0.991651 14.6861C1.26837 16.0572 1.62986 17.3876 2.07324 18.6786L3.96479 18.0289C3.55015 16.8216 3.2116 15.5761 2.95212 14.2904L0.991651 14.6861ZM3.66684 22.476C4.27993 23.7026 4.97303 24.8886 5.74249 26.0357L7.40341 24.9215C6.67983 23.8429 6.02981 22.7302 5.45582 21.5818L3.66684 22.476ZM8.23093 29.3087C9.10915 30.3363 10.0539 31.3293 11.0618 32.2893L12.4412 30.8411C11.48 29.9257 10.5827 28.9822 9.75138 28.0093L8.23093 29.3087ZM14.1304 34.9595C15.1831 35.7992 16.2884 36.6117 17.4439 37.3984L18.5695 35.7451C17.453 34.985 16.3884 34.2023 15.3777 33.396L14.1304 34.9595ZM20.8434 39.5555C21.9976 40.2392 23.193 40.9023 24.4278 41.5456L25.3519 39.7719C24.1474 39.1443 22.9838 38.4989 21.8628 37.8348L20.8434 39.5555ZM28.0302 43.3168C29.2385 43.878 30.4791 44.4233 31.7505 44.9536L32.5204 43.1077C31.2719 42.587 30.0555 42.0523 28.8726 41.5029L28.0302 43.3168ZM35.504 46.4431C36.7385 46.9095 37.9986 47.3637 39.2832 47.8063L39.9348 45.9154C38.6677 45.4788 37.426 45.0313 36.2108 44.5722L35.504 46.4431ZM43.1665 49.0868C44.412 49.4801 45.6781 49.8638 46.9637 50.2385L47.5233 48.3184C46.2512 47.9476 44.9993 47.5682 43.7686 47.1796L43.1665 49.0868ZM50.8787 51.3363C52.1547 51.6806 53.4481 52.0171 54.7582 52.3462L55.2455 50.4065C53.9461 50.0801 52.664 49.7465 51.3997 49.4053L50.8787 51.3363ZM58.6496 53.2912C59.9621 53.5995 61.2899 53.9011 62.6321 54.1965L63.062 52.2432C61.7285 51.9497 60.4098 51.6502 59.1068 51.3442L58.6496 53.2912ZM66.5085 55.0246C67.8097 55.2945 69.1233 55.5592 70.4487 55.819L70.8334 53.8563C69.5148 53.5979 68.2084 53.3346 66.9147 53.0663L66.5085 55.0246ZM74.4392 56.5803C75.7308 56.8203 77.0326 57.0561 78.3441 57.2881L78.6925 55.3187C77.3864 55.0877 76.0902 54.8528 74.8045 54.614L74.4392 56.5803ZM82.3071 57.973C83.6296 58.1964 84.961 58.4163 86.3009 58.6331L86.6204 56.6588C85.2848 56.4427 83.9579 56.2235 82.6402 56.001L82.3071 57.973ZM90.2275 59.256C91.544 59.4609 92.868 59.6631 94.199 59.8628L94.4959 57.885C93.1683 57.6857 91.8478 57.4841 90.535 57.2798L90.2275 59.256ZM98.1995 60.4535C99.5065 60.6434 100.82 60.8313 102.138 61.0174L102.418 59.0371C101.102 58.8512 99.7912 58.6637 98.4871 58.4743L98.1995 60.4535ZM106.111 61.571C107.441 61.7539 108.775 61.9354 110.115 62.1157L110.382 60.1336C109.044 59.9536 107.711 59.7723 106.384 59.5897L106.111 61.571ZM114.064 62.6423C115.384 62.8167 116.708 62.9902 118.035 63.163L118.293 61.1798C116.967 61.0071 115.644 60.8337 114.326 60.6595L114.064 62.6423ZM122.028 63.6797C123.348 63.8496 124.67 64.019 125.996 64.1882L126.249 62.2043C124.924 62.0352 123.602 61.8658 122.283 61.6961L122.028 63.6797ZM129.965 64.6938C131.29 64.8623 132.618 65.0308 133.948 65.1997L134.2 63.2156C132.87 63.0468 131.542 62.8782 130.217 62.7097L129.965 64.6938ZM137.925 65.7052C139.247 65.8734 140.57 66.0421 141.894 66.2116L142.148 64.2278C140.823 64.0582 139.499 63.8894 138.177 63.7212L137.925 65.7052ZM145.868 66.7224C147.193 66.8935 148.519 67.0656 149.844 67.2388L150.104 65.2557C148.777 65.0823 147.45 64.9101 146.124 64.7389L145.868 66.7224ZM153.814 67.7614C155.137 67.9369 156.46 68.1139 157.783 68.2924L158.05 66.3104C156.726 66.1316 155.402 65.9545 154.077 65.7788L153.814 67.7614ZM161.747 68.8333C163.072 69.016 164.397 69.2006 165.719 69.3872L165.999 67.4069C164.674 67.2199 163.348 67.035 162.021 66.8521L161.747 68.8333ZM169.683 69.954C171.003 70.1451 172.321 70.3386 173.636 70.5347L173.931 68.5565C172.613 68.36 171.292 68.1661 169.97 67.9746L169.683 69.954ZM177.599 71.1344C178.922 71.3378 180.242 71.544 181.56 71.7532L181.873 69.778C180.553 69.5682 179.229 69.3615 177.903 69.1576L177.599 71.1344ZM185.501 72.3905C186.819 72.6075 188.134 72.8278 189.444 73.0516L189.781 71.0802C188.466 70.8556 187.148 70.6347 185.826 70.4171L185.501 72.3905ZM193.4 73.7409C194.714 73.9745 196.024 74.212 197.328 74.4536L197.692 72.487C196.383 72.2445 195.069 72.0062 193.75 71.7718L193.4 73.7409ZM201.241 75.1939C202.563 75.4495 203.879 75.7096 205.189 75.9746L205.586 74.0143C204.27 73.7482 202.948 73.4869 201.621 73.2303L201.241 75.1939ZM209.1 76.7843C210.398 77.0595 211.69 77.3398 212.975 77.6255L213.409 75.6732C212.118 75.386 210.819 75.1043 209.514 74.8277L209.1 76.7843ZM216.907 78.5223C218.209 78.8271 219.504 79.1378 220.79 79.4547L221.269 77.5128C219.975 77.1939 218.672 76.8814 217.362 76.5749L216.907 78.5223ZM224.622 80.4243C225.932 80.7648 227.232 81.1122 228.523 81.4669L229.053 79.5384C227.753 79.1812 226.444 78.8313 225.125 78.4886L224.622 80.4243ZM232.362 82.5529C233.634 82.923 234.894 83.3007 236.143 83.6862L236.733 81.7751C235.473 81.3864 234.202 81.0056 232.921 80.6327L232.362 82.5529ZM239.99 84.9111C241.26 85.3281 242.516 85.7539 243.759 86.1888L244.42 84.301C243.164 83.8617 241.896 83.4318 240.614 83.011L239.99 84.9111ZM247.479 87.5332C248.746 88.0066 249.998 88.4903 251.234 88.9846L251.977 87.1277C250.726 86.6274 249.46 86.1382 248.178 85.6596L247.479 87.5332ZM254.891 90.5001C256.121 91.0278 257.332 91.5671 258.525 92.1182L259.364 90.3027C258.154 89.7436 256.926 89.1969 255.68 88.6623L254.891 90.5001ZM262.13 93.8494C263.312 94.4392 264.473 95.042 265.614 95.6581L266.564 93.8986C265.405 93.2718 264.224 92.6591 263.024 92.0599L262.13 93.8494ZM269.109 97.6287C270.257 98.3041 271.38 98.9947 272.479 99.7009L273.56 98.0185C272.439 97.2976 271.293 96.5932 270.123 95.9049L269.109 97.6287ZM275.755 101.907C276.85 102.679 277.915 103.469 278.952 104.277L280.181 102.7C279.119 101.871 278.028 101.063 276.908 100.273L275.755 101.907ZM281.973 106.758C282.986 107.634 283.966 108.531 284.913 109.449L286.305 108.013C285.331 107.068 284.323 106.146 283.282 105.245L281.973 106.758ZM287.648 112.265C288.54 113.241 289.396 114.239 290.214 115.26L291.775 114.009C290.929 112.953 290.045 111.922 289.124 110.915L287.648 112.265Z" fill="black"/>
</svg>
