<?xml version="1.0" standalone="no"?>
<!DOCTYPE svg PUBLIC "-//W3C//DTD SVG 20010904//EN"
 "http://www.w3.org/TR/2001/REC-SVG-20010904/DTD/svg10.dtd">
<svg version="1.0" xmlns="http://www.w3.org/2000/svg"
 width="24.000000pt" height="24.000000pt" viewBox="0 0 24.000000 24.000000"
 preserveAspectRatio="xMidYMid meet">

<g transform="translate(0.000000,24.000000) scale(0.100000,-0.100000)"
fill="#000000" stroke="none">
<path d="M25 205 c-43 -42 -28 -87 50 -158 l42 -37 46 37 c83 67 98 132 41
170 -25 16 -28 16 -56 0 -27 -15 -32 -15 -51 -2 -30 21 -44 19 -72 -10z m77
-12 c17 -15 19 -15 36 0 27 25 59 21 79 -9 16 -24 16 -28 -1 -57 -9 -18 -35
-47 -56 -65 l-40 -33 -40 33 c-21 18 -47 47 -56 65 -17 29 -17 33 -1 57 20 30
52 34 79 9z"/>
</g>
</svg>
