<svg width="116" height="78" viewBox="0 0 116 78" fill="none" xmlns="http://www.w3.org/2000/svg">
<path d="M30 28.2915C44.9234 26.5315 50.736 25.3976 61.3853 21.9327M71.3922 18.2846C73.7849 17.2214 75.6983 16.0978 86.4025 7.36802M71.3922 18.2846C75.6697 13.2526 79.4131 11.0841 86.4025 7.36802M71.3922 18.2846C73.9368 10.8399 77.6517 8.86069 86.4025 7.36802M71.3922 18.2846C75.5937 12.2239 79.0582 10.0266 86.4025 7.36802M71.3922 18.2846C74.6659 11.2907 78.2977 9.26454 86.4025 7.36802M71.3922 18.2846C76.4354 14.1884 79.8381 11.7745 86.4025 7.36802M71.3922 18.2846C78.0796 16.1245 81.0238 12.8619 86.4025 7.36802M71.3922 18.2846C78.659 17.0642 81.6749 14.0878 86.4025 7.36802M71.3922 18.2846C79.6076 17.653 82.8093 15.1318 86.4025 7.36802M71.3922 18.2846C80.7646 18.2709 83.9691 15.7813 86.4025 7.36802M71.3922 18.2846C73.2795 10.2364 76.5365 7.82512 86.4025 7.36802M71.3922 18.2846C67.833 19.703 64.556 20.901 61.3853 21.9327M61.3853 21.9327C64.362 16.1558 67.1198 9.9975 68.2081 3.72915M61.3853 21.9327C64.8992 16.7699 67.9518 10.7299 68.2081 3.72915M61.3853 21.9327C65.7458 17.1485 69.0297 11.2245 68.2081 3.72915M61.3853 21.9327C66.8453 17.3261 69.7955 11.2211 68.2081 3.72915M61.3853 21.9327C68.0318 17.4918 71.0249 11.4018 68.2081 3.72915M61.3853 21.9327C68.8973 17.9647 71.9246 11.888 68.2081 3.72915M61.3853 21.9327C70.6305 16.8952 72.629 12.0222 68.2081 3.72915M61.3853 21.9327C63.8792 15.9998 65.38 11.9664 68.2081 3.72915M61.3853 21.9327C62.8141 16.1225 64.3109 12.1068 68.2081 3.72915M61.3853 21.9327C62.0326 15.1098 63.5224 11.1248 68.2081 3.72915M61.3853 21.9327C61.3853 21.9327 58.6561 16.9201 61.8401 12.3715C65.0241 7.82288 68.2081 1 68.2081 1M61.3853 21.9327C61.3853 21.9327 61.8401 14.6458 62.7498 12.3715M61.3853 21.9327C61.2316 18.0948 59.9385 15.76 62.7498 12.3715M61.3853 21.9327C70.0454 17.8494 72.886 13.7977 70.0188 7.13374M61.3853 21.9327C61.8477 21.6884 62.2931 21.4362 62.7211 21.1759M61.3853 21.9327C61.8487 21.6802 62.2939 21.4281 62.7211 21.1759M68.2081 3.72915V1M68.2081 3.72915C68.9571 4.93787 69.5608 6.06914 70.0188 7.13374M68.2081 3.72915C71.6958 11.3857 69.2445 17.2087 62.7211 21.1759M68.2081 3.72915C72.4074 11.6065 70.8147 16.398 62.7211 21.1759M68.2081 1C68.2081 1 65.3164 7.82288 64.2241 9.64232M68.2081 1C67.678 3.73411 66.5895 5.76141 64.2241 9.64232M68.2081 1C68.4542 2.13644 68.6487 2.92803 70.0188 7.13374M62.7498 12.3715C63.6596 10.0972 63.4049 11.0069 64.2241 9.64232" stroke="white" stroke-width="0.2"/>
<path d="M61.8402 21.9235C67.8295 24.4456 76.2737 26.2839 82.6074 26.8854M61.8402 21.9235C67.2587 25.0286 75.6077 27.1699 82.6074 26.8854M61.8402 21.9235C66.9466 25.9019 75.1978 28.2828 82.6074 26.8854M61.8402 21.9235C66.8543 27.0119 75.2603 29.046 82.6074 26.8854M61.8402 21.9235C66.7806 28.2076 75.1749 30.2857 82.6074 26.8854M61.8402 21.9235C67.9478 23.9523 74.1765 24.7012 82.6074 26.8854M61.8402 21.9235C67.7433 22.8998 73.954 23.6461 82.6074 26.8854M61.8402 21.9235C68.6927 22.0425 74.8722 22.7841 82.6074 26.8854M61.8402 21.9235C61.8402 21.9235 68.7188 18.3795 73.4995 21.2031C78.2802 24.0267 85.3284 26.6748 85.3284 26.6748M61.8402 21.9235C61.8402 21.9235 71.232 21.3786 73.5697 22.1101M61.8402 21.9235C65.6548 21.4742 69.9743 19.5686 73.5697 22.1101M61.8402 21.9235C66.5795 30.2428 72.9297 32.3261 79.3526 28.9533C83.4401 27.2628 84.2143 27.0078 85.3284 26.6748M61.8402 21.9235C62.1194 22.3657 63.2956 23.3694 64.1145 24.1978M61.8402 21.9235C62.1277 22.3661 63.8301 23.7914 64.1145 24.1978M82.6074 26.8854L85.3284 26.6748M82.6074 26.8854C75.2427 30.9534 68.6631 29.6561 64.1145 24.1978M82.6074 26.8854C75.0775 31.6799 68.6631 31.0207 64.1145 24.1978M85.3284 26.6748C85.3284 26.6748 78.3027 24.3181 76.4044 23.3694M85.3284 26.6748C82.5615 26.3572 80.4563 25.4283 76.4044 23.3694M73.5697 22.1101C75.9074 22.8417 74.9807 22.6579 76.4044 23.3694" stroke="white" stroke-width="0.2"/>
<path d="M43.6456 26.4721C52.7503 32.9109 58.4139 35.6237 71.8469 35.1144M43.6456 26.4721C53.9022 32.6704 60.1016 34.4705 71.8469 35.1144M43.6456 26.4721C54.0614 31.5162 60.1986 33.5131 71.8469 35.1144M43.6456 26.4721C54.1935 30.6307 60.3411 32.5688 71.8469 35.1144M43.6456 26.4721C54.4842 29.9842 60.6659 31.8717 71.8469 35.1144M43.6456 26.4721C54.9614 29.1286 61.0762 31.1632 71.8469 35.1144M43.6456 26.4721C54.8344 28.6031 61.0261 30.3246 71.8469 35.1144M43.6456 26.4721C55.1054 27.789 61.2845 29.6608 71.8469 35.1144M43.6456 26.4721C55.7313 27.0969 61.8179 29.2152 71.8469 35.1144M43.6456 26.4721C55.4154 26.4345 61.6086 28.2427 71.8469 35.1144M43.6456 26.4721C56.0286 25.4936 62.1062 27.6943 71.8469 35.1144M43.6456 26.4721C54.8398 24.9333 61.0586 25.6283 71.8469 35.1144M43.6456 26.4721C55.9768 23.7727 62.3056 24.9545 71.8469 35.1144M43.6456 26.4721C52.7926 34.303 58.7854 36.6294 71.8469 35.1144M43.6456 26.4721C52.2548 35.5389 58.2099 37.951 71.8469 35.1144" stroke="white" stroke-width="0.2"/>
<path d="M39.5521 26.927C43.7035 21.0312 46.635 17.9783 53.6527 13.2812M39.5521 26.927C42.5555 20.3908 46.0285 17.589 53.6527 13.2812M39.5521 26.927C55.4722 23.2881 47.7396 22.8332 53.6527 13.2812M39.5521 26.927C41.4081 19.8098 44.8288 16.9855 53.6527 13.2812M39.5521 26.927C40.8226 19.0579 43.998 16.1225 53.6527 13.2812M39.5521 26.927C40.2742 17.8136 44.0593 15.3777 53.6527 13.2812M39.5521 26.927C44.5556 21.9235 47.0122 18.7395 53.6527 13.2812M39.5521 26.927C54.1076 22.3784 47.2847 22.3784 53.6527 13.2812M39.5521 26.927C55.0173 20.5589 45.0104 22.3784 53.6527 13.2812M39.5521 26.927C53.6527 20.5589 44.1007 21.1326 53.6527 13.2812M39.5521 26.927C51.8333 19.6492 44.5556 20.1041 53.6527 13.2812M39.5521 26.927C48.0482 21.2876 44.5556 19.5681 53.6527 13.2812" stroke="white" stroke-width="0.2"/>
<path d="M7.5625 54V40.0352H8.58789V53.1211H16.6152V40.0352H17.6406V53.1211H19.4473V57.7109H18.4219V54H7.5625ZM26.8594 53.1211C28.2656 53.1211 28.9688 52.4701 28.9688 51.168C28.9688 49.8659 28.1452 49.2148 26.498 49.2148H24.9355V48.4238C27.5397 48.3262 28.8418 47.5807 28.8418 46.1875C28.8418 45.1458 28.2624 44.625 27.1035 44.625H22.9238V53.1211H26.8594ZM21.8984 54V43.7461H27.1719C28.9818 43.7461 29.8867 44.5697 29.8867 46.2168C29.8867 47.3431 29.2487 48.1634 27.9727 48.6777C29.3659 49.0228 30.0625 49.8431 30.0625 51.1387C30.0625 53.0462 29.0306 54 26.9668 54H21.8984ZM36.7324 43.7461C39.5384 43.7461 40.9414 45.2988 40.9414 48.4043C40.9414 48.6257 40.9349 48.8568 40.9219 49.0977H33.1387C33.1387 51.7799 34.5579 53.1211 37.3965 53.1211C38.5618 53.1211 39.597 52.9583 40.502 52.6328V53.5117C39.597 53.8372 38.5618 54 37.3965 54C33.8743 54 32.1133 52.252 32.1133 48.7559C32.1133 45.416 33.653 43.7461 36.7324 43.7461ZM33.1387 48.1797H39.9551C39.916 45.7969 38.8418 44.6055 36.7324 44.6055C34.4538 44.6055 33.2559 45.7969 33.1387 48.1797ZM50.2676 43.7461V44.625H46.6543V54H45.6289V44.625H42.0156V43.7461H50.2676ZM51.2539 48.873C51.2539 45.39 52.8815 43.6484 56.1367 43.6484C59.3919 43.6484 61.0195 45.39 61.0195 48.873C61.0195 52.3561 59.3919 54.0977 56.1367 54.0977C52.8945 54.0977 51.2669 52.3561 51.2539 48.873ZM52.2793 48.834C52.2793 51.7572 53.5651 53.2188 56.1367 53.2188C58.7083 53.2188 59.9941 51.7572 59.9941 48.834C59.9941 45.9629 58.7083 44.5273 56.1367 44.5273C53.5651 44.5273 52.2793 45.9629 52.2793 48.834ZM71.6445 43.7461V54H70.6191V49.957C69.6686 50.6992 68.5326 51.0703 67.2109 51.0703C64.5482 51.0703 63.2168 49.7324 63.2168 47.0566V43.7461H64.2422V47.0859C64.2422 49.1302 65.248 50.1523 67.2598 50.1523C68.6855 50.1523 69.8053 49.7194 70.6191 48.8535V43.7461H71.6445ZM74.5742 54V43.7461H75.5996V48.3359H81.8008V43.7461H82.8262V54H81.8008V49.2148H75.5996V54H74.5742ZM95.7754 54V43.7461H96.9961V54H95.7754ZM86.791 43.7461V53.0918H90.7754C92.39 53.0918 93.1973 52.3464 93.1973 50.8555C93.1973 49.5729 92.377 48.9316 90.7363 48.9316H88.1191V48.0527H90.7266C93.0703 48.0527 94.2422 49.0163 94.2422 50.9434C94.2422 52.9811 93.1094 54 90.8438 54H85.7656V43.7461H86.791ZM107.25 54V45.0938L100.951 54H99.9258V43.7461H100.854V52.6523L107.152 43.7461H108.178V54H107.25ZM101.566 40.0352H102.396C102.396 41.207 102.95 41.793 104.057 41.793C105.163 41.793 105.717 41.207 105.717 40.0352H106.547C106.547 41.7279 105.717 42.5742 104.057 42.5742C102.396 42.5742 101.566 41.7279 101.566 40.0352Z" fill="white"/>
<path d="M24.0874 63.1084C23.8433 63.9189 23.5747 64.688 23.2817 65.4155C22.9888 66.1431 22.7104 66.7876 22.4468 67.3491C22.144 68.0034 21.8389 68.6089 21.5312 69.1655C21.2822 69.605 21.0723 69.9883 20.9014 70.3154C20.7354 70.6426 20.6011 70.9233 20.4985 71.1577C20.396 71.3872 20.3228 71.5801 20.2788 71.7363C20.2349 71.8877 20.2129 72.0122 20.2129 72.1099C20.2129 72.2124 20.2349 72.2905 20.2788 72.3442C20.3228 72.4028 20.374 72.4468 20.4326 72.4761C20.4961 72.5054 20.5571 72.5225 20.6157 72.5273C20.6792 72.5371 20.7305 72.542 20.7695 72.542C20.9404 72.542 21.1431 72.4932 21.3774 72.3955C21.6167 72.3027 21.873 72.1709 22.1465 72C22.4248 71.8242 22.7153 71.6143 23.0181 71.3701C23.3208 71.1211 23.6211 70.8428 23.9189 70.5352C24.2168 70.2275 24.5049 69.8955 24.7832 69.5391C25.0664 69.1777 25.3252 68.7969 25.5596 68.3965C25.9355 67.7422 26.2358 67.1367 26.4604 66.5801C26.3188 66.3018 26.2139 66.0161 26.1455 65.7231C26.0771 65.4253 26.043 65.1445 26.043 64.8809C26.043 64.5 26.1016 64.1948 26.2188 63.9653C26.3408 63.7358 26.5093 63.6211 26.7241 63.6211C26.8413 63.6211 26.939 63.6504 27.0171 63.709C27.1001 63.7676 27.166 63.8433 27.2148 63.936C27.2637 64.0288 27.2979 64.1313 27.3174 64.2437C27.3418 64.3511 27.354 64.4585 27.354 64.5659C27.354 64.7954 27.3198 65.0591 27.2515 65.3569C27.188 65.6548 27.0928 65.9771 26.9658 66.3237C26.8438 66.6655 26.6924 67.0293 26.5117 67.415C26.3311 67.7959 26.1235 68.1865 25.8892 68.5869C25.6548 68.9873 25.3936 69.373 25.1055 69.7441C24.8223 70.1104 24.5244 70.4546 24.2119 70.7769C23.9043 71.0991 23.5894 71.3945 23.2671 71.6631C22.9497 71.9268 22.6396 72.1514 22.3369 72.3369C22.0391 72.5273 21.7534 72.6738 21.48 72.7764C21.2114 72.8838 20.9746 72.9375 20.7695 72.9375C20.3838 72.9375 20.0811 72.8496 19.8613 72.6738C19.6416 72.498 19.5317 72.2173 19.5317 71.8315C19.5317 71.6216 19.5586 71.4116 19.6123 71.2017C19.6709 70.9917 19.7539 70.7646 19.8613 70.5205C19.9736 70.2764 20.1104 70.0103 20.2715 69.7222C20.4326 69.4292 20.6182 69.0996 20.8281 68.7334C20.3398 69.3828 19.8125 70.0127 19.2461 70.623C18.6846 71.2285 18.084 71.7705 17.4443 72.249C17.1562 72.4639 16.8926 72.6421 16.6533 72.7837C16.4141 72.9302 16.1943 73.0474 15.9941 73.1353C15.7988 73.2231 15.6206 73.2842 15.4595 73.3184C15.2983 73.3574 15.1519 73.377 15.02 73.377C14.8296 73.377 14.6636 73.3501 14.522 73.2964C14.3853 73.2427 14.2705 73.1694 14.1777 73.0767C14.0898 72.9888 14.0239 72.8813 13.98 72.7544C13.9409 72.6323 13.9214 72.498 13.9214 72.3516C13.9214 72.1074 13.958 71.8755 14.0312 71.6558C14.1045 71.436 14.2119 71.2114 14.3535 70.9819C14.5146 70.728 14.7051 70.4473 14.9248 70.1396C15.1494 69.832 15.3813 69.5098 15.6206 69.1729C15.8647 68.8359 16.104 68.4917 16.3384 68.1401C16.5776 67.7886 16.79 67.4395 16.9756 67.0928C17.166 66.7461 17.3174 66.4092 17.4297 66.082C17.5469 65.7549 17.6055 65.4473 17.6055 65.1592C17.6055 64.7051 17.5151 64.29 17.3345 63.9141C17.1587 63.5381 16.9048 63.2158 16.5728 62.9473C16.2407 62.6787 15.8379 62.4712 15.3643 62.3247C14.8955 62.1782 14.3682 62.105 13.7822 62.105C12.9766 62.105 12.2368 62.2222 11.563 62.4565C10.8892 62.6909 10.3081 63.0156 9.81982 63.4307C9.33643 63.8408 8.95801 64.3267 8.68457 64.8882C8.41602 65.4448 8.28174 66.0454 8.28174 66.6899C8.28174 67.0854 8.34277 67.4468 8.46484 67.7739C8.5918 68.0962 8.76758 68.3745 8.99219 68.6089C9.22168 68.8433 9.49756 69.0264 9.81982 69.1582C10.147 69.2852 10.5107 69.3486 10.9111 69.3486C11.375 69.3486 11.8047 69.2681 12.2002 69.1069C12.5957 68.9409 12.9546 68.7163 13.2769 68.4331C13.604 68.1499 13.8945 67.8179 14.1484 67.437C14.4023 67.0513 14.6172 66.6387 14.793 66.1992L15.1226 66.3164C14.6489 67.4932 14.0215 68.3843 13.2402 68.9897C12.459 69.5903 11.5312 69.8906 10.457 69.8906C10.0029 69.8906 9.59033 69.8149 9.21924 69.6636C8.84814 69.5073 8.53076 69.2925 8.26709 69.019C8.00342 68.7407 7.79834 68.4111 7.65186 68.0303C7.51025 67.6445 7.43945 67.2222 7.43945 66.7632C7.43945 66.1431 7.54199 65.5864 7.74707 65.0933C7.95215 64.6001 8.22314 64.168 8.56006 63.7969C8.90186 63.4209 9.2876 63.1011 9.71729 62.8374C10.1519 62.5737 10.5962 62.3589 11.0503 62.1929C11.5044 62.0269 11.9487 61.9072 12.3833 61.834C12.8179 61.7559 13.2085 61.7168 13.5552 61.7168C14.2095 61.7168 14.8149 61.7974 15.3716 61.9585C15.9282 62.1147 16.4092 62.3516 16.8145 62.6689C17.2246 62.9814 17.5444 63.3696 17.7739 63.8335C18.0034 64.2974 18.1182 64.8345 18.1182 65.4448C18.1182 65.8892 18.0327 66.3823 17.8618 66.9243C17.6958 67.4614 17.4053 68.04 16.9902 68.6602C16.6094 69.2314 16.2627 69.7271 15.9502 70.147C15.6377 70.5669 15.3691 70.9307 15.1445 71.2383C14.9248 71.541 14.7539 71.7949 14.6318 72C14.5098 72.2051 14.4487 72.376 14.4487 72.5127C14.4487 72.6543 14.5 72.769 14.6025 72.8569C14.7051 72.9448 14.8467 72.9888 15.0273 72.9888C15.2861 72.9888 15.5986 72.9009 15.9648 72.7251C16.3359 72.5493 16.751 72.2905 17.21 71.9487C17.6641 71.6118 18.0962 71.2407 18.5063 70.8354C18.9214 70.4302 19.312 70.0103 19.6782 69.5757C20.0493 69.1362 20.3984 68.6895 20.7256 68.2354C21.0527 67.7812 21.3555 67.3369 21.6338 66.9023C21.9121 66.4629 22.166 66.0405 22.3955 65.6353C22.625 65.2251 22.8276 64.8491 23.0034 64.5073C23.1792 64.1606 23.3281 63.8555 23.4502 63.5918C23.5723 63.3232 23.665 63.1133 23.7285 62.9619L24.0874 63.1084ZM26.6582 66.0747C26.7705 65.7622 26.8511 65.479 26.8999 65.2251C26.9487 64.9712 26.9731 64.7539 26.9731 64.5732C26.9731 64.5391 26.9707 64.4902 26.9658 64.4268C26.9658 64.3584 26.9561 64.2949 26.9365 64.2363C26.9219 64.1729 26.8975 64.1191 26.8633 64.0752C26.8291 64.0264 26.7827 64.002 26.7241 64.002C26.6411 64.002 26.5703 64.085 26.5117 64.251C26.458 64.417 26.4312 64.6196 26.4312 64.8589C26.4312 65.0396 26.4482 65.2349 26.4824 65.4448C26.5166 65.6499 26.5752 65.8599 26.6582 66.0747ZM31.2725 70.0078C31.292 70.0127 31.3115 70.0151 31.3311 70.0151C31.3506 70.0151 31.3726 70.0151 31.397 70.0151C31.5337 70.0151 31.6582 70.0029 31.7705 69.9785C31.8828 69.9492 31.9854 69.9053 32.0781 69.8467C32.1758 69.7881 32.2686 69.7124 32.3564 69.6196C32.4443 69.522 32.5298 69.4048 32.6128 69.2681L32.8765 69.4731C32.6421 69.8052 32.4004 70.0371 32.1514 70.1689C31.9023 70.3008 31.6387 70.3667 31.3604 70.3667C31.2578 70.3667 31.1675 70.3569 31.0894 70.3374C30.8794 70.689 30.6548 70.9893 30.4155 71.2383C30.1763 71.4824 29.9321 71.6826 29.6831 71.8389C29.4341 71.9951 29.1875 72.1074 28.9434 72.1758C28.6992 72.249 28.4722 72.2856 28.2622 72.2856C28.0474 72.2856 27.8472 72.2466 27.6616 72.1685C27.481 72.0952 27.3247 71.9878 27.1929 71.8462C27.061 71.7046 26.9585 71.5361 26.8853 71.3408C26.812 71.1455 26.7754 70.9258 26.7754 70.6816C26.7754 70.4375 26.8145 70.1885 26.8926 69.9346C26.9707 69.6807 27.0757 69.4292 27.2075 69.1802C27.3442 68.9312 27.5029 68.6919 27.6836 68.4624C27.8643 68.228 28.0596 68.0107 28.2695 67.8105C28.4795 67.6104 28.6968 67.4297 28.9214 67.2686C29.146 67.1074 29.3706 66.9756 29.5952 66.873L29.8296 67.1807C29.5708 67.3662 29.3071 67.6006 29.0386 67.8838C28.7749 68.167 28.5332 68.4771 28.3135 68.814C28.0986 69.1509 27.9204 69.5024 27.7788 69.8687C27.6421 70.23 27.5737 70.5815 27.5737 70.9233C27.5737 71.231 27.6421 71.4702 27.7788 71.6411C27.9155 71.8071 28.123 71.8901 28.4014 71.8901C28.6162 71.8901 28.8286 71.8462 29.0386 71.7583C29.2485 71.6704 29.4536 71.5508 29.6538 71.3994C29.854 71.248 30.0469 71.0698 30.2324 70.8647C30.418 70.6548 30.5938 70.4326 30.7598 70.1982C30.6182 70.1152 30.4937 70.0054 30.3862 69.8687C30.2788 69.7271 30.1885 69.5684 30.1152 69.3926C30.042 69.2119 29.9858 69.019 29.9468 68.814C29.9126 68.6089 29.8955 68.3989 29.8955 68.1841C29.8955 67.9692 29.9224 67.7666 29.9761 67.5762C30.0298 67.3857 30.103 67.2197 30.1958 67.0781C30.2935 66.9316 30.4058 66.8169 30.5327 66.7339C30.6597 66.6509 30.7988 66.6094 30.9502 66.6094C31.0869 66.6094 31.209 66.646 31.3164 66.7192C31.4238 66.7876 31.5142 66.8853 31.5874 67.0122C31.6606 67.1343 31.7168 67.2808 31.7559 67.4517C31.7949 67.6226 31.8145 67.8057 31.8145 68.001C31.8145 68.1475 31.8022 68.3086 31.7778 68.4844C31.7534 68.6602 31.7168 68.8384 31.668 69.019C31.624 69.1948 31.5679 69.3706 31.4995 69.5464C31.436 69.7173 31.3604 69.8711 31.2725 70.0078ZM30.2764 68.1841C30.2764 68.3257 30.2886 68.4795 30.313 68.6455C30.3374 68.8115 30.3765 68.9727 30.4302 69.1289C30.4839 69.2852 30.5522 69.4316 30.6353 69.5684C30.7183 69.7002 30.8208 69.8052 30.9429 69.8833C31.0308 69.7124 31.104 69.5391 31.1626 69.3633C31.2261 69.1826 31.2773 69.0093 31.3164 68.8433C31.3604 68.6772 31.3896 68.5234 31.4043 68.3818C31.4238 68.2354 31.4336 68.1084 31.4336 68.001C31.4336 67.8545 31.4214 67.7202 31.397 67.5981C31.3726 67.4761 31.3384 67.3711 31.2944 67.2832C31.2554 67.1904 31.2041 67.1196 31.1406 67.0708C31.082 67.0171 31.0161 66.9902 30.9429 66.9902C30.8452 66.9902 30.7549 67.0244 30.6719 67.0928C30.5889 67.1562 30.5181 67.2441 30.4595 67.3564C30.4009 67.4639 30.3545 67.5908 30.3203 67.7373C30.291 67.8789 30.2764 68.0278 30.2764 68.1841ZM37.9229 61.3433C38.0938 61.3433 38.2354 61.3848 38.3477 61.4678C38.4648 61.5508 38.5234 61.7021 38.5234 61.9219C38.5234 62.0732 38.4917 62.2539 38.4282 62.4639C38.3696 62.6738 38.2866 62.9033 38.1792 63.1523C38.0767 63.3965 37.9546 63.6553 37.813 63.9287C37.6714 64.1973 37.5176 64.4658 37.3516 64.7344C37.1904 65.0029 37.0195 65.2642 36.8389 65.5181C36.6631 65.772 36.4873 66.0063 36.3115 66.2212C35.96 66.6558 35.6548 67.022 35.396 67.3198C35.1421 67.6177 34.9224 67.8716 34.7368 68.0815C34.5513 68.2866 34.395 68.4551 34.2681 68.5869C34.1411 68.7139 34.0288 68.8237 33.9312 68.9165C33.8335 69.0093 33.7432 69.0947 33.6602 69.1729C33.5771 69.2461 33.4917 69.3291 33.4038 69.4219C33.3647 69.6074 33.3452 69.7856 33.3452 69.9565C33.3501 70.1226 33.3525 70.2764 33.3525 70.418C33.3525 70.8428 33.4209 71.1577 33.5576 71.3628C33.6943 71.5679 33.8872 71.6704 34.1362 71.6704C34.3022 71.6704 34.4683 71.6289 34.6343 71.5459C34.8052 71.458 34.9736 71.3457 35.1396 71.209C35.3057 71.0723 35.4668 70.9185 35.623 70.7476C35.7793 70.5718 35.9258 70.396 36.0625 70.2202C36.2041 70.0396 36.3311 69.8662 36.4434 69.7002C36.5557 69.5342 36.6533 69.3901 36.7363 69.2681L37.0073 69.4731C36.9927 69.4927 36.9438 69.5708 36.8608 69.7075C36.7827 69.8394 36.6777 70.0005 36.5459 70.1909C36.4141 70.3813 36.2578 70.5864 36.0771 70.8062C35.8965 71.021 35.7012 71.2212 35.4912 71.4067C35.2812 71.5923 35.0591 71.7461 34.8247 71.8682C34.5952 71.9902 34.3608 72.0513 34.1216 72.0513C33.9214 72.0513 33.7285 72.0146 33.543 71.9414C33.3623 71.8633 33.2012 71.7437 33.0596 71.5825C32.9229 71.4165 32.8105 71.2065 32.7227 70.9526C32.6396 70.6987 32.5981 70.3936 32.5981 70.0371C32.5981 69.5928 32.6494 69.1289 32.752 68.6455C32.8594 68.1572 33.0034 67.6689 33.1841 67.1807C33.3647 66.6875 33.5771 66.2017 33.8213 65.7231C34.0654 65.2446 34.3242 64.7905 34.5977 64.3608C34.876 63.9263 35.1641 63.5259 35.4619 63.1597C35.7646 62.7886 36.0601 62.4688 36.3481 62.2002C36.6411 61.9316 36.9219 61.7217 37.1904 61.5703C37.459 61.4189 37.7031 61.3433 37.9229 61.3433ZM33.5356 68.77C33.9507 68.3403 34.3511 67.9058 34.7368 67.4663C35.1274 67.022 35.4912 66.585 35.8281 66.1553C36.1699 65.7207 36.4824 65.3008 36.7656 64.8955C37.0488 64.4854 37.2905 64.0996 37.4907 63.7383C37.6909 63.377 37.8472 63.0474 37.9595 62.7495C38.0718 62.4517 38.1279 62.1953 38.1279 61.9805C38.1279 61.9414 38.1084 61.8901 38.0693 61.8267C38.0303 61.7583 37.9839 61.7241 37.9302 61.7241C37.7788 61.7241 37.5786 61.8242 37.3296 62.0244C37.0806 62.2246 36.8096 62.498 36.5166 62.8447C36.2285 63.1865 35.9282 63.5869 35.6157 64.0459C35.3081 64.5049 35.0176 64.9956 34.7441 65.5181C34.4707 66.0405 34.2266 66.5801 34.0117 67.1367C33.7969 67.6934 33.6382 68.2378 33.5356 68.77ZM41.3579 69.4731C41.2847 69.5806 41.1968 69.7271 41.0942 69.9126C40.9966 70.0933 40.8818 70.291 40.75 70.5059C40.6182 70.7158 40.4717 70.9307 40.3105 71.1504C40.1543 71.3701 39.981 71.5679 39.7905 71.7437C39.605 71.9194 39.4023 72.0635 39.1826 72.1758C38.9629 72.2881 38.7285 72.3442 38.4795 72.3442C38.3428 72.3442 38.2134 72.3223 38.0913 72.2783C37.9692 72.2393 37.8618 72.1758 37.769 72.0879C37.6763 72 37.603 71.8926 37.5493 71.7656C37.4956 71.6338 37.4688 71.48 37.4688 71.3042C37.4688 71.0649 37.5151 70.8159 37.6079 70.5571C37.7056 70.2935 37.8179 70.0396 37.9448 69.7954C38.0718 69.5513 38.1987 69.3291 38.3257 69.1289C38.4526 68.9238 38.5454 68.7603 38.604 68.6382C38.6626 68.5161 38.6919 68.4111 38.6919 68.3232C38.6919 68.2598 38.6699 68.2036 38.626 68.1548C38.5869 68.106 38.5356 68.0596 38.4722 68.0156C38.4136 67.9668 38.3501 67.918 38.2817 67.8691C38.2183 67.8154 38.1646 67.752 38.1206 67.6787C37.9985 67.874 37.874 68.0718 37.7471 68.272C37.6348 68.4429 37.5127 68.6357 37.3809 68.8506C37.249 69.0605 37.1221 69.2681 37 69.4731L36.7363 69.2681L38.3037 66.8145L38.5161 66.9243C38.5063 66.9536 38.4893 67 38.4648 67.0635C38.4453 67.127 38.4355 67.1953 38.4355 67.2686C38.4355 67.3223 38.4429 67.376 38.4575 67.4297C38.4771 67.4785 38.5137 67.5249 38.5674 67.5688C38.7627 67.7446 38.9165 67.8813 39.0288 67.979C39.1411 68.0718 39.2217 68.1475 39.2705 68.2061C39.3242 68.2598 39.356 68.3062 39.3657 68.3452C39.3804 68.3794 39.3877 68.4258 39.3877 68.4844C39.3877 68.543 39.3779 68.6138 39.3584 68.6968C39.3389 68.7798 39.3047 68.8799 39.2559 68.9971C39.2119 69.1143 39.1484 69.2534 39.0654 69.4146C38.9873 69.5708 38.8872 69.7539 38.7651 69.9639C38.6919 70.0908 38.6187 70.2202 38.5454 70.3521C38.4771 70.479 38.4136 70.6084 38.355 70.7402C38.3013 70.8721 38.2573 71.0039 38.2231 71.1357C38.189 71.2676 38.1719 71.3945 38.1719 71.5166C38.1719 71.6094 38.1841 71.6851 38.2085 71.7437C38.2378 71.7974 38.2744 71.8389 38.3184 71.8682C38.3623 71.8975 38.4087 71.917 38.4575 71.9268C38.5112 71.9365 38.5625 71.9414 38.6113 71.9414C38.7725 71.9414 38.9312 71.895 39.0874 71.8022C39.2485 71.7046 39.4048 71.5801 39.5562 71.4287C39.7124 71.2773 39.8613 71.1064 40.0029 70.916C40.1494 70.7207 40.2886 70.5229 40.4204 70.3228C40.5522 70.1226 40.6743 69.9321 40.7866 69.7515C40.8989 69.5659 40.999 69.4048 41.0869 69.2681L41.3579 69.4731ZM49.2534 62.376C49.1997 62.4541 49.1118 62.5835 48.9897 62.7642C48.8677 62.9448 48.7261 63.1597 48.5649 63.4087C48.4038 63.6577 48.228 63.9336 48.0376 64.2363C47.8521 64.5391 47.6641 64.8516 47.4736 65.1738C47.2881 65.4961 47.105 65.8232 46.9243 66.1553C46.7485 66.4824 46.5923 66.7974 46.4556 67.1001C46.2407 67.5688 46.0625 67.9888 45.9209 68.3599C45.7842 68.7261 45.6743 69.0532 45.5913 69.3413C45.5132 69.6294 45.457 69.8809 45.4229 70.0957C45.3936 70.3057 45.3789 70.4863 45.3789 70.6377C45.3789 70.916 45.4204 71.1089 45.5034 71.2163C45.5913 71.3237 45.7085 71.3774 45.855 71.3774C46.0063 71.3774 46.1504 71.3384 46.2871 71.2603C46.4287 71.1821 46.563 71.082 46.6899 70.96C46.8218 70.8379 46.9438 70.6987 47.0562 70.5425C47.1733 70.3862 47.2808 70.23 47.3784 70.0737C47.481 69.9175 47.5737 69.7686 47.6567 69.627C47.7397 69.4854 47.813 69.3657 47.8765 69.2681L48.1401 69.4731C48.0864 69.561 48.0181 69.6782 47.9351 69.8247C47.8569 69.9663 47.7666 70.1226 47.6641 70.2935C47.5615 70.4644 47.4443 70.6377 47.3125 70.8135C47.1807 70.9844 47.0342 71.1406 46.873 71.2822C46.7168 71.4238 46.541 71.541 46.3457 71.6338C46.1553 71.7217 45.9478 71.7656 45.7231 71.7656C45.6157 71.7656 45.501 71.751 45.3789 71.7217C45.2617 71.6924 45.1519 71.6411 45.0493 71.5679C44.9468 71.4946 44.8564 71.3945 44.7783 71.2676C44.7002 71.1357 44.6489 70.9697 44.6245 70.7695C44.2583 71.165 43.9019 71.4653 43.5552 71.6704C43.2085 71.8706 42.8813 71.9707 42.5737 71.9707C42.4175 71.9707 42.2441 71.9438 42.0537 71.8901C41.8682 71.8364 41.6924 71.7437 41.5264 71.6118C41.3604 71.48 41.2212 71.3066 41.1089 71.0918C40.9966 70.8721 40.9404 70.6011 40.9404 70.2788C40.9404 69.9175 40.9966 69.5732 41.1089 69.2461C41.2212 68.9189 41.3726 68.6162 41.563 68.3379C41.7534 68.0547 41.9707 67.8008 42.2148 67.5762C42.4639 67.3467 42.7227 67.1538 42.9912 66.9976C43.2598 66.8364 43.5283 66.7119 43.7969 66.624C44.0703 66.5361 44.3267 66.4922 44.5659 66.4922C44.8833 66.4922 45.1323 66.5312 45.313 66.6094C45.4937 66.6875 45.6304 66.7656 45.7231 66.8438C45.7915 66.707 45.8843 66.5337 46.0015 66.3237C46.1187 66.1089 46.2554 65.8721 46.4116 65.6133C46.5679 65.3496 46.7412 65.0713 46.9316 64.7783C47.1221 64.4805 47.3247 64.1826 47.5396 63.8848C47.7544 63.582 47.979 63.2842 48.2134 62.9912C48.4526 62.6982 48.6943 62.4248 48.9385 62.1709L49.2534 62.376ZM44.6172 70.2202C44.6416 69.8589 44.7246 69.4341 44.8662 68.9458C45.0127 68.4526 45.2349 67.8862 45.5327 67.2466C45.4644 67.144 45.3667 67.0659 45.2397 67.0122C45.1177 66.9536 44.9785 66.9243 44.8223 66.9243C44.583 66.9243 44.3389 66.9731 44.0898 67.0708C43.8457 67.1685 43.6089 67.3003 43.3794 67.4663C43.1548 67.6323 42.9424 67.8301 42.7422 68.0596C42.542 68.2842 42.3662 68.5259 42.2148 68.7847C42.0684 69.0435 41.9512 69.3145 41.8633 69.5977C41.7803 69.876 41.7388 70.1519 41.7388 70.4253C41.7388 70.7915 41.8145 71.0771 41.9658 71.2822C42.1221 71.4873 42.3296 71.5898 42.5884 71.5898C42.7104 71.5898 42.8447 71.5654 42.9912 71.5166C43.1377 71.4678 43.2964 71.3896 43.4673 71.2822C43.6431 71.1699 43.8262 71.0283 44.0166 70.8574C44.207 70.6816 44.4072 70.4692 44.6172 70.2202ZM56.4092 70.0078C56.4287 70.0127 56.4482 70.0151 56.4678 70.0151C56.4873 70.0151 56.5093 70.0151 56.5337 70.0151C56.6704 70.0151 56.7949 70.0029 56.9072 69.9785C57.0195 69.9492 57.1221 69.9053 57.2148 69.8467C57.3125 69.7881 57.4053 69.7124 57.4932 69.6196C57.5811 69.522 57.6665 69.4048 57.7495 69.2681L58.0132 69.4731C57.7788 69.8052 57.5371 70.0371 57.2881 70.1689C57.0391 70.3008 56.7754 70.3667 56.4971 70.3667C56.3945 70.3667 56.3042 70.3569 56.2261 70.3374C56.0161 70.689 55.7915 70.9893 55.5522 71.2383C55.313 71.4824 55.0688 71.6826 54.8198 71.8389C54.5708 71.9951 54.3242 72.1074 54.0801 72.1758C53.8359 72.249 53.6089 72.2856 53.3989 72.2856C53.1841 72.2856 52.9839 72.2466 52.7983 72.1685C52.6177 72.0952 52.4614 71.9878 52.3296 71.8462C52.1978 71.7046 52.0952 71.5361 52.022 71.3408C51.9487 71.1455 51.9121 70.9258 51.9121 70.6816C51.9121 70.4375 51.9512 70.1885 52.0293 69.9346C52.1074 69.6807 52.2124 69.4292 52.3442 69.1802C52.481 68.9312 52.6396 68.6919 52.8203 68.4624C53.001 68.228 53.1963 68.0107 53.4062 67.8105C53.6162 67.6104 53.8335 67.4297 54.0581 67.2686C54.2827 67.1074 54.5073 66.9756 54.7319 66.873L54.9663 67.1807C54.7075 67.3662 54.4438 67.6006 54.1753 67.8838C53.9116 68.167 53.6699 68.4771 53.4502 68.814C53.2354 69.1509 53.0571 69.5024 52.9155 69.8687C52.7788 70.23 52.7104 70.5815 52.7104 70.9233C52.7104 71.231 52.7788 71.4702 52.9155 71.6411C53.0522 71.8071 53.2598 71.8901 53.5381 71.8901C53.7529 71.8901 53.9653 71.8462 54.1753 71.7583C54.3853 71.6704 54.5903 71.5508 54.7905 71.3994C54.9907 71.248 55.1836 71.0698 55.3691 70.8647C55.5547 70.6548 55.7305 70.4326 55.8965 70.1982C55.7549 70.1152 55.6304 70.0054 55.5229 69.8687C55.4155 69.7271 55.3252 69.5684 55.252 69.3926C55.1787 69.2119 55.1226 69.019 55.0835 68.814C55.0493 68.6089 55.0322 68.3989 55.0322 68.1841C55.0322 67.9692 55.0591 67.7666 55.1128 67.5762C55.1665 67.3857 55.2397 67.2197 55.3325 67.0781C55.4302 66.9316 55.5425 66.8169 55.6694 66.7339C55.7964 66.6509 55.9355 66.6094 56.0869 66.6094C56.2236 66.6094 56.3457 66.646 56.4531 66.7192C56.5605 66.7876 56.6509 66.8853 56.7241 67.0122C56.7974 67.1343 56.8535 67.2808 56.8926 67.4517C56.9316 67.6226 56.9512 67.8057 56.9512 68.001C56.9512 68.1475 56.939 68.3086 56.9146 68.4844C56.8901 68.6602 56.8535 68.8384 56.8047 69.019C56.7607 69.1948 56.7046 69.3706 56.6362 69.5464C56.5728 69.7173 56.4971 69.8711 56.4092 70.0078ZM55.4131 68.1841C55.4131 68.3257 55.4253 68.4795 55.4497 68.6455C55.4741 68.8115 55.5132 68.9727 55.5669 69.1289C55.6206 69.2852 55.689 69.4316 55.772 69.5684C55.855 69.7002 55.9575 69.8052 56.0796 69.8833C56.1675 69.7124 56.2407 69.5391 56.2993 69.3633C56.3628 69.1826 56.4141 69.0093 56.4531 68.8433C56.4971 68.6772 56.5264 68.5234 56.541 68.3818C56.5605 68.2354 56.5703 68.1084 56.5703 68.001C56.5703 67.8545 56.5581 67.7202 56.5337 67.5981C56.5093 67.4761 56.4751 67.3711 56.4312 67.2832C56.3921 67.1904 56.3408 67.1196 56.2773 67.0708C56.2188 67.0171 56.1528 66.9902 56.0796 66.9902C55.9819 66.9902 55.8916 67.0244 55.8086 67.0928C55.7256 67.1562 55.6548 67.2441 55.5962 67.3564C55.5376 67.4639 55.4912 67.5908 55.457 67.7373C55.4277 67.8789 55.4131 68.0278 55.4131 68.1841ZM57.8374 71.48C57.9937 71.6021 58.2012 71.6631 58.46 71.6631C58.7383 71.6631 58.9995 71.6191 59.2437 71.5312C59.4927 71.4434 59.7246 71.3286 59.9395 71.187C60.1543 71.0405 60.3521 70.8794 60.5327 70.7036C60.7134 70.5278 60.8745 70.3521 61.0161 70.1763C61.1626 69.9956 61.2896 69.8271 61.397 69.6709C61.5093 69.5098 61.5996 69.3755 61.668 69.2681H62.0781C62.0098 69.3853 61.9146 69.5366 61.7925 69.7222C61.6753 69.9028 61.5337 70.0957 61.3677 70.3008C61.2065 70.5059 61.0234 70.7134 60.8184 70.9233C60.6133 71.1284 60.3862 71.314 60.1372 71.48C59.8931 71.646 59.6318 71.7827 59.3535 71.8901C59.0752 71.9927 58.7798 72.0439 58.4673 72.0439C58.3306 72.0439 58.1963 72.0293 58.0645 72C57.9375 71.9658 57.813 71.9146 57.6909 71.8462C57.5298 72.2417 57.3735 72.6299 57.2222 73.0107C57.0659 73.3916 56.9194 73.7529 56.7827 74.0947C56.6411 74.4365 56.5117 74.7515 56.3945 75.0396C56.2773 75.3276 56.1748 75.5767 56.0869 75.7866C55.999 76.0015 55.9307 76.1699 55.8818 76.292C55.833 76.4189 55.8062 76.4849 55.8013 76.4897L55.0322 76.1089C55.2812 75.5229 55.5059 74.9858 55.7061 74.4976C55.9014 74.0093 56.0845 73.5527 56.2554 73.1279C56.4214 72.7031 56.5801 72.3052 56.7314 71.9341C56.8779 71.5581 57.0269 71.1943 57.1782 70.8428C57.1001 70.7305 57.0439 70.6206 57.0098 70.5132C56.9707 70.4058 56.9463 70.3179 56.9365 70.2495C56.9268 70.1372 56.9585 70.0444 57.0317 69.9712C57.1001 69.8931 57.1904 69.854 57.3027 69.854C57.3955 69.854 57.481 69.8857 57.5591 69.9492C57.7056 69.5977 57.835 69.29 57.9473 69.0264C58.0645 68.7578 58.1621 68.5332 58.2402 68.3525C58.3281 68.1426 58.4062 67.9595 58.4746 67.8032C58.8994 66.8022 59.2925 65.938 59.6538 65.2104C60.02 64.478 60.3569 63.8579 60.6646 63.3501C60.9722 62.8374 61.2529 62.4248 61.5068 62.1123C61.7607 61.7949 61.9902 61.5483 62.1953 61.3726C62.4053 61.1968 62.5933 61.0796 62.7593 61.021C62.9253 60.9575 63.0742 60.9258 63.2061 60.9258C63.4209 60.9258 63.6016 60.9746 63.748 61.0723C63.8994 61.165 63.9849 61.3262 64.0044 61.5557C64.0239 61.7803 63.9824 62.0635 63.8799 62.4053C63.7822 62.7471 63.6455 63.1108 63.4697 63.4966C63.2988 63.8774 63.0986 64.2632 62.8691 64.6538C62.6396 65.0444 62.4053 65.4033 62.166 65.7305C61.7119 66.3457 61.2993 66.856 60.9282 67.2612C60.562 67.6665 60.2397 67.9937 59.9614 68.2427C59.6831 68.4917 59.4512 68.6772 59.2656 68.7993C59.0801 68.9165 58.9434 68.9971 58.8555 69.041L57.8374 71.48ZM63.5503 61.6655C63.5454 61.5825 63.5259 61.5117 63.4917 61.4531C63.4624 61.3896 63.3989 61.3579 63.3013 61.3579C63.2427 61.3579 63.167 61.3726 63.0742 61.4019C62.9814 61.4263 62.8716 61.4824 62.7446 61.5703C62.6226 61.6582 62.4834 61.7876 62.3271 61.9585C62.1709 62.1294 61.9951 62.3589 61.7998 62.647C61.6094 62.9351 61.3994 63.2915 61.1699 63.7163C60.9453 64.1411 60.7036 64.6538 60.4448 65.2544C60.2739 65.6353 60.0762 66.0991 59.8516 66.646C59.627 67.188 59.3804 67.7764 59.1118 68.4111C59.3413 68.25 59.5806 68.0498 59.8296 67.8105C60.0835 67.5664 60.3374 67.3003 60.5913 67.0122C60.8501 66.7192 61.104 66.4092 61.353 66.082C61.6021 65.7549 61.8389 65.4229 62.0635 65.0859C62.2881 64.749 62.4932 64.4146 62.6787 64.0825C62.8691 63.7505 63.0303 63.4355 63.1621 63.1377C63.2988 62.835 63.4014 62.5591 63.4697 62.3101C63.5381 62.0562 63.5649 61.8413 63.5503 61.6655ZM78.2573 63.3281C78.2524 63.3281 78.1621 63.416 77.9863 63.5918C77.8105 63.7627 77.5762 64.0264 77.2832 64.3828C76.9902 64.7344 76.6509 65.1812 76.2651 65.7231C75.8843 66.2603 75.4839 66.895 75.064 67.6274L74.7783 68.1255C74.9395 68.0864 75.103 68.0498 75.269 68.0156C75.4351 67.9814 75.6035 67.9497 75.7744 67.9204L76.104 67.8545C76.2603 67.5713 76.4019 67.3394 76.5288 67.1587C76.6606 66.978 76.7803 66.8364 76.8877 66.7339C77 66.6265 77.1025 66.5532 77.1953 66.5142C77.2881 66.4751 77.3711 66.4556 77.4443 66.4556C77.5371 66.4556 77.6274 66.4873 77.7153 66.5508C77.8032 66.6143 77.8472 66.729 77.8472 66.895C77.8472 67.0269 77.8154 67.1538 77.752 67.2759C77.6885 67.3979 77.5981 67.5127 77.481 67.6201C77.3638 67.7275 77.2246 67.8228 77.0635 67.9058C76.9023 67.9888 76.7241 68.0547 76.5288 68.1035C76.436 68.2939 76.3408 68.4941 76.2432 68.7041C76.1455 68.9092 76.043 69.1167 75.9355 69.3267C75.8281 69.5366 75.7183 69.7441 75.606 69.9492C75.4937 70.1494 75.3765 70.3398 75.2544 70.5205L74.7344 70.0298C74.7783 69.9761 74.8442 69.8906 74.9321 69.7734C75.0249 69.6562 75.1226 69.5244 75.2251 69.3779C75.3325 69.2314 75.4375 69.0776 75.54 68.9165C75.6426 68.7505 75.7305 68.5942 75.8037 68.4478L75.9062 68.228C75.6816 68.2769 75.4546 68.3281 75.2251 68.3818C75.0005 68.4307 74.7686 68.4868 74.5293 68.5503C74.1533 69.1948 73.7847 69.7808 73.4233 70.3081C73.0669 70.8306 72.686 71.2798 72.2808 71.6558C71.8755 72.0269 71.4312 72.3125 70.9478 72.5127C70.4644 72.7178 69.9077 72.8203 69.2778 72.8203C68.8677 72.8203 68.4526 72.7617 68.0327 72.6445C67.6177 72.5322 67.2417 72.3662 66.9048 72.1465C66.5728 71.9268 66.2993 71.6582 66.0845 71.3408C65.8745 71.0234 65.7695 70.6621 65.7695 70.2568C65.7695 69.9395 65.833 69.6587 65.96 69.4146C66.082 69.1655 66.2505 68.958 66.4653 68.792C66.6802 68.6211 66.9292 68.4941 67.2124 68.4111C67.5005 68.3232 67.8032 68.2793 68.1206 68.2793C68.3843 68.2793 68.6479 68.311 68.9116 68.3745C69.1802 68.438 69.439 68.5283 69.688 68.6455C69.937 68.7627 70.1714 68.9067 70.3911 69.0776C70.6157 69.2437 70.8159 69.4316 70.9917 69.6416L70.7134 69.854C70.5669 69.7075 70.4033 69.5781 70.2227 69.4658C70.042 69.3486 69.8491 69.251 69.644 69.1729C69.439 69.0898 69.229 69.0288 69.0142 68.9897C68.7993 68.9458 68.5869 68.9238 68.377 68.9238C68.1475 68.9238 67.9229 68.9531 67.7031 69.0117C67.4834 69.0703 67.2881 69.1655 67.1172 69.2974C66.9463 69.4243 66.8071 69.5903 66.6997 69.7954C66.5923 69.9956 66.5386 70.2422 66.5386 70.5352C66.5386 70.7988 66.6045 71.0454 66.7363 71.2749C66.8682 71.5044 67.0464 71.7046 67.271 71.8755C67.5005 72.0415 67.7666 72.1733 68.0693 72.271C68.377 72.3687 68.7041 72.4175 69.0508 72.4175C69.5439 72.4175 69.9883 72.3247 70.3838 72.1392C70.7793 71.9585 71.1431 71.7095 71.4751 71.3921C71.812 71.0747 72.127 70.7036 72.4199 70.2788C72.7178 69.8491 73.0132 69.3926 73.3062 68.9092C73.1694 68.9531 73.0303 68.9995 72.8887 69.0483C72.7471 69.0972 72.6055 69.1484 72.4639 69.2021L72.3247 68.8433C72.5493 68.77 72.7642 68.7017 72.9692 68.6382C73.1743 68.5747 73.3794 68.5112 73.5845 68.4478C73.8628 67.9839 74.1509 67.5103 74.4487 67.0269C74.7515 66.5386 75.0811 66.0625 75.4375 65.5986C75.7939 65.1299 76.1846 64.6831 76.6094 64.2583C77.0391 63.8335 77.5176 63.4478 78.0449 63.1011L78.2573 63.3281ZM73.3135 67.3125C72.8643 67.5176 72.4175 67.6665 71.9731 67.7593C71.5288 67.8521 71.1113 67.8984 70.7207 67.8984C70.2666 67.8984 69.8516 67.8374 69.4756 67.7153C69.0996 67.5933 68.7749 67.4224 68.5015 67.2026C68.228 66.9829 68.0156 66.7192 67.8643 66.4116C67.7129 66.104 67.6372 65.7646 67.6372 65.3936C67.6372 64.9297 67.7153 64.5171 67.8716 64.1558C68.0327 63.7944 68.25 63.4771 68.5234 63.2036C68.7969 62.9253 69.1191 62.6909 69.4902 62.5005C69.8613 62.3101 70.2593 62.1538 70.6841 62.0317C71.1089 61.9097 71.5508 61.8218 72.0098 61.7681C72.4688 61.7144 72.9229 61.6875 73.3721 61.6875C73.8896 61.6875 74.3926 61.7192 74.8809 61.7827C75.3691 61.8462 75.8428 61.917 76.3018 61.9951C76.7656 62.0684 77.2148 62.1367 77.6494 62.2002C78.084 62.2637 78.5088 62.2954 78.9238 62.2954C79.3975 62.2954 79.8345 62.2588 80.2349 62.1855C80.6353 62.1123 80.9795 62.0317 81.2676 61.9438C81.5557 61.8511 81.7803 61.7681 81.9414 61.6948C82.1074 61.6167 82.1929 61.5776 82.1978 61.5776L82.3809 61.9146C82.3662 61.9243 82.271 61.9707 82.0952 62.0537C81.9194 62.1318 81.6802 62.2197 81.3774 62.3174C81.0796 62.4102 80.7231 62.4956 80.3081 62.5737C79.8931 62.647 79.4365 62.6836 78.9385 62.6836C78.4746 62.6836 78.0278 62.6543 77.5981 62.5957C77.1685 62.5322 76.7339 62.4639 76.2944 62.3906C75.8599 62.3174 75.4082 62.2515 74.9395 62.1929C74.4707 62.1294 73.9653 62.0977 73.4233 62.0977C72.6226 62.0977 71.9146 62.1758 71.2993 62.332C70.689 62.4834 70.1763 62.7031 69.7612 62.9912C69.3511 63.2744 69.041 63.6211 68.8311 64.0312C68.6211 64.4365 68.5161 64.8906 68.5161 65.3936C68.5161 65.7402 68.582 66.043 68.7139 66.3018C68.8506 66.5605 69.0312 66.7754 69.2559 66.9463C69.4854 67.1172 69.7466 67.2466 70.0396 67.3345C70.3374 67.4175 70.6475 67.459 70.9697 67.459C71.2529 67.459 71.5264 67.4346 71.79 67.3857C72.0537 67.3369 72.2856 67.2832 72.4858 67.2246C72.686 67.1611 72.8472 67.105 72.9692 67.0562C73.0913 67.0024 73.1548 66.9756 73.1597 66.9756L73.3135 67.3125ZM77.3711 66.8364C77.2881 66.8364 77.1929 66.9146 77.0854 67.0708C76.9829 67.2222 76.8682 67.4224 76.7412 67.6714C76.8926 67.6128 77.0146 67.5518 77.1074 67.4883C77.2002 67.4248 77.2734 67.3613 77.3271 67.2979C77.3809 67.2344 77.4175 67.1709 77.437 67.1074C77.4565 67.0439 77.4663 66.9829 77.4663 66.9243C77.4663 66.8901 77.4565 66.8682 77.437 66.8584C77.4175 66.8438 77.3955 66.8364 77.3711 66.8364ZM83.2451 61.3433C83.416 61.3433 83.5576 61.3848 83.6699 61.4678C83.7871 61.5508 83.8457 61.7021 83.8457 61.9219C83.8457 62.0732 83.814 62.2539 83.7505 62.4639C83.6919 62.6738 83.6089 62.9033 83.5015 63.1523C83.3989 63.3965 83.2769 63.6553 83.1353 63.9287C82.9937 64.1973 82.8398 64.4658 82.6738 64.7344C82.5127 65.0029 82.3418 65.2642 82.1611 65.5181C81.9854 65.772 81.8096 66.0063 81.6338 66.2212C81.2822 66.6558 80.9771 67.022 80.7183 67.3198C80.4644 67.6177 80.2446 67.8716 80.0591 68.0815C79.8735 68.2866 79.7173 68.4551 79.5903 68.5869C79.4634 68.7139 79.3511 68.8237 79.2534 68.9165C79.1558 69.0093 79.0654 69.0947 78.9824 69.1729C78.8994 69.2461 78.814 69.3291 78.7261 69.4219C78.687 69.6074 78.6675 69.7856 78.6675 69.9565C78.6724 70.1226 78.6748 70.2764 78.6748 70.418C78.6748 70.8428 78.7432 71.1577 78.8799 71.3628C79.0166 71.5679 79.2095 71.6704 79.4585 71.6704C79.6245 71.6704 79.7905 71.6289 79.9565 71.5459C80.1274 71.458 80.2959 71.3457 80.4619 71.209C80.6279 71.0723 80.7891 70.9185 80.9453 70.7476C81.1016 70.5718 81.248 70.396 81.3848 70.2202C81.5264 70.0396 81.6533 69.8662 81.7656 69.7002C81.8779 69.5342 81.9756 69.3901 82.0586 69.2681L82.3296 69.4731C82.3149 69.4927 82.2661 69.5708 82.1831 69.7075C82.105 69.8394 82 70.0005 81.8682 70.1909C81.7363 70.3813 81.5801 70.5864 81.3994 70.8062C81.2188 71.021 81.0234 71.2212 80.8135 71.4067C80.6035 71.5923 80.3813 71.7461 80.147 71.8682C79.9175 71.9902 79.6831 72.0513 79.4438 72.0513C79.2437 72.0513 79.0508 72.0146 78.8652 71.9414C78.6846 71.8633 78.5234 71.7437 78.3818 71.5825C78.2451 71.4165 78.1328 71.2065 78.0449 70.9526C77.9619 70.6987 77.9204 70.3936 77.9204 70.0371C77.9204 69.5928 77.9717 69.1289 78.0742 68.6455C78.1816 68.1572 78.3257 67.6689 78.5063 67.1807C78.687 66.6875 78.8994 66.2017 79.1436 65.7231C79.3877 65.2446 79.6465 64.7905 79.9199 64.3608C80.1982 63.9263 80.4863 63.5259 80.7842 63.1597C81.0869 62.7886 81.3823 62.4688 81.6704 62.2002C81.9634 61.9316 82.2441 61.7217 82.5127 61.5703C82.7812 61.4189 83.0254 61.3433 83.2451 61.3433ZM78.8579 68.77C79.2729 68.3403 79.6733 67.9058 80.0591 67.4663C80.4497 67.022 80.8135 66.585 81.1504 66.1553C81.4922 65.7207 81.8047 65.3008 82.0879 64.8955C82.3711 64.4854 82.6128 64.0996 82.813 63.7383C83.0132 63.377 83.1694 63.0474 83.2817 62.7495C83.394 62.4517 83.4502 62.1953 83.4502 61.9805C83.4502 61.9414 83.4307 61.8901 83.3916 61.8267C83.3525 61.7583 83.3062 61.7241 83.2524 61.7241C83.1011 61.7241 82.9009 61.8242 82.6519 62.0244C82.4028 62.2246 82.1318 62.498 81.8389 62.8447C81.5508 63.1865 81.2505 63.5869 80.938 64.0459C80.6304 64.5049 80.3398 64.9956 80.0664 65.5181C79.793 66.0405 79.5488 66.5801 79.334 67.1367C79.1191 67.6934 78.9604 68.2378 78.8579 68.77ZM86.1895 70.0078C86.209 70.0127 86.2285 70.0151 86.248 70.0151C86.2676 70.0151 86.2896 70.0151 86.314 70.0151C86.4507 70.0151 86.5752 70.0029 86.6875 69.9785C86.7998 69.9492 86.9023 69.9053 86.9951 69.8467C87.0928 69.7881 87.1855 69.7124 87.2734 69.6196C87.3613 69.522 87.4468 69.4048 87.5298 69.2681L87.7935 69.4731C87.5591 69.8052 87.3174 70.0371 87.0684 70.1689C86.8193 70.3008 86.5557 70.3667 86.2773 70.3667C86.1748 70.3667 86.0845 70.3569 86.0063 70.3374C85.7964 70.689 85.5718 70.9893 85.3325 71.2383C85.0933 71.4824 84.8491 71.6826 84.6001 71.8389C84.3511 71.9951 84.1045 72.1074 83.8604 72.1758C83.6162 72.249 83.3892 72.2856 83.1792 72.2856C82.9644 72.2856 82.7642 72.2466 82.5786 72.1685C82.3979 72.0952 82.2417 71.9878 82.1099 71.8462C81.978 71.7046 81.8755 71.5361 81.8022 71.3408C81.729 71.1455 81.6924 70.9258 81.6924 70.6816C81.6924 70.4375 81.7314 70.1885 81.8096 69.9346C81.8877 69.6807 81.9927 69.4292 82.1245 69.1802C82.2612 68.9312 82.4199 68.6919 82.6006 68.4624C82.7812 68.228 82.9766 68.0107 83.1865 67.8105C83.3965 67.6104 83.6138 67.4297 83.8384 67.2686C84.063 67.1074 84.2876 66.9756 84.5122 66.873L84.7466 67.1807C84.4878 67.3662 84.2241 67.6006 83.9556 67.8838C83.6919 68.167 83.4502 68.4771 83.2305 68.814C83.0156 69.1509 82.8374 69.5024 82.6958 69.8687C82.5591 70.23 82.4907 70.5815 82.4907 70.9233C82.4907 71.231 82.5591 71.4702 82.6958 71.6411C82.8325 71.8071 83.04 71.8901 83.3184 71.8901C83.5332 71.8901 83.7456 71.8462 83.9556 71.7583C84.1655 71.6704 84.3706 71.5508 84.5708 71.3994C84.771 71.248 84.9639 71.0698 85.1494 70.8647C85.335 70.6548 85.5107 70.4326 85.6768 70.1982C85.5352 70.1152 85.4106 70.0054 85.3032 69.8687C85.1958 69.7271 85.1055 69.5684 85.0322 69.3926C84.959 69.2119 84.9028 69.019 84.8638 68.814C84.8296 68.6089 84.8125 68.3989 84.8125 68.1841C84.8125 67.9692 84.8394 67.7666 84.8931 67.5762C84.9468 67.3857 85.02 67.2197 85.1128 67.0781C85.2104 66.9316 85.3228 66.8169 85.4497 66.7339C85.5767 66.6509 85.7158 66.6094 85.8672 66.6094C86.0039 66.6094 86.126 66.646 86.2334 66.7192C86.3408 66.7876 86.4312 66.8853 86.5044 67.0122C86.5776 67.1343 86.6338 67.2808 86.6729 67.4517C86.7119 67.6226 86.7314 67.8057 86.7314 68.001C86.7314 68.1475 86.7192 68.3086 86.6948 68.4844C86.6704 68.6602 86.6338 68.8384 86.585 69.019C86.541 69.1948 86.4849 69.3706 86.4165 69.5464C86.353 69.7173 86.2773 69.8711 86.1895 70.0078ZM85.1934 68.1841C85.1934 68.3257 85.2056 68.4795 85.23 68.6455C85.2544 68.8115 85.2935 68.9727 85.3472 69.1289C85.4009 69.2852 85.4692 69.4316 85.5522 69.5684C85.6353 69.7002 85.7378 69.8052 85.8599 69.8833C85.9478 69.7124 86.021 69.5391 86.0796 69.3633C86.1431 69.1826 86.1943 69.0093 86.2334 68.8433C86.2773 68.6772 86.3066 68.5234 86.3213 68.3818C86.3408 68.2354 86.3506 68.1084 86.3506 68.001C86.3506 67.8545 86.3384 67.7202 86.314 67.5981C86.2896 67.4761 86.2554 67.3711 86.2114 67.2832C86.1724 67.1904 86.1211 67.1196 86.0576 67.0708C85.999 67.0171 85.9331 66.9902 85.8599 66.9902C85.7622 66.9902 85.6719 67.0244 85.5889 67.0928C85.5059 67.1562 85.4351 67.2441 85.3765 67.3564C85.3179 67.4639 85.2715 67.5908 85.2373 67.7373C85.208 67.8789 85.1934 68.0278 85.1934 68.1841ZM89.5659 67.1294C89.2876 67.5542 89.0508 67.9595 88.8555 68.3452C88.6602 68.7261 88.499 69.0801 88.3721 69.4072C88.2451 69.7344 88.1523 70.0322 88.0938 70.3008C88.0352 70.5693 88.0059 70.8013 88.0059 70.9966C88.0059 71.4458 88.1353 71.6704 88.394 71.6704C88.5503 71.6704 88.7285 71.5923 88.9287 71.436C89.1338 71.2798 89.3413 71.0723 89.5513 70.8135C89.7612 70.5547 89.9663 70.2568 90.1665 69.9199C90.3667 69.583 90.5425 69.2339 90.6938 68.8726L90.7012 68.8799C90.8428 68.5283 90.9966 68.1841 91.1626 67.8472C91.3335 67.5103 91.5068 67.2026 91.6826 66.9243L92.0122 67.1294C91.9292 67.3589 91.8291 67.6372 91.7119 67.9644C91.5947 68.2915 91.4824 68.6357 91.375 68.9971C91.2725 69.3535 91.1821 69.71 91.104 70.0664C91.0308 70.4229 90.9941 70.7451 90.9941 71.0332C90.9941 71.1162 90.9966 71.1968 91.0015 71.2749C91.0112 71.3481 91.0259 71.4141 91.0454 71.4727C91.0649 71.5312 91.0942 71.5776 91.1333 71.6118C91.1724 71.646 91.2212 71.6631 91.2798 71.6631C91.4458 71.6631 91.6338 71.5898 91.8438 71.4434C92.0586 71.2969 92.271 71.1089 92.481 70.8794C92.6958 70.645 92.8984 70.3887 93.0889 70.1104C93.2842 69.8271 93.4478 69.5537 93.5796 69.29C93.3843 68.9287 93.2866 68.5186 93.2866 68.0596C93.2866 67.8057 93.3086 67.5908 93.3525 67.415C93.4014 67.2393 93.46 67.0977 93.5283 66.9902C93.5967 66.8779 93.6724 66.7998 93.7554 66.7559C93.8384 66.707 93.9141 66.6826 93.9824 66.6826C94.1094 66.6826 94.2192 66.7461 94.312 66.873C94.4097 67 94.4585 67.2271 94.4585 67.5542C94.4585 67.7886 94.417 68.0571 94.334 68.3599C94.251 68.6577 94.1362 68.9678 93.9897 69.29C94.0776 69.417 94.1851 69.5195 94.312 69.5977C94.439 69.6758 94.5879 69.7173 94.7588 69.7222L94.6929 70.0737C94.5171 70.064 94.356 70.0225 94.2095 69.9492C94.063 69.8711 93.9336 69.7686 93.8213 69.6416C93.6602 69.9492 93.4722 70.2495 93.2573 70.5425C93.0474 70.8306 92.8203 71.0869 92.5762 71.3115C92.3369 71.5361 92.0854 71.7168 91.8218 71.8535C91.5581 71.9902 91.292 72.0586 91.0234 72.0586C90.9111 72.0586 90.8037 72.0366 90.7012 71.9927C90.6035 71.9487 90.5156 71.8828 90.4375 71.7949C90.3594 71.707 90.2983 71.5947 90.2544 71.458C90.2104 71.3213 90.1885 71.1602 90.1885 70.9746C90.1885 70.9062 90.1909 70.833 90.1958 70.7549C90.2007 70.6768 90.2104 70.5962 90.2251 70.5132C90.0835 70.7329 89.937 70.938 89.7856 71.1284C89.6392 71.3188 89.4878 71.4824 89.3315 71.6191C89.1753 71.7559 89.0117 71.8633 88.8408 71.9414C88.6748 72.0195 88.5039 72.0586 88.3281 72.0586C88.1377 72.0586 87.9741 72.0269 87.8374 71.9634C87.7007 71.895 87.5884 71.8022 87.5005 71.6851C87.4126 71.563 87.3491 71.4214 87.3101 71.2603C87.2661 71.0991 87.2441 70.9233 87.2441 70.7329C87.2441 70.396 87.3003 70.0518 87.4126 69.7002C87.52 69.3486 87.6665 69.0044 87.8521 68.6675C88.0376 68.3306 88.25 68.0132 88.4893 67.7153C88.7334 67.4175 88.9873 67.1538 89.251 66.9243L89.5659 67.1294ZM93.7847 68.8433C93.8774 68.6235 93.9482 68.4014 93.9971 68.1768C94.0459 67.9521 94.0703 67.7324 94.0703 67.5176C94.0703 67.3564 94.0581 67.2417 94.0337 67.1733C94.0093 67.105 93.9897 67.0659 93.9751 67.0562C93.9702 67.0562 93.9507 67.0708 93.9165 67.1001C93.8872 67.1245 93.853 67.1733 93.814 67.2466C93.7749 67.3198 93.7383 67.4224 93.7041 67.5542C93.6748 67.6812 93.6602 67.8472 93.6602 68.0522C93.6602 68.1938 93.6699 68.333 93.6895 68.4697C93.7139 68.6064 93.7456 68.731 93.7847 68.8433ZM95.5059 70.3301C95.4961 70.3887 95.4888 70.4473 95.4839 70.5059C95.479 70.5645 95.4766 70.623 95.4766 70.6816C95.4766 70.8574 95.501 71.0259 95.5498 71.187C95.6035 71.3433 95.6792 71.4824 95.7769 71.6045C95.8794 71.7217 96.0039 71.8145 96.1504 71.8828C96.3018 71.9512 96.4727 71.9854 96.6631 71.9854C97.3027 71.9854 97.9204 71.7681 98.5161 71.3335C99.1118 70.8989 99.7051 70.2104 100.296 69.2681L100.545 69.4878C100.223 70.0249 99.8955 70.479 99.5635 70.8501C99.2314 71.2163 98.8994 71.5142 98.5674 71.7437C98.2402 71.9731 97.918 72.1392 97.6006 72.2417C97.2832 72.3442 96.9805 72.3955 96.6924 72.3955C96.4824 72.3955 96.2603 72.3662 96.0259 72.3076C95.7915 72.249 95.5742 72.1514 95.374 72.0146C95.1787 71.8779 95.0176 71.6948 94.8906 71.4653C94.7588 71.2358 94.6929 70.9502 94.6929 70.6084C94.6929 70.2422 94.7563 69.8906 94.8833 69.5537C95.0054 69.2119 95.1665 68.8945 95.3667 68.6016C95.5669 68.3086 95.7964 68.0425 96.0552 67.8032C96.314 67.5591 96.5752 67.3516 96.8389 67.1807C97.1074 67.0098 97.3687 66.8779 97.6226 66.7852C97.8765 66.6875 98.1011 66.6387 98.2964 66.6387C98.4233 66.6387 98.5527 66.6582 98.6846 66.6973C98.8164 66.7363 98.9336 66.7974 99.0361 66.8804C99.1436 66.9634 99.229 67.0732 99.2925 67.21C99.3608 67.3467 99.395 67.5103 99.395 67.7007C99.395 67.9595 99.334 68.2036 99.2119 68.4331C99.0947 68.6577 98.936 68.8677 98.7358 69.063C98.5356 69.2534 98.3037 69.4268 98.04 69.583C97.7764 69.7344 97.5005 69.8638 97.2124 69.9712C96.9243 70.0786 96.6338 70.1641 96.3408 70.2275C96.0479 70.291 95.7695 70.3252 95.5059 70.3301ZM95.5645 70.0151C95.8916 69.981 96.1992 69.9126 96.4873 69.8101C96.7754 69.7075 97.0391 69.583 97.2783 69.4365C97.5176 69.2852 97.73 69.1216 97.9155 68.9458C98.106 68.77 98.2646 68.5918 98.3916 68.4111C98.5186 68.2305 98.6162 68.0571 98.6846 67.8911C98.7529 67.7251 98.7871 67.5762 98.7871 67.4443C98.7871 67.3125 98.7505 67.2075 98.6772 67.1294C98.6089 67.0513 98.5259 67.0122 98.4282 67.0122C98.2134 67.0122 97.9717 67.0903 97.7031 67.2466C97.4346 67.3979 97.166 67.6104 96.8975 67.8838C96.6289 68.1523 96.375 68.4697 96.1357 68.8359C95.9014 69.2021 95.7109 69.5952 95.5645 70.0151ZM104.917 69.4731C104.844 69.5806 104.756 69.7271 104.654 69.9126C104.556 70.0933 104.441 70.291 104.31 70.5059C104.178 70.7158 104.031 70.9307 103.87 71.1504C103.714 71.3701 103.541 71.5679 103.35 71.7437C103.165 71.9194 102.962 72.0635 102.742 72.1758C102.522 72.2881 102.288 72.3442 102.039 72.3442C101.902 72.3442 101.773 72.3223 101.651 72.2783C101.529 72.2393 101.421 72.1758 101.329 72.0879C101.236 72 101.163 71.8926 101.109 71.7656C101.055 71.6338 101.028 71.48 101.028 71.3042C101.028 71.0649 101.075 70.8159 101.167 70.5571C101.265 70.2935 101.377 70.0396 101.504 69.7954C101.631 69.5513 101.758 69.3291 101.885 69.1289C102.012 68.9238 102.105 68.7603 102.164 68.6382C102.222 68.5161 102.251 68.4111 102.251 68.3232C102.251 68.2598 102.229 68.2036 102.186 68.1548C102.146 68.106 102.095 68.0596 102.032 68.0156C101.973 67.9668 101.91 67.918 101.841 67.8691C101.778 67.8154 101.724 67.752 101.68 67.6787C101.558 67.874 101.434 68.0718 101.307 68.272C101.194 68.4429 101.072 68.6357 100.94 68.8506C100.809 69.0605 100.682 69.2681 100.56 69.4731L100.296 69.2681L101.863 66.8145L102.076 66.9243C102.066 66.9536 102.049 67 102.024 67.0635C102.005 67.127 101.995 67.1953 101.995 67.2686C101.995 67.3223 102.002 67.376 102.017 67.4297C102.037 67.4785 102.073 67.5249 102.127 67.5688C102.322 67.7446 102.476 67.8813 102.588 67.979C102.701 68.0718 102.781 68.1475 102.83 68.2061C102.884 68.2598 102.916 68.3062 102.925 68.3452C102.94 68.3794 102.947 68.4258 102.947 68.4844C102.947 68.543 102.938 68.6138 102.918 68.6968C102.898 68.7798 102.864 68.8799 102.815 68.9971C102.771 69.1143 102.708 69.2534 102.625 69.4146C102.547 69.5708 102.447 69.7539 102.325 69.9639C102.251 70.0908 102.178 70.2202 102.105 70.3521C102.037 70.479 101.973 70.6084 101.915 70.7402C101.861 70.8721 101.817 71.0039 101.783 71.1357C101.749 71.2676 101.731 71.3945 101.731 71.5166C101.731 71.6094 101.744 71.6851 101.768 71.7437C101.797 71.7974 101.834 71.8389 101.878 71.8682C101.922 71.8975 101.968 71.917 102.017 71.9268C102.071 71.9365 102.122 71.9414 102.171 71.9414C102.332 71.9414 102.491 71.895 102.647 71.8022C102.808 71.7046 102.964 71.5801 103.116 71.4287C103.272 71.2773 103.421 71.1064 103.562 70.916C103.709 70.7207 103.848 70.5229 103.98 70.3228C104.112 70.1226 104.234 69.9321 104.346 69.7515C104.458 69.5659 104.559 69.4048 104.646 69.2681L104.917 69.4731ZM106.998 66.2505C106.973 66.2944 106.941 66.3433 106.902 66.397C106.863 66.4458 106.824 66.5044 106.785 66.5728C106.751 66.6362 106.719 66.7119 106.69 66.7998C106.666 66.8877 106.653 66.9927 106.653 67.1147C106.653 67.2173 106.678 67.3564 106.727 67.5322C106.78 67.708 106.836 67.9106 106.895 68.1401C106.954 68.3647 107.007 68.6113 107.056 68.8799C107.11 69.1436 107.137 69.417 107.137 69.7002C107.137 70.1152 107.081 70.4814 106.968 70.7988C106.856 71.1162 106.707 71.3872 106.521 71.6118C106.902 71.4067 107.276 71.1138 107.642 70.7329C108.008 70.3472 108.377 69.8589 108.748 69.2681L108.997 69.4878C108.787 69.8345 108.548 70.1787 108.279 70.5205C108.016 70.8574 107.725 71.1626 107.408 71.436C107.09 71.7046 106.749 71.9219 106.382 72.0879C106.016 72.2588 105.628 72.3442 105.218 72.3442C104.852 72.3442 104.544 72.2563 104.295 72.0806C104.041 71.9097 103.885 71.6509 103.826 71.3042L104.09 71.2529C104.09 71.2822 104.104 71.3311 104.134 71.3994C104.158 71.4629 104.2 71.5264 104.258 71.5898C104.317 71.6533 104.397 71.7095 104.5 71.7583C104.598 71.8071 104.72 71.8315 104.866 71.8315C105.062 71.8315 105.235 71.7876 105.386 71.6997C105.538 71.6069 105.669 71.4873 105.782 71.3408C105.894 71.1943 105.989 71.0283 106.067 70.8428C106.146 70.6523 106.207 70.457 106.25 70.2568C106.299 70.0566 106.333 69.8613 106.353 69.6709C106.373 69.4805 106.382 69.3071 106.382 69.1509C106.382 68.9946 106.375 68.8213 106.36 68.6309C106.351 68.4404 106.338 68.2598 106.324 68.0889C106.309 67.9131 106.294 67.7617 106.28 67.6348C106.27 67.5029 106.265 67.4175 106.265 67.3784V67.3638C106.202 67.4321 106.126 67.5322 106.038 67.6641C105.95 67.7959 105.855 67.9399 105.752 68.0962C105.655 68.2524 105.555 68.4111 105.452 68.5723C105.354 68.7334 105.264 68.8799 105.181 69.0117C105.103 69.1436 105.037 69.2534 104.983 69.3413C104.935 69.4243 104.91 69.4683 104.91 69.4731L104.646 69.2681C104.651 69.2632 104.712 69.1582 104.83 68.9531C104.947 68.748 105.101 68.4893 105.291 68.1768C105.486 67.8594 105.706 67.5103 105.95 67.1294C106.194 66.7437 106.446 66.3701 106.705 66.0088L106.998 66.2505Z" fill="white"/>
<path d="M24.0874 63.1084C23.8433 63.9189 23.5747 64.688 23.2817 65.4155C22.9888 66.1431 22.7104 66.7876 22.4468 67.3491C22.144 68.0034 21.8389 68.6089 21.5312 69.1655C21.2822 69.605 21.0723 69.9883 20.9014 70.3154C20.7354 70.6426 20.6011 70.9233 20.4985 71.1577C20.396 71.3872 20.3228 71.5801 20.2788 71.7363C20.2349 71.8877 20.2129 72.0122 20.2129 72.1099C20.2129 72.2124 20.2349 72.2905 20.2788 72.3442C20.3228 72.4028 20.374 72.4468 20.4326 72.4761C20.4961 72.5054 20.5571 72.5225 20.6157 72.5273C20.6792 72.5371 20.7305 72.542 20.7695 72.542C20.9404 72.542 21.1431 72.4932 21.3774 72.3955C21.6167 72.3027 21.873 72.1709 22.1465 72C22.4248 71.8242 22.7153 71.6143 23.0181 71.3701C23.3208 71.1211 23.6211 70.8428 23.9189 70.5352C24.2168 70.2275 24.5049 69.8955 24.7832 69.5391C25.0664 69.1777 25.3252 68.7969 25.5596 68.3965C25.9355 67.7422 26.2358 67.1367 26.4604 66.5801C26.3188 66.3018 26.2139 66.0161 26.1455 65.7231C26.0771 65.4253 26.043 65.1445 26.043 64.8809C26.043 64.5 26.1016 64.1948 26.2188 63.9653C26.3408 63.7358 26.5093 63.6211 26.7241 63.6211C26.8413 63.6211 26.939 63.6504 27.0171 63.709C27.1001 63.7676 27.166 63.8433 27.2148 63.936C27.2637 64.0288 27.2979 64.1313 27.3174 64.2437C27.3418 64.3511 27.354 64.4585 27.354 64.5659C27.354 64.7954 27.3198 65.0591 27.2515 65.3569C27.188 65.6548 27.0928 65.9771 26.9658 66.3237C26.8438 66.6655 26.6924 67.0293 26.5117 67.415C26.3311 67.7959 26.1235 68.1865 25.8892 68.5869C25.6548 68.9873 25.3936 69.373 25.1055 69.7441C24.8223 70.1104 24.5244 70.4546 24.2119 70.7769C23.9043 71.0991 23.5894 71.3945 23.2671 71.6631C22.9497 71.9268 22.6396 72.1514 22.3369 72.3369C22.0391 72.5273 21.7534 72.6738 21.48 72.7764C21.2114 72.8838 20.9746 72.9375 20.7695 72.9375C20.3838 72.9375 20.0811 72.8496 19.8613 72.6738C19.6416 72.498 19.5317 72.2173 19.5317 71.8315C19.5317 71.6216 19.5586 71.4116 19.6123 71.2017C19.6709 70.9917 19.7539 70.7646 19.8613 70.5205C19.9736 70.2764 20.1104 70.0103 20.2715 69.7222C20.4326 69.4292 20.6182 69.0996 20.8281 68.7334C20.3398 69.3828 19.8125 70.0127 19.2461 70.623C18.6846 71.2285 18.084 71.7705 17.4443 72.249C17.1562 72.4639 16.8926 72.6421 16.6533 72.7837C16.4141 72.9302 16.1943 73.0474 15.9941 73.1353C15.7988 73.2231 15.6206 73.2842 15.4595 73.3184C15.2983 73.3574 15.1519 73.377 15.02 73.377C14.8296 73.377 14.6636 73.3501 14.522 73.2964C14.3853 73.2427 14.2705 73.1694 14.1777 73.0767C14.0898 72.9888 14.0239 72.8813 13.98 72.7544C13.9409 72.6323 13.9214 72.498 13.9214 72.3516C13.9214 72.1074 13.958 71.8755 14.0312 71.6558C14.1045 71.436 14.2119 71.2114 14.3535 70.9819C14.5146 70.728 14.7051 70.4473 14.9248 70.1396C15.1494 69.832 15.3813 69.5098 15.6206 69.1729C15.8647 68.8359 16.104 68.4917 16.3384 68.1401C16.5776 67.7886 16.79 67.4395 16.9756 67.0928C17.166 66.7461 17.3174 66.4092 17.4297 66.082C17.5469 65.7549 17.6055 65.4473 17.6055 65.1592C17.6055 64.7051 17.5151 64.29 17.3345 63.9141C17.1587 63.5381 16.9048 63.2158 16.5728 62.9473C16.2407 62.6787 15.8379 62.4712 15.3643 62.3247C14.8955 62.1782 14.3682 62.105 13.7822 62.105C12.9766 62.105 12.2368 62.2222 11.563 62.4565C10.8892 62.6909 10.3081 63.0156 9.81982 63.4307C9.33643 63.8408 8.95801 64.3267 8.68457 64.8882C8.41602 65.4448 8.28174 66.0454 8.28174 66.6899C8.28174 67.0854 8.34277 67.4468 8.46484 67.7739C8.5918 68.0962 8.76758 68.3745 8.99219 68.6089C9.22168 68.8433 9.49756 69.0264 9.81982 69.1582C10.147 69.2852 10.5107 69.3486 10.9111 69.3486C11.375 69.3486 11.8047 69.2681 12.2002 69.1069C12.5957 68.9409 12.9546 68.7163 13.2769 68.4331C13.604 68.1499 13.8945 67.8179 14.1484 67.437C14.4023 67.0513 14.6172 66.6387 14.793 66.1992L15.1226 66.3164C14.6489 67.4932 14.0215 68.3843 13.2402 68.9897C12.459 69.5903 11.5312 69.8906 10.457 69.8906C10.0029 69.8906 9.59033 69.8149 9.21924 69.6636C8.84814 69.5073 8.53076 69.2925 8.26709 69.019C8.00342 68.7407 7.79834 68.4111 7.65186 68.0303C7.51025 67.6445 7.43945 67.2222 7.43945 66.7632C7.43945 66.1431 7.54199 65.5864 7.74707 65.0933C7.95215 64.6001 8.22314 64.168 8.56006 63.7969C8.90186 63.4209 9.2876 63.1011 9.71729 62.8374C10.1519 62.5737 10.5962 62.3589 11.0503 62.1929C11.5044 62.0269 11.9487 61.9072 12.3833 61.834C12.8179 61.7559 13.2085 61.7168 13.5552 61.7168C14.2095 61.7168 14.8149 61.7974 15.3716 61.9585C15.9282 62.1147 16.4092 62.3516 16.8145 62.6689C17.2246 62.9814 17.5444 63.3696 17.7739 63.8335C18.0034 64.2974 18.1182 64.8345 18.1182 65.4448C18.1182 65.8892 18.0327 66.3823 17.8618 66.9243C17.6958 67.4614 17.4053 68.04 16.9902 68.6602C16.6094 69.2314 16.2627 69.7271 15.9502 70.147C15.6377 70.5669 15.3691 70.9307 15.1445 71.2383C14.9248 71.541 14.7539 71.7949 14.6318 72C14.5098 72.2051 14.4487 72.376 14.4487 72.5127C14.4487 72.6543 14.5 72.769 14.6025 72.8569C14.7051 72.9448 14.8467 72.9888 15.0273 72.9888C15.2861 72.9888 15.5986 72.9009 15.9648 72.7251C16.3359 72.5493 16.751 72.2905 17.21 71.9487C17.6641 71.6118 18.0962 71.2407 18.5063 70.8354C18.9214 70.4302 19.312 70.0103 19.6782 69.5757C20.0493 69.1362 20.3984 68.6895 20.7256 68.2354C21.0527 67.7812 21.3555 67.3369 21.6338 66.9023C21.9121 66.4629 22.166 66.0405 22.3955 65.6353C22.625 65.2251 22.8276 64.8491 23.0034 64.5073C23.1792 64.1606 23.3281 63.8555 23.4502 63.5918C23.5723 63.3232 23.665 63.1133 23.7285 62.9619L24.0874 63.1084ZM26.6582 66.0747C26.7705 65.7622 26.8511 65.479 26.8999 65.2251C26.9487 64.9712 26.9731 64.7539 26.9731 64.5732C26.9731 64.5391 26.9707 64.4902 26.9658 64.4268C26.9658 64.3584 26.9561 64.2949 26.9365 64.2363C26.9219 64.1729 26.8975 64.1191 26.8633 64.0752C26.8291 64.0264 26.7827 64.002 26.7241 64.002C26.6411 64.002 26.5703 64.085 26.5117 64.251C26.458 64.417 26.4312 64.6196 26.4312 64.8589C26.4312 65.0396 26.4482 65.2349 26.4824 65.4448C26.5166 65.6499 26.5752 65.8599 26.6582 66.0747ZM31.2725 70.0078C31.292 70.0127 31.3115 70.0151 31.3311 70.0151C31.3506 70.0151 31.3726 70.0151 31.397 70.0151C31.5337 70.0151 31.6582 70.0029 31.7705 69.9785C31.8828 69.9492 31.9854 69.9053 32.0781 69.8467C32.1758 69.7881 32.2686 69.7124 32.3564 69.6196C32.4443 69.522 32.5298 69.4048 32.6128 69.2681L32.8765 69.4731C32.6421 69.8052 32.4004 70.0371 32.1514 70.1689C31.9023 70.3008 31.6387 70.3667 31.3604 70.3667C31.2578 70.3667 31.1675 70.3569 31.0894 70.3374C30.8794 70.689 30.6548 70.9893 30.4155 71.2383C30.1763 71.4824 29.9321 71.6826 29.6831 71.8389C29.4341 71.9951 29.1875 72.1074 28.9434 72.1758C28.6992 72.249 28.4722 72.2856 28.2622 72.2856C28.0474 72.2856 27.8472 72.2466 27.6616 72.1685C27.481 72.0952 27.3247 71.9878 27.1929 71.8462C27.061 71.7046 26.9585 71.5361 26.8853 71.3408C26.812 71.1455 26.7754 70.9258 26.7754 70.6816C26.7754 70.4375 26.8145 70.1885 26.8926 69.9346C26.9707 69.6807 27.0757 69.4292 27.2075 69.1802C27.3442 68.9312 27.5029 68.6919 27.6836 68.4624C27.8643 68.228 28.0596 68.0107 28.2695 67.8105C28.4795 67.6104 28.6968 67.4297 28.9214 67.2686C29.146 67.1074 29.3706 66.9756 29.5952 66.873L29.8296 67.1807C29.5708 67.3662 29.3071 67.6006 29.0386 67.8838C28.7749 68.167 28.5332 68.4771 28.3135 68.814C28.0986 69.1509 27.9204 69.5024 27.7788 69.8687C27.6421 70.23 27.5737 70.5815 27.5737 70.9233C27.5737 71.231 27.6421 71.4702 27.7788 71.6411C27.9155 71.8071 28.123 71.8901 28.4014 71.8901C28.6162 71.8901 28.8286 71.8462 29.0386 71.7583C29.2485 71.6704 29.4536 71.5508 29.6538 71.3994C29.854 71.248 30.0469 71.0698 30.2324 70.8647C30.418 70.6548 30.5938 70.4326 30.7598 70.1982C30.6182 70.1152 30.4937 70.0054 30.3862 69.8687C30.2788 69.7271 30.1885 69.5684 30.1152 69.3926C30.042 69.2119 29.9858 69.019 29.9468 68.814C29.9126 68.6089 29.8955 68.3989 29.8955 68.1841C29.8955 67.9692 29.9224 67.7666 29.9761 67.5762C30.0298 67.3857 30.103 67.2197 30.1958 67.0781C30.2935 66.9316 30.4058 66.8169 30.5327 66.7339C30.6597 66.6509 30.7988 66.6094 30.9502 66.6094C31.0869 66.6094 31.209 66.646 31.3164 66.7192C31.4238 66.7876 31.5142 66.8853 31.5874 67.0122C31.6606 67.1343 31.7168 67.2808 31.7559 67.4517C31.7949 67.6226 31.8145 67.8057 31.8145 68.001C31.8145 68.1475 31.8022 68.3086 31.7778 68.4844C31.7534 68.6602 31.7168 68.8384 31.668 69.019C31.624 69.1948 31.5679 69.3706 31.4995 69.5464C31.436 69.7173 31.3604 69.8711 31.2725 70.0078ZM30.2764 68.1841C30.2764 68.3257 30.2886 68.4795 30.313 68.6455C30.3374 68.8115 30.3765 68.9727 30.4302 69.1289C30.4839 69.2852 30.5522 69.4316 30.6353 69.5684C30.7183 69.7002 30.8208 69.8052 30.9429 69.8833C31.0308 69.7124 31.104 69.5391 31.1626 69.3633C31.2261 69.1826 31.2773 69.0093 31.3164 68.8433C31.3604 68.6772 31.3896 68.5234 31.4043 68.3818C31.4238 68.2354 31.4336 68.1084 31.4336 68.001C31.4336 67.8545 31.4214 67.7202 31.397 67.5981C31.3726 67.4761 31.3384 67.3711 31.2944 67.2832C31.2554 67.1904 31.2041 67.1196 31.1406 67.0708C31.082 67.0171 31.0161 66.9902 30.9429 66.9902C30.8452 66.9902 30.7549 67.0244 30.6719 67.0928C30.5889 67.1562 30.5181 67.2441 30.4595 67.3564C30.4009 67.4639 30.3545 67.5908 30.3203 67.7373C30.291 67.8789 30.2764 68.0278 30.2764 68.1841ZM37.9229 61.3433C38.0938 61.3433 38.2354 61.3848 38.3477 61.4678C38.4648 61.5508 38.5234 61.7021 38.5234 61.9219C38.5234 62.0732 38.4917 62.2539 38.4282 62.4639C38.3696 62.6738 38.2866 62.9033 38.1792 63.1523C38.0767 63.3965 37.9546 63.6553 37.813 63.9287C37.6714 64.1973 37.5176 64.4658 37.3516 64.7344C37.1904 65.0029 37.0195 65.2642 36.8389 65.5181C36.6631 65.772 36.4873 66.0063 36.3115 66.2212C35.96 66.6558 35.6548 67.022 35.396 67.3198C35.1421 67.6177 34.9224 67.8716 34.7368 68.0815C34.5513 68.2866 34.395 68.4551 34.2681 68.5869C34.1411 68.7139 34.0288 68.8237 33.9312 68.9165C33.8335 69.0093 33.7432 69.0947 33.6602 69.1729C33.5771 69.2461 33.4917 69.3291 33.4038 69.4219C33.3647 69.6074 33.3452 69.7856 33.3452 69.9565C33.3501 70.1226 33.3525 70.2764 33.3525 70.418C33.3525 70.8428 33.4209 71.1577 33.5576 71.3628C33.6943 71.5679 33.8872 71.6704 34.1362 71.6704C34.3022 71.6704 34.4683 71.6289 34.6343 71.5459C34.8052 71.458 34.9736 71.3457 35.1396 71.209C35.3057 71.0723 35.4668 70.9185 35.623 70.7476C35.7793 70.5718 35.9258 70.396 36.0625 70.2202C36.2041 70.0396 36.3311 69.8662 36.4434 69.7002C36.5557 69.5342 36.6533 69.3901 36.7363 69.2681L37.0073 69.4731C36.9927 69.4927 36.9438 69.5708 36.8608 69.7075C36.7827 69.8394 36.6777 70.0005 36.5459 70.1909C36.4141 70.3813 36.2578 70.5864 36.0771 70.8062C35.8965 71.021 35.7012 71.2212 35.4912 71.4067C35.2812 71.5923 35.0591 71.7461 34.8247 71.8682C34.5952 71.9902 34.3608 72.0513 34.1216 72.0513C33.9214 72.0513 33.7285 72.0146 33.543 71.9414C33.3623 71.8633 33.2012 71.7437 33.0596 71.5825C32.9229 71.4165 32.8105 71.2065 32.7227 70.9526C32.6396 70.6987 32.5981 70.3936 32.5981 70.0371C32.5981 69.5928 32.6494 69.1289 32.752 68.6455C32.8594 68.1572 33.0034 67.6689 33.1841 67.1807C33.3647 66.6875 33.5771 66.2017 33.8213 65.7231C34.0654 65.2446 34.3242 64.7905 34.5977 64.3608C34.876 63.9263 35.1641 63.5259 35.4619 63.1597C35.7646 62.7886 36.0601 62.4688 36.3481 62.2002C36.6411 61.9316 36.9219 61.7217 37.1904 61.5703C37.459 61.4189 37.7031 61.3433 37.9229 61.3433ZM33.5356 68.77C33.9507 68.3403 34.3511 67.9058 34.7368 67.4663C35.1274 67.022 35.4912 66.585 35.8281 66.1553C36.1699 65.7207 36.4824 65.3008 36.7656 64.8955C37.0488 64.4854 37.2905 64.0996 37.4907 63.7383C37.6909 63.377 37.8472 63.0474 37.9595 62.7495C38.0718 62.4517 38.1279 62.1953 38.1279 61.9805C38.1279 61.9414 38.1084 61.8901 38.0693 61.8267C38.0303 61.7583 37.9839 61.7241 37.9302 61.7241C37.7788 61.7241 37.5786 61.8242 37.3296 62.0244C37.0806 62.2246 36.8096 62.498 36.5166 62.8447C36.2285 63.1865 35.9282 63.5869 35.6157 64.0459C35.3081 64.5049 35.0176 64.9956 34.7441 65.5181C34.4707 66.0405 34.2266 66.5801 34.0117 67.1367C33.7969 67.6934 33.6382 68.2378 33.5356 68.77ZM41.3579 69.4731C41.2847 69.5806 41.1968 69.7271 41.0942 69.9126C40.9966 70.0933 40.8818 70.291 40.75 70.5059C40.6182 70.7158 40.4717 70.9307 40.3105 71.1504C40.1543 71.3701 39.981 71.5679 39.7905 71.7437C39.605 71.9194 39.4023 72.0635 39.1826 72.1758C38.9629 72.2881 38.7285 72.3442 38.4795 72.3442C38.3428 72.3442 38.2134 72.3223 38.0913 72.2783C37.9692 72.2393 37.8618 72.1758 37.769 72.0879C37.6763 72 37.603 71.8926 37.5493 71.7656C37.4956 71.6338 37.4688 71.48 37.4688 71.3042C37.4688 71.0649 37.5151 70.8159 37.6079 70.5571C37.7056 70.2935 37.8179 70.0396 37.9448 69.7954C38.0718 69.5513 38.1987 69.3291 38.3257 69.1289C38.4526 68.9238 38.5454 68.7603 38.604 68.6382C38.6626 68.5161 38.6919 68.4111 38.6919 68.3232C38.6919 68.2598 38.6699 68.2036 38.626 68.1548C38.5869 68.106 38.5356 68.0596 38.4722 68.0156C38.4136 67.9668 38.3501 67.918 38.2817 67.8691C38.2183 67.8154 38.1646 67.752 38.1206 67.6787C37.9985 67.874 37.874 68.0718 37.7471 68.272C37.6348 68.4429 37.5127 68.6357 37.3809 68.8506C37.249 69.0605 37.1221 69.2681 37 69.4731L36.7363 69.2681L38.3037 66.8145L38.5161 66.9243C38.5063 66.9536 38.4893 67 38.4648 67.0635C38.4453 67.127 38.4355 67.1953 38.4355 67.2686C38.4355 67.3223 38.4429 67.376 38.4575 67.4297C38.4771 67.4785 38.5137 67.5249 38.5674 67.5688C38.7627 67.7446 38.9165 67.8813 39.0288 67.979C39.1411 68.0718 39.2217 68.1475 39.2705 68.2061C39.3242 68.2598 39.356 68.3062 39.3657 68.3452C39.3804 68.3794 39.3877 68.4258 39.3877 68.4844C39.3877 68.543 39.3779 68.6138 39.3584 68.6968C39.3389 68.7798 39.3047 68.8799 39.2559 68.9971C39.2119 69.1143 39.1484 69.2534 39.0654 69.4146C38.9873 69.5708 38.8872 69.7539 38.7651 69.9639C38.6919 70.0908 38.6187 70.2202 38.5454 70.3521C38.4771 70.479 38.4136 70.6084 38.355 70.7402C38.3013 70.8721 38.2573 71.0039 38.2231 71.1357C38.189 71.2676 38.1719 71.3945 38.1719 71.5166C38.1719 71.6094 38.1841 71.6851 38.2085 71.7437C38.2378 71.7974 38.2744 71.8389 38.3184 71.8682C38.3623 71.8975 38.4087 71.917 38.4575 71.9268C38.5112 71.9365 38.5625 71.9414 38.6113 71.9414C38.7725 71.9414 38.9312 71.895 39.0874 71.8022C39.2485 71.7046 39.4048 71.5801 39.5562 71.4287C39.7124 71.2773 39.8613 71.1064 40.0029 70.916C40.1494 70.7207 40.2886 70.5229 40.4204 70.3228C40.5522 70.1226 40.6743 69.9321 40.7866 69.7515C40.8989 69.5659 40.999 69.4048 41.0869 69.2681L41.3579 69.4731ZM49.2534 62.376C49.1997 62.4541 49.1118 62.5835 48.9897 62.7642C48.8677 62.9448 48.7261 63.1597 48.5649 63.4087C48.4038 63.6577 48.228 63.9336 48.0376 64.2363C47.8521 64.5391 47.6641 64.8516 47.4736 65.1738C47.2881 65.4961 47.105 65.8232 46.9243 66.1553C46.7485 66.4824 46.5923 66.7974 46.4556 67.1001C46.2407 67.5688 46.0625 67.9888 45.9209 68.3599C45.7842 68.7261 45.6743 69.0532 45.5913 69.3413C45.5132 69.6294 45.457 69.8809 45.4229 70.0957C45.3936 70.3057 45.3789 70.4863 45.3789 70.6377C45.3789 70.916 45.4204 71.1089 45.5034 71.2163C45.5913 71.3237 45.7085 71.3774 45.855 71.3774C46.0063 71.3774 46.1504 71.3384 46.2871 71.2603C46.4287 71.1821 46.563 71.082 46.6899 70.96C46.8218 70.8379 46.9438 70.6987 47.0562 70.5425C47.1733 70.3862 47.2808 70.23 47.3784 70.0737C47.481 69.9175 47.5737 69.7686 47.6567 69.627C47.7397 69.4854 47.813 69.3657 47.8765 69.2681L48.1401 69.4731C48.0864 69.561 48.0181 69.6782 47.9351 69.8247C47.8569 69.9663 47.7666 70.1226 47.6641 70.2935C47.5615 70.4644 47.4443 70.6377 47.3125 70.8135C47.1807 70.9844 47.0342 71.1406 46.873 71.2822C46.7168 71.4238 46.541 71.541 46.3457 71.6338C46.1553 71.7217 45.9478 71.7656 45.7231 71.7656C45.6157 71.7656 45.501 71.751 45.3789 71.7217C45.2617 71.6924 45.1519 71.6411 45.0493 71.5679C44.9468 71.4946 44.8564 71.3945 44.7783 71.2676C44.7002 71.1357 44.6489 70.9697 44.6245 70.7695C44.2583 71.165 43.9019 71.4653 43.5552 71.6704C43.2085 71.8706 42.8813 71.9707 42.5737 71.9707C42.4175 71.9707 42.2441 71.9438 42.0537 71.8901C41.8682 71.8364 41.6924 71.7437 41.5264 71.6118C41.3604 71.48 41.2212 71.3066 41.1089 71.0918C40.9966 70.8721 40.9404 70.6011 40.9404 70.2788C40.9404 69.9175 40.9966 69.5732 41.1089 69.2461C41.2212 68.9189 41.3726 68.6162 41.563 68.3379C41.7534 68.0547 41.9707 67.8008 42.2148 67.5762C42.4639 67.3467 42.7227 67.1538 42.9912 66.9976C43.2598 66.8364 43.5283 66.7119 43.7969 66.624C44.0703 66.5361 44.3267 66.4922 44.5659 66.4922C44.8833 66.4922 45.1323 66.5312 45.313 66.6094C45.4937 66.6875 45.6304 66.7656 45.7231 66.8438C45.7915 66.707 45.8843 66.5337 46.0015 66.3237C46.1187 66.1089 46.2554 65.8721 46.4116 65.6133C46.5679 65.3496 46.7412 65.0713 46.9316 64.7783C47.1221 64.4805 47.3247 64.1826 47.5396 63.8848C47.7544 63.582 47.979 63.2842 48.2134 62.9912C48.4526 62.6982 48.6943 62.4248 48.9385 62.1709L49.2534 62.376ZM44.6172 70.2202C44.6416 69.8589 44.7246 69.4341 44.8662 68.9458C45.0127 68.4526 45.2349 67.8862 45.5327 67.2466C45.4644 67.144 45.3667 67.0659 45.2397 67.0122C45.1177 66.9536 44.9785 66.9243 44.8223 66.9243C44.583 66.9243 44.3389 66.9731 44.0898 67.0708C43.8457 67.1685 43.6089 67.3003 43.3794 67.4663C43.1548 67.6323 42.9424 67.8301 42.7422 68.0596C42.542 68.2842 42.3662 68.5259 42.2148 68.7847C42.0684 69.0435 41.9512 69.3145 41.8633 69.5977C41.7803 69.876 41.7388 70.1519 41.7388 70.4253C41.7388 70.7915 41.8145 71.0771 41.9658 71.2822C42.1221 71.4873 42.3296 71.5898 42.5884 71.5898C42.7104 71.5898 42.8447 71.5654 42.9912 71.5166C43.1377 71.4678 43.2964 71.3896 43.4673 71.2822C43.6431 71.1699 43.8262 71.0283 44.0166 70.8574C44.207 70.6816 44.4072 70.4692 44.6172 70.2202ZM56.4092 70.0078C56.4287 70.0127 56.4482 70.0151 56.4678 70.0151C56.4873 70.0151 56.5093 70.0151 56.5337 70.0151C56.6704 70.0151 56.7949 70.0029 56.9072 69.9785C57.0195 69.9492 57.1221 69.9053 57.2148 69.8467C57.3125 69.7881 57.4053 69.7124 57.4932 69.6196C57.5811 69.522 57.6665 69.4048 57.7495 69.2681L58.0132 69.4731C57.7788 69.8052 57.5371 70.0371 57.2881 70.1689C57.0391 70.3008 56.7754 70.3667 56.4971 70.3667C56.3945 70.3667 56.3042 70.3569 56.2261 70.3374C56.0161 70.689 55.7915 70.9893 55.5522 71.2383C55.313 71.4824 55.0688 71.6826 54.8198 71.8389C54.5708 71.9951 54.3242 72.1074 54.0801 72.1758C53.8359 72.249 53.6089 72.2856 53.3989 72.2856C53.1841 72.2856 52.9839 72.2466 52.7983 72.1685C52.6177 72.0952 52.4614 71.9878 52.3296 71.8462C52.1978 71.7046 52.0952 71.5361 52.022 71.3408C51.9487 71.1455 51.9121 70.9258 51.9121 70.6816C51.9121 70.4375 51.9512 70.1885 52.0293 69.9346C52.1074 69.6807 52.2124 69.4292 52.3442 69.1802C52.481 68.9312 52.6396 68.6919 52.8203 68.4624C53.001 68.228 53.1963 68.0107 53.4062 67.8105C53.6162 67.6104 53.8335 67.4297 54.0581 67.2686C54.2827 67.1074 54.5073 66.9756 54.7319 66.873L54.9663 67.1807C54.7075 67.3662 54.4438 67.6006 54.1753 67.8838C53.9116 68.167 53.6699 68.4771 53.4502 68.814C53.2354 69.1509 53.0571 69.5024 52.9155 69.8687C52.7788 70.23 52.7104 70.5815 52.7104 70.9233C52.7104 71.231 52.7788 71.4702 52.9155 71.6411C53.0522 71.8071 53.2598 71.8901 53.5381 71.8901C53.7529 71.8901 53.9653 71.8462 54.1753 71.7583C54.3853 71.6704 54.5903 71.5508 54.7905 71.3994C54.9907 71.248 55.1836 71.0698 55.3691 70.8647C55.5547 70.6548 55.7305 70.4326 55.8965 70.1982C55.7549 70.1152 55.6304 70.0054 55.5229 69.8687C55.4155 69.7271 55.3252 69.5684 55.252 69.3926C55.1787 69.2119 55.1226 69.019 55.0835 68.814C55.0493 68.6089 55.0322 68.3989 55.0322 68.1841C55.0322 67.9692 55.0591 67.7666 55.1128 67.5762C55.1665 67.3857 55.2397 67.2197 55.3325 67.0781C55.4302 66.9316 55.5425 66.8169 55.6694 66.7339C55.7964 66.6509 55.9355 66.6094 56.0869 66.6094C56.2236 66.6094 56.3457 66.646 56.4531 66.7192C56.5605 66.7876 56.6509 66.8853 56.7241 67.0122C56.7974 67.1343 56.8535 67.2808 56.8926 67.4517C56.9316 67.6226 56.9512 67.8057 56.9512 68.001C56.9512 68.1475 56.939 68.3086 56.9146 68.4844C56.8901 68.6602 56.8535 68.8384 56.8047 69.019C56.7607 69.1948 56.7046 69.3706 56.6362 69.5464C56.5728 69.7173 56.4971 69.8711 56.4092 70.0078ZM55.4131 68.1841C55.4131 68.3257 55.4253 68.4795 55.4497 68.6455C55.4741 68.8115 55.5132 68.9727 55.5669 69.1289C55.6206 69.2852 55.689 69.4316 55.772 69.5684C55.855 69.7002 55.9575 69.8052 56.0796 69.8833C56.1675 69.7124 56.2407 69.5391 56.2993 69.3633C56.3628 69.1826 56.4141 69.0093 56.4531 68.8433C56.4971 68.6772 56.5264 68.5234 56.541 68.3818C56.5605 68.2354 56.5703 68.1084 56.5703 68.001C56.5703 67.8545 56.5581 67.7202 56.5337 67.5981C56.5093 67.4761 56.4751 67.3711 56.4312 67.2832C56.3921 67.1904 56.3408 67.1196 56.2773 67.0708C56.2188 67.0171 56.1528 66.9902 56.0796 66.9902C55.9819 66.9902 55.8916 67.0244 55.8086 67.0928C55.7256 67.1562 55.6548 67.2441 55.5962 67.3564C55.5376 67.4639 55.4912 67.5908 55.457 67.7373C55.4277 67.8789 55.4131 68.0278 55.4131 68.1841ZM57.8374 71.48C57.9937 71.6021 58.2012 71.6631 58.46 71.6631C58.7383 71.6631 58.9995 71.6191 59.2437 71.5312C59.4927 71.4434 59.7246 71.3286 59.9395 71.187C60.1543 71.0405 60.3521 70.8794 60.5327 70.7036C60.7134 70.5278 60.8745 70.3521 61.0161 70.1763C61.1626 69.9956 61.2896 69.8271 61.397 69.6709C61.5093 69.5098 61.5996 69.3755 61.668 69.2681H62.0781C62.0098 69.3853 61.9146 69.5366 61.7925 69.7222C61.6753 69.9028 61.5337 70.0957 61.3677 70.3008C61.2065 70.5059 61.0234 70.7134 60.8184 70.9233C60.6133 71.1284 60.3862 71.314 60.1372 71.48C59.8931 71.646 59.6318 71.7827 59.3535 71.8901C59.0752 71.9927 58.7798 72.0439 58.4673 72.0439C58.3306 72.0439 58.1963 72.0293 58.0645 72C57.9375 71.9658 57.813 71.9146 57.6909 71.8462C57.5298 72.2417 57.3735 72.6299 57.2222 73.0107C57.0659 73.3916 56.9194 73.7529 56.7827 74.0947C56.6411 74.4365 56.5117 74.7515 56.3945 75.0396C56.2773 75.3276 56.1748 75.5767 56.0869 75.7866C55.999 76.0015 55.9307 76.1699 55.8818 76.292C55.833 76.4189 55.8062 76.4849 55.8013 76.4897L55.0322 76.1089C55.2812 75.5229 55.5059 74.9858 55.7061 74.4976C55.9014 74.0093 56.0845 73.5527 56.2554 73.1279C56.4214 72.7031 56.5801 72.3052 56.7314 71.9341C56.8779 71.5581 57.0269 71.1943 57.1782 70.8428C57.1001 70.7305 57.0439 70.6206 57.0098 70.5132C56.9707 70.4058 56.9463 70.3179 56.9365 70.2495C56.9268 70.1372 56.9585 70.0444 57.0317 69.9712C57.1001 69.8931 57.1904 69.854 57.3027 69.854C57.3955 69.854 57.481 69.8857 57.5591 69.9492C57.7056 69.5977 57.835 69.29 57.9473 69.0264C58.0645 68.7578 58.1621 68.5332 58.2402 68.3525C58.3281 68.1426 58.4062 67.9595 58.4746 67.8032C58.8994 66.8022 59.2925 65.938 59.6538 65.2104C60.02 64.478 60.3569 63.8579 60.6646 63.3501C60.9722 62.8374 61.2529 62.4248 61.5068 62.1123C61.7607 61.7949 61.9902 61.5483 62.1953 61.3726C62.4053 61.1968 62.5933 61.0796 62.7593 61.021C62.9253 60.9575 63.0742 60.9258 63.2061 60.9258C63.4209 60.9258 63.6016 60.9746 63.748 61.0723C63.8994 61.165 63.9849 61.3262 64.0044 61.5557C64.0239 61.7803 63.9824 62.0635 63.8799 62.4053C63.7822 62.7471 63.6455 63.1108 63.4697 63.4966C63.2988 63.8774 63.0986 64.2632 62.8691 64.6538C62.6396 65.0444 62.4053 65.4033 62.166 65.7305C61.7119 66.3457 61.2993 66.856 60.9282 67.2612C60.562 67.6665 60.2397 67.9937 59.9614 68.2427C59.6831 68.4917 59.4512 68.6772 59.2656 68.7993C59.0801 68.9165 58.9434 68.9971 58.8555 69.041L57.8374 71.48ZM63.5503 61.6655C63.5454 61.5825 63.5259 61.5117 63.4917 61.4531C63.4624 61.3896 63.3989 61.3579 63.3013 61.3579C63.2427 61.3579 63.167 61.3726 63.0742 61.4019C62.9814 61.4263 62.8716 61.4824 62.7446 61.5703C62.6226 61.6582 62.4834 61.7876 62.3271 61.9585C62.1709 62.1294 61.9951 62.3589 61.7998 62.647C61.6094 62.9351 61.3994 63.2915 61.1699 63.7163C60.9453 64.1411 60.7036 64.6538 60.4448 65.2544C60.2739 65.6353 60.0762 66.0991 59.8516 66.646C59.627 67.188 59.3804 67.7764 59.1118 68.4111C59.3413 68.25 59.5806 68.0498 59.8296 67.8105C60.0835 67.5664 60.3374 67.3003 60.5913 67.0122C60.8501 66.7192 61.104 66.4092 61.353 66.082C61.6021 65.7549 61.8389 65.4229 62.0635 65.0859C62.2881 64.749 62.4932 64.4146 62.6787 64.0825C62.8691 63.7505 63.0303 63.4355 63.1621 63.1377C63.2988 62.835 63.4014 62.5591 63.4697 62.3101C63.5381 62.0562 63.5649 61.8413 63.5503 61.6655ZM78.2573 63.3281C78.2524 63.3281 78.1621 63.416 77.9863 63.5918C77.8105 63.7627 77.5762 64.0264 77.2832 64.3828C76.9902 64.7344 76.6509 65.1812 76.2651 65.7231C75.8843 66.2603 75.4839 66.895 75.064 67.6274L74.7783 68.1255C74.9395 68.0864 75.103 68.0498 75.269 68.0156C75.4351 67.9814 75.6035 67.9497 75.7744 67.9204L76.104 67.8545C76.2603 67.5713 76.4019 67.3394 76.5288 67.1587C76.6606 66.978 76.7803 66.8364 76.8877 66.7339C77 66.6265 77.1025 66.5532 77.1953 66.5142C77.2881 66.4751 77.3711 66.4556 77.4443 66.4556C77.5371 66.4556 77.6274 66.4873 77.7153 66.5508C77.8032 66.6143 77.8472 66.729 77.8472 66.895C77.8472 67.0269 77.8154 67.1538 77.752 67.2759C77.6885 67.3979 77.5981 67.5127 77.481 67.6201C77.3638 67.7275 77.2246 67.8228 77.0635 67.9058C76.9023 67.9888 76.7241 68.0547 76.5288 68.1035C76.436 68.2939 76.3408 68.4941 76.2432 68.7041C76.1455 68.9092 76.043 69.1167 75.9355 69.3267C75.8281 69.5366 75.7183 69.7441 75.606 69.9492C75.4937 70.1494 75.3765 70.3398 75.2544 70.5205L74.7344 70.0298C74.7783 69.9761 74.8442 69.8906 74.9321 69.7734C75.0249 69.6562 75.1226 69.5244 75.2251 69.3779C75.3325 69.2314 75.4375 69.0776 75.54 68.9165C75.6426 68.7505 75.7305 68.5942 75.8037 68.4478L75.9062 68.228C75.6816 68.2769 75.4546 68.3281 75.2251 68.3818C75.0005 68.4307 74.7686 68.4868 74.5293 68.5503C74.1533 69.1948 73.7847 69.7808 73.4233 70.3081C73.0669 70.8306 72.686 71.2798 72.2808 71.6558C71.8755 72.0269 71.4312 72.3125 70.9478 72.5127C70.4644 72.7178 69.9077 72.8203 69.2778 72.8203C68.8677 72.8203 68.4526 72.7617 68.0327 72.6445C67.6177 72.5322 67.2417 72.3662 66.9048 72.1465C66.5728 71.9268 66.2993 71.6582 66.0845 71.3408C65.8745 71.0234 65.7695 70.6621 65.7695 70.2568C65.7695 69.9395 65.833 69.6587 65.96 69.4146C66.082 69.1655 66.2505 68.958 66.4653 68.792C66.6802 68.6211 66.9292 68.4941 67.2124 68.4111C67.5005 68.3232 67.8032 68.2793 68.1206 68.2793C68.3843 68.2793 68.6479 68.311 68.9116 68.3745C69.1802 68.438 69.439 68.5283 69.688 68.6455C69.937 68.7627 70.1714 68.9067 70.3911 69.0776C70.6157 69.2437 70.8159 69.4316 70.9917 69.6416L70.7134 69.854C70.5669 69.7075 70.4033 69.5781 70.2227 69.4658C70.042 69.3486 69.8491 69.251 69.644 69.1729C69.439 69.0898 69.229 69.0288 69.0142 68.9897C68.7993 68.9458 68.5869 68.9238 68.377 68.9238C68.1475 68.9238 67.9229 68.9531 67.7031 69.0117C67.4834 69.0703 67.2881 69.1655 67.1172 69.2974C66.9463 69.4243 66.8071 69.5903 66.6997 69.7954C66.5923 69.9956 66.5386 70.2422 66.5386 70.5352C66.5386 70.7988 66.6045 71.0454 66.7363 71.2749C66.8682 71.5044 67.0464 71.7046 67.271 71.8755C67.5005 72.0415 67.7666 72.1733 68.0693 72.271C68.377 72.3687 68.7041 72.4175 69.0508 72.4175C69.5439 72.4175 69.9883 72.3247 70.3838 72.1392C70.7793 71.9585 71.1431 71.7095 71.4751 71.3921C71.812 71.0747 72.127 70.7036 72.4199 70.2788C72.7178 69.8491 73.0132 69.3926 73.3062 68.9092C73.1694 68.9531 73.0303 68.9995 72.8887 69.0483C72.7471 69.0972 72.6055 69.1484 72.4639 69.2021L72.3247 68.8433C72.5493 68.77 72.7642 68.7017 72.9692 68.6382C73.1743 68.5747 73.3794 68.5112 73.5845 68.4478C73.8628 67.9839 74.1509 67.5103 74.4487 67.0269C74.7515 66.5386 75.0811 66.0625 75.4375 65.5986C75.7939 65.1299 76.1846 64.6831 76.6094 64.2583C77.0391 63.8335 77.5176 63.4478 78.0449 63.1011L78.2573 63.3281ZM73.3135 67.3125C72.8643 67.5176 72.4175 67.6665 71.9731 67.7593C71.5288 67.8521 71.1113 67.8984 70.7207 67.8984C70.2666 67.8984 69.8516 67.8374 69.4756 67.7153C69.0996 67.5933 68.7749 67.4224 68.5015 67.2026C68.228 66.9829 68.0156 66.7192 67.8643 66.4116C67.7129 66.104 67.6372 65.7646 67.6372 65.3936C67.6372 64.9297 67.7153 64.5171 67.8716 64.1558C68.0327 63.7944 68.25 63.4771 68.5234 63.2036C68.7969 62.9253 69.1191 62.6909 69.4902 62.5005C69.8613 62.3101 70.2593 62.1538 70.6841 62.0317C71.1089 61.9097 71.5508 61.8218 72.0098 61.7681C72.4688 61.7144 72.9229 61.6875 73.3721 61.6875C73.8896 61.6875 74.3926 61.7192 74.8809 61.7827C75.3691 61.8462 75.8428 61.917 76.3018 61.9951C76.7656 62.0684 77.2148 62.1367 77.6494 62.2002C78.084 62.2637 78.5088 62.2954 78.9238 62.2954C79.3975 62.2954 79.8345 62.2588 80.2349 62.1855C80.6353 62.1123 80.9795 62.0317 81.2676 61.9438C81.5557 61.8511 81.7803 61.7681 81.9414 61.6948C82.1074 61.6167 82.1929 61.5776 82.1978 61.5776L82.3809 61.9146C82.3662 61.9243 82.271 61.9707 82.0952 62.0537C81.9194 62.1318 81.6802 62.2197 81.3774 62.3174C81.0796 62.4102 80.7231 62.4956 80.3081 62.5737C79.8931 62.647 79.4365 62.6836 78.9385 62.6836C78.4746 62.6836 78.0278 62.6543 77.5981 62.5957C77.1685 62.5322 76.7339 62.4639 76.2944 62.3906C75.8599 62.3174 75.4082 62.2515 74.9395 62.1929C74.4707 62.1294 73.9653 62.0977 73.4233 62.0977C72.6226 62.0977 71.9146 62.1758 71.2993 62.332C70.689 62.4834 70.1763 62.7031 69.7612 62.9912C69.3511 63.2744 69.041 63.6211 68.8311 64.0312C68.6211 64.4365 68.5161 64.8906 68.5161 65.3936C68.5161 65.7402 68.582 66.043 68.7139 66.3018C68.8506 66.5605 69.0312 66.7754 69.2559 66.9463C69.4854 67.1172 69.7466 67.2466 70.0396 67.3345C70.3374 67.4175 70.6475 67.459 70.9697 67.459C71.2529 67.459 71.5264 67.4346 71.79 67.3857C72.0537 67.3369 72.2856 67.2832 72.4858 67.2246C72.686 67.1611 72.8472 67.105 72.9692 67.0562C73.0913 67.0024 73.1548 66.9756 73.1597 66.9756L73.3135 67.3125ZM77.3711 66.8364C77.2881 66.8364 77.1929 66.9146 77.0854 67.0708C76.9829 67.2222 76.8682 67.4224 76.7412 67.6714C76.8926 67.6128 77.0146 67.5518 77.1074 67.4883C77.2002 67.4248 77.2734 67.3613 77.3271 67.2979C77.3809 67.2344 77.4175 67.1709 77.437 67.1074C77.4565 67.0439 77.4663 66.9829 77.4663 66.9243C77.4663 66.8901 77.4565 66.8682 77.437 66.8584C77.4175 66.8438 77.3955 66.8364 77.3711 66.8364ZM83.2451 61.3433C83.416 61.3433 83.5576 61.3848 83.6699 61.4678C83.7871 61.5508 83.8457 61.7021 83.8457 61.9219C83.8457 62.0732 83.814 62.2539 83.7505 62.4639C83.6919 62.6738 83.6089 62.9033 83.5015 63.1523C83.3989 63.3965 83.2769 63.6553 83.1353 63.9287C82.9937 64.1973 82.8398 64.4658 82.6738 64.7344C82.5127 65.0029 82.3418 65.2642 82.1611 65.5181C81.9854 65.772 81.8096 66.0063 81.6338 66.2212C81.2822 66.6558 80.9771 67.022 80.7183 67.3198C80.4644 67.6177 80.2446 67.8716 80.0591 68.0815C79.8735 68.2866 79.7173 68.4551 79.5903 68.5869C79.4634 68.7139 79.3511 68.8237 79.2534 68.9165C79.1558 69.0093 79.0654 69.0947 78.9824 69.1729C78.8994 69.2461 78.814 69.3291 78.7261 69.4219C78.687 69.6074 78.6675 69.7856 78.6675 69.9565C78.6724 70.1226 78.6748 70.2764 78.6748 70.418C78.6748 70.8428 78.7432 71.1577 78.8799 71.3628C79.0166 71.5679 79.2095 71.6704 79.4585 71.6704C79.6245 71.6704 79.7905 71.6289 79.9565 71.5459C80.1274 71.458 80.2959 71.3457 80.4619 71.209C80.6279 71.0723 80.7891 70.9185 80.9453 70.7476C81.1016 70.5718 81.248 70.396 81.3848 70.2202C81.5264 70.0396 81.6533 69.8662 81.7656 69.7002C81.8779 69.5342 81.9756 69.3901 82.0586 69.2681L82.3296 69.4731C82.3149 69.4927 82.2661 69.5708 82.1831 69.7075C82.105 69.8394 82 70.0005 81.8682 70.1909C81.7363 70.3813 81.5801 70.5864 81.3994 70.8062C81.2188 71.021 81.0234 71.2212 80.8135 71.4067C80.6035 71.5923 80.3813 71.7461 80.147 71.8682C79.9175 71.9902 79.6831 72.0513 79.4438 72.0513C79.2437 72.0513 79.0508 72.0146 78.8652 71.9414C78.6846 71.8633 78.5234 71.7437 78.3818 71.5825C78.2451 71.4165 78.1328 71.2065 78.0449 70.9526C77.9619 70.6987 77.9204 70.3936 77.9204 70.0371C77.9204 69.5928 77.9717 69.1289 78.0742 68.6455C78.1816 68.1572 78.3257 67.6689 78.5063 67.1807C78.687 66.6875 78.8994 66.2017 79.1436 65.7231C79.3877 65.2446 79.6465 64.7905 79.9199 64.3608C80.1982 63.9263 80.4863 63.5259 80.7842 63.1597C81.0869 62.7886 81.3823 62.4688 81.6704 62.2002C81.9634 61.9316 82.2441 61.7217 82.5127 61.5703C82.7812 61.4189 83.0254 61.3433 83.2451 61.3433ZM78.8579 68.77C79.2729 68.3403 79.6733 67.9058 80.0591 67.4663C80.4497 67.022 80.8135 66.585 81.1504 66.1553C81.4922 65.7207 81.8047 65.3008 82.0879 64.8955C82.3711 64.4854 82.6128 64.0996 82.813 63.7383C83.0132 63.377 83.1694 63.0474 83.2817 62.7495C83.394 62.4517 83.4502 62.1953 83.4502 61.9805C83.4502 61.9414 83.4307 61.8901 83.3916 61.8267C83.3525 61.7583 83.3062 61.7241 83.2524 61.7241C83.1011 61.7241 82.9009 61.8242 82.6519 62.0244C82.4028 62.2246 82.1318 62.498 81.8389 62.8447C81.5508 63.1865 81.2505 63.5869 80.938 64.0459C80.6304 64.5049 80.3398 64.9956 80.0664 65.5181C79.793 66.0405 79.5488 66.5801 79.334 67.1367C79.1191 67.6934 78.9604 68.2378 78.8579 68.77ZM86.1895 70.0078C86.209 70.0127 86.2285 70.0151 86.248 70.0151C86.2676 70.0151 86.2896 70.0151 86.314 70.0151C86.4507 70.0151 86.5752 70.0029 86.6875 69.9785C86.7998 69.9492 86.9023 69.9053 86.9951 69.8467C87.0928 69.7881 87.1855 69.7124 87.2734 69.6196C87.3613 69.522 87.4468 69.4048 87.5298 69.2681L87.7935 69.4731C87.5591 69.8052 87.3174 70.0371 87.0684 70.1689C86.8193 70.3008 86.5557 70.3667 86.2773 70.3667C86.1748 70.3667 86.0845 70.3569 86.0063 70.3374C85.7964 70.689 85.5718 70.9893 85.3325 71.2383C85.0933 71.4824 84.8491 71.6826 84.6001 71.8389C84.3511 71.9951 84.1045 72.1074 83.8604 72.1758C83.6162 72.249 83.3892 72.2856 83.1792 72.2856C82.9644 72.2856 82.7642 72.2466 82.5786 72.1685C82.3979 72.0952 82.2417 71.9878 82.1099 71.8462C81.978 71.7046 81.8755 71.5361 81.8022 71.3408C81.729 71.1455 81.6924 70.9258 81.6924 70.6816C81.6924 70.4375 81.7314 70.1885 81.8096 69.9346C81.8877 69.6807 81.9927 69.4292 82.1245 69.1802C82.2612 68.9312 82.4199 68.6919 82.6006 68.4624C82.7812 68.228 82.9766 68.0107 83.1865 67.8105C83.3965 67.6104 83.6138 67.4297 83.8384 67.2686C84.063 67.1074 84.2876 66.9756 84.5122 66.873L84.7466 67.1807C84.4878 67.3662 84.2241 67.6006 83.9556 67.8838C83.6919 68.167 83.4502 68.4771 83.2305 68.814C83.0156 69.1509 82.8374 69.5024 82.6958 69.8687C82.5591 70.23 82.4907 70.5815 82.4907 70.9233C82.4907 71.231 82.5591 71.4702 82.6958 71.6411C82.8325 71.8071 83.04 71.8901 83.3184 71.8901C83.5332 71.8901 83.7456 71.8462 83.9556 71.7583C84.1655 71.6704 84.3706 71.5508 84.5708 71.3994C84.771 71.248 84.9639 71.0698 85.1494 70.8647C85.335 70.6548 85.5107 70.4326 85.6768 70.1982C85.5352 70.1152 85.4106 70.0054 85.3032 69.8687C85.1958 69.7271 85.1055 69.5684 85.0322 69.3926C84.959 69.2119 84.9028 69.019 84.8638 68.814C84.8296 68.6089 84.8125 68.3989 84.8125 68.1841C84.8125 67.9692 84.8394 67.7666 84.8931 67.5762C84.9468 67.3857 85.02 67.2197 85.1128 67.0781C85.2104 66.9316 85.3228 66.8169 85.4497 66.7339C85.5767 66.6509 85.7158 66.6094 85.8672 66.6094C86.0039 66.6094 86.126 66.646 86.2334 66.7192C86.3408 66.7876 86.4312 66.8853 86.5044 67.0122C86.5776 67.1343 86.6338 67.2808 86.6729 67.4517C86.7119 67.6226 86.7314 67.8057 86.7314 68.001C86.7314 68.1475 86.7192 68.3086 86.6948 68.4844C86.6704 68.6602 86.6338 68.8384 86.585 69.019C86.541 69.1948 86.4849 69.3706 86.4165 69.5464C86.353 69.7173 86.2773 69.8711 86.1895 70.0078ZM85.1934 68.1841C85.1934 68.3257 85.2056 68.4795 85.23 68.6455C85.2544 68.8115 85.2935 68.9727 85.3472 69.1289C85.4009 69.2852 85.4692 69.4316 85.5522 69.5684C85.6353 69.7002 85.7378 69.8052 85.8599 69.8833C85.9478 69.7124 86.021 69.5391 86.0796 69.3633C86.1431 69.1826 86.1943 69.0093 86.2334 68.8433C86.2773 68.6772 86.3066 68.5234 86.3213 68.3818C86.3408 68.2354 86.3506 68.1084 86.3506 68.001C86.3506 67.8545 86.3384 67.7202 86.314 67.5981C86.2896 67.4761 86.2554 67.3711 86.2114 67.2832C86.1724 67.1904 86.1211 67.1196 86.0576 67.0708C85.999 67.0171 85.9331 66.9902 85.8599 66.9902C85.7622 66.9902 85.6719 67.0244 85.5889 67.0928C85.5059 67.1562 85.4351 67.2441 85.3765 67.3564C85.3179 67.4639 85.2715 67.5908 85.2373 67.7373C85.208 67.8789 85.1934 68.0278 85.1934 68.1841ZM89.5659 67.1294C89.2876 67.5542 89.0508 67.9595 88.8555 68.3452C88.6602 68.7261 88.499 69.0801 88.3721 69.4072C88.2451 69.7344 88.1523 70.0322 88.0938 70.3008C88.0352 70.5693 88.0059 70.8013 88.0059 70.9966C88.0059 71.4458 88.1353 71.6704 88.394 71.6704C88.5503 71.6704 88.7285 71.5923 88.9287 71.436C89.1338 71.2798 89.3413 71.0723 89.5513 70.8135C89.7612 70.5547 89.9663 70.2568 90.1665 69.9199C90.3667 69.583 90.5425 69.2339 90.6938 68.8726L90.7012 68.8799C90.8428 68.5283 90.9966 68.1841 91.1626 67.8472C91.3335 67.5103 91.5068 67.2026 91.6826 66.9243L92.0122 67.1294C91.9292 67.3589 91.8291 67.6372 91.7119 67.9644C91.5947 68.2915 91.4824 68.6357 91.375 68.9971C91.2725 69.3535 91.1821 69.71 91.104 70.0664C91.0308 70.4229 90.9941 70.7451 90.9941 71.0332C90.9941 71.1162 90.9966 71.1968 91.0015 71.2749C91.0112 71.3481 91.0259 71.4141 91.0454 71.4727C91.0649 71.5312 91.0942 71.5776 91.1333 71.6118C91.1724 71.646 91.2212 71.6631 91.2798 71.6631C91.4458 71.6631 91.6338 71.5898 91.8438 71.4434C92.0586 71.2969 92.271 71.1089 92.481 70.8794C92.6958 70.645 92.8984 70.3887 93.0889 70.1104C93.2842 69.8271 93.4478 69.5537 93.5796 69.29C93.3843 68.9287 93.2866 68.5186 93.2866 68.0596C93.2866 67.8057 93.3086 67.5908 93.3525 67.415C93.4014 67.2393 93.46 67.0977 93.5283 66.9902C93.5967 66.8779 93.6724 66.7998 93.7554 66.7559C93.8384 66.707 93.9141 66.6826 93.9824 66.6826C94.1094 66.6826 94.2192 66.7461 94.312 66.873C94.4097 67 94.4585 67.2271 94.4585 67.5542C94.4585 67.7886 94.417 68.0571 94.334 68.3599C94.251 68.6577 94.1362 68.9678 93.9897 69.29C94.0776 69.417 94.1851 69.5195 94.312 69.5977C94.439 69.6758 94.5879 69.7173 94.7588 69.7222L94.6929 70.0737C94.5171 70.064 94.356 70.0225 94.2095 69.9492C94.063 69.8711 93.9336 69.7686 93.8213 69.6416C93.6602 69.9492 93.4722 70.2495 93.2573 70.5425C93.0474 70.8306 92.8203 71.0869 92.5762 71.3115C92.3369 71.5361 92.0854 71.7168 91.8218 71.8535C91.5581 71.9902 91.292 72.0586 91.0234 72.0586C90.9111 72.0586 90.8037 72.0366 90.7012 71.9927C90.6035 71.9487 90.5156 71.8828 90.4375 71.7949C90.3594 71.707 90.2983 71.5947 90.2544 71.458C90.2104 71.3213 90.1885 71.1602 90.1885 70.9746C90.1885 70.9062 90.1909 70.833 90.1958 70.7549C90.2007 70.6768 90.2104 70.5962 90.2251 70.5132C90.0835 70.7329 89.937 70.938 89.7856 71.1284C89.6392 71.3188 89.4878 71.4824 89.3315 71.6191C89.1753 71.7559 89.0117 71.8633 88.8408 71.9414C88.6748 72.0195 88.5039 72.0586 88.3281 72.0586C88.1377 72.0586 87.9741 72.0269 87.8374 71.9634C87.7007 71.895 87.5884 71.8022 87.5005 71.6851C87.4126 71.563 87.3491 71.4214 87.3101 71.2603C87.2661 71.0991 87.2441 70.9233 87.2441 70.7329C87.2441 70.396 87.3003 70.0518 87.4126 69.7002C87.52 69.3486 87.6665 69.0044 87.8521 68.6675C88.0376 68.3306 88.25 68.0132 88.4893 67.7153C88.7334 67.4175 88.9873 67.1538 89.251 66.9243L89.5659 67.1294ZM93.7847 68.8433C93.8774 68.6235 93.9482 68.4014 93.9971 68.1768C94.0459 67.9521 94.0703 67.7324 94.0703 67.5176C94.0703 67.3564 94.0581 67.2417 94.0337 67.1733C94.0093 67.105 93.9897 67.0659 93.9751 67.0562C93.9702 67.0562 93.9507 67.0708 93.9165 67.1001C93.8872 67.1245 93.853 67.1733 93.814 67.2466C93.7749 67.3198 93.7383 67.4224 93.7041 67.5542C93.6748 67.6812 93.6602 67.8472 93.6602 68.0522C93.6602 68.1938 93.6699 68.333 93.6895 68.4697C93.7139 68.6064 93.7456 68.731 93.7847 68.8433ZM95.5059 70.3301C95.4961 70.3887 95.4888 70.4473 95.4839 70.5059C95.479 70.5645 95.4766 70.623 95.4766 70.6816C95.4766 70.8574 95.501 71.0259 95.5498 71.187C95.6035 71.3433 95.6792 71.4824 95.7769 71.6045C95.8794 71.7217 96.0039 71.8145 96.1504 71.8828C96.3018 71.9512 96.4727 71.9854 96.6631 71.9854C97.3027 71.9854 97.9204 71.7681 98.5161 71.3335C99.1118 70.8989 99.7051 70.2104 100.296 69.2681L100.545 69.4878C100.223 70.0249 99.8955 70.479 99.5635 70.8501C99.2314 71.2163 98.8994 71.5142 98.5674 71.7437C98.2402 71.9731 97.918 72.1392 97.6006 72.2417C97.2832 72.3442 96.9805 72.3955 96.6924 72.3955C96.4824 72.3955 96.2603 72.3662 96.0259 72.3076C95.7915 72.249 95.5742 72.1514 95.374 72.0146C95.1787 71.8779 95.0176 71.6948 94.8906 71.4653C94.7588 71.2358 94.6929 70.9502 94.6929 70.6084C94.6929 70.2422 94.7563 69.8906 94.8833 69.5537C95.0054 69.2119 95.1665 68.8945 95.3667 68.6016C95.5669 68.3086 95.7964 68.0425 96.0552 67.8032C96.314 67.5591 96.5752 67.3516 96.8389 67.1807C97.1074 67.0098 97.3687 66.8779 97.6226 66.7852C97.8765 66.6875 98.1011 66.6387 98.2964 66.6387C98.4233 66.6387 98.5527 66.6582 98.6846 66.6973C98.8164 66.7363 98.9336 66.7974 99.0361 66.8804C99.1436 66.9634 99.229 67.0732 99.2925 67.21C99.3608 67.3467 99.395 67.5103 99.395 67.7007C99.395 67.9595 99.334 68.2036 99.2119 68.4331C99.0947 68.6577 98.936 68.8677 98.7358 69.063C98.5356 69.2534 98.3037 69.4268 98.04 69.583C97.7764 69.7344 97.5005 69.8638 97.2124 69.9712C96.9243 70.0786 96.6338 70.1641 96.3408 70.2275C96.0479 70.291 95.7695 70.3252 95.5059 70.3301ZM95.5645 70.0151C95.8916 69.981 96.1992 69.9126 96.4873 69.8101C96.7754 69.7075 97.0391 69.583 97.2783 69.4365C97.5176 69.2852 97.73 69.1216 97.9155 68.9458C98.106 68.77 98.2646 68.5918 98.3916 68.4111C98.5186 68.2305 98.6162 68.0571 98.6846 67.8911C98.7529 67.7251 98.7871 67.5762 98.7871 67.4443C98.7871 67.3125 98.7505 67.2075 98.6772 67.1294C98.6089 67.0513 98.5259 67.0122 98.4282 67.0122C98.2134 67.0122 97.9717 67.0903 97.7031 67.2466C97.4346 67.3979 97.166 67.6104 96.8975 67.8838C96.6289 68.1523 96.375 68.4697 96.1357 68.8359C95.9014 69.2021 95.7109 69.5952 95.5645 70.0151ZM104.917 69.4731C104.844 69.5806 104.756 69.7271 104.654 69.9126C104.556 70.0933 104.441 70.291 104.31 70.5059C104.178 70.7158 104.031 70.9307 103.87 71.1504C103.714 71.3701 103.541 71.5679 103.35 71.7437C103.165 71.9194 102.962 72.0635 102.742 72.1758C102.522 72.2881 102.288 72.3442 102.039 72.3442C101.902 72.3442 101.773 72.3223 101.651 72.2783C101.529 72.2393 101.421 72.1758 101.329 72.0879C101.236 72 101.163 71.8926 101.109 71.7656C101.055 71.6338 101.028 71.48 101.028 71.3042C101.028 71.0649 101.075 70.8159 101.167 70.5571C101.265 70.2935 101.377 70.0396 101.504 69.7954C101.631 69.5513 101.758 69.3291 101.885 69.1289C102.012 68.9238 102.105 68.7603 102.164 68.6382C102.222 68.5161 102.251 68.4111 102.251 68.3232C102.251 68.2598 102.229 68.2036 102.186 68.1548C102.146 68.106 102.095 68.0596 102.032 68.0156C101.973 67.9668 101.91 67.918 101.841 67.8691C101.778 67.8154 101.724 67.752 101.68 67.6787C101.558 67.874 101.434 68.0718 101.307 68.272C101.194 68.4429 101.072 68.6357 100.94 68.8506C100.809 69.0605 100.682 69.2681 100.56 69.4731L100.296 69.2681L101.863 66.8145L102.076 66.9243C102.066 66.9536 102.049 67 102.024 67.0635C102.005 67.127 101.995 67.1953 101.995 67.2686C101.995 67.3223 102.002 67.376 102.017 67.4297C102.037 67.4785 102.073 67.5249 102.127 67.5688C102.322 67.7446 102.476 67.8813 102.588 67.979C102.701 68.0718 102.781 68.1475 102.83 68.2061C102.884 68.2598 102.916 68.3062 102.925 68.3452C102.94 68.3794 102.947 68.4258 102.947 68.4844C102.947 68.543 102.938 68.6138 102.918 68.6968C102.898 68.7798 102.864 68.8799 102.815 68.9971C102.771 69.1143 102.708 69.2534 102.625 69.4146C102.547 69.5708 102.447 69.7539 102.325 69.9639C102.251 70.0908 102.178 70.2202 102.105 70.3521C102.037 70.479 101.973 70.6084 101.915 70.7402C101.861 70.8721 101.817 71.0039 101.783 71.1357C101.749 71.2676 101.731 71.3945 101.731 71.5166C101.731 71.6094 101.744 71.6851 101.768 71.7437C101.797 71.7974 101.834 71.8389 101.878 71.8682C101.922 71.8975 101.968 71.917 102.017 71.9268C102.071 71.9365 102.122 71.9414 102.171 71.9414C102.332 71.9414 102.491 71.895 102.647 71.8022C102.808 71.7046 102.964 71.5801 103.116 71.4287C103.272 71.2773 103.421 71.1064 103.562 70.916C103.709 70.7207 103.848 70.5229 103.98 70.3228C104.112 70.1226 104.234 69.9321 104.346 69.7515C104.458 69.5659 104.559 69.4048 104.646 69.2681L104.917 69.4731ZM106.998 66.2505C106.973 66.2944 106.941 66.3433 106.902 66.397C106.863 66.4458 106.824 66.5044 106.785 66.5728C106.751 66.6362 106.719 66.7119 106.69 66.7998C106.666 66.8877 106.653 66.9927 106.653 67.1147C106.653 67.2173 106.678 67.3564 106.727 67.5322C106.78 67.708 106.836 67.9106 106.895 68.1401C106.954 68.3647 107.007 68.6113 107.056 68.8799C107.11 69.1436 107.137 69.417 107.137 69.7002C107.137 70.1152 107.081 70.4814 106.968 70.7988C106.856 71.1162 106.707 71.3872 106.521 71.6118C106.902 71.4067 107.276 71.1138 107.642 70.7329C108.008 70.3472 108.377 69.8589 108.748 69.2681L108.997 69.4878C108.787 69.8345 108.548 70.1787 108.279 70.5205C108.016 70.8574 107.725 71.1626 107.408 71.436C107.09 71.7046 106.749 71.9219 106.382 72.0879C106.016 72.2588 105.628 72.3442 105.218 72.3442C104.852 72.3442 104.544 72.2563 104.295 72.0806C104.041 71.9097 103.885 71.6509 103.826 71.3042L104.09 71.2529C104.09 71.2822 104.104 71.3311 104.134 71.3994C104.158 71.4629 104.2 71.5264 104.258 71.5898C104.317 71.6533 104.397 71.7095 104.5 71.7583C104.598 71.8071 104.72 71.8315 104.866 71.8315C105.062 71.8315 105.235 71.7876 105.386 71.6997C105.538 71.6069 105.669 71.4873 105.782 71.3408C105.894 71.1943 105.989 71.0283 106.067 70.8428C106.146 70.6523 106.207 70.457 106.25 70.2568C106.299 70.0566 106.333 69.8613 106.353 69.6709C106.373 69.4805 106.382 69.3071 106.382 69.1509C106.382 68.9946 106.375 68.8213 106.36 68.6309C106.351 68.4404 106.338 68.2598 106.324 68.0889C106.309 67.9131 106.294 67.7617 106.28 67.6348C106.27 67.5029 106.265 67.4175 106.265 67.3784V67.3638C106.202 67.4321 106.126 67.5322 106.038 67.6641C105.95 67.7959 105.855 67.9399 105.752 68.0962C105.655 68.2524 105.555 68.4111 105.452 68.5723C105.354 68.7334 105.264 68.8799 105.181 69.0117C105.103 69.1436 105.037 69.2534 104.983 69.3413C104.935 69.4243 104.91 69.4683 104.91 69.4731L104.646 69.2681C104.651 69.2632 104.712 69.1582 104.83 68.9531C104.947 68.748 105.101 68.4893 105.291 68.1768C105.486 67.8594 105.706 67.5103 105.95 67.1294C106.194 66.7437 106.446 66.3701 106.705 66.0088L106.998 66.2505Z" fill="white"/>
<circle cx="114.5" cy="69.5" r="1.5" fill="white"/>
<circle cx="1.5" cy="69.5" r="1.5" fill="white"/>
</svg>
