<svg width="132" height="96" viewBox="0 0 132 96" fill="none" xmlns="http://www.w3.org/2000/svg">
<path d="M34 31.3895C50.6174 29.4297 57.0899 28.1671 68.9479 24.3089M80.0908 20.2467C82.7552 19.0627 84.8858 17.8116 96.805 8.09089M80.0908 20.2467C84.8538 14.6434 89.0222 12.2288 96.805 8.09089M80.0908 20.2467C82.9243 11.9568 87.0609 9.75299 96.805 8.09089M80.0908 20.2467C84.7693 13.498 88.627 11.0512 96.805 8.09089M80.0908 20.2467C83.7361 12.4588 87.7802 10.2027 96.805 8.09089M80.0908 20.2467C85.7065 15.6855 89.4954 12.9976 96.805 8.09089M80.0908 20.2467C87.5374 17.8413 90.8157 14.2084 96.805 8.09089M80.0908 20.2467C88.1825 18.8877 91.5407 15.5735 96.805 8.09089M80.0908 20.2467C89.2388 19.5434 92.8039 16.736 96.805 8.09089M80.0908 20.2467C90.5271 20.2314 94.0953 17.4592 96.805 8.09089M80.0908 20.2467C82.1924 11.2848 85.8191 8.59987 96.805 8.09089M80.0908 20.2467C76.1276 21.8261 72.4786 23.1601 68.9479 24.3089M68.9479 24.3089C72.2626 17.8762 75.3334 11.0188 76.5453 4.03895M68.9479 24.3089C72.8608 18.56 76.2599 11.8344 76.5453 4.03895M68.9479 24.3089C73.8034 18.9815 77.4602 12.3851 76.5453 4.03895M68.9479 24.3089C75.0278 19.1793 78.3128 12.3813 76.5453 4.03895M68.9479 24.3089C76.349 19.3639 79.6818 12.5826 76.5453 4.03895M68.9479 24.3089C77.3127 19.8905 80.6837 13.1239 76.5453 4.03895M68.9479 24.3089C79.2427 18.6995 81.4681 13.2734 76.5453 4.03895M68.9479 24.3089C71.725 17.7025 73.3962 13.2112 76.5453 4.03895M68.9479 24.3089C70.539 17.8392 72.2057 13.3675 76.5453 4.03895M68.9479 24.3089C69.6687 16.7115 71.3276 12.2741 76.5453 4.03895M68.9479 24.3089C68.9479 24.3089 65.909 18.7272 69.4544 13.6623C72.9999 8.59738 76.5453 1 76.5453 1M68.9479 24.3089C68.9479 24.3089 69.4544 16.1948 70.4674 13.6623M68.9479 24.3089C68.7768 20.0353 67.3369 17.4355 70.4674 13.6623M68.9479 24.3089C78.5911 19.762 81.7542 15.2505 78.5616 7.83001M68.9479 24.3089C69.4629 24.0369 69.9589 23.756 70.4354 23.4662M68.9479 24.3089C69.464 24.0277 69.9598 23.7469 70.4354 23.4662M76.5453 4.03895V1M76.5453 4.03895C77.3793 5.38488 78.0515 6.64456 78.5616 7.83001M76.5453 4.03895C80.4289 12.5646 77.6993 19.0486 70.4354 23.4662M76.5453 4.03895C81.2213 12.8105 79.4478 18.1459 70.4354 23.4662M76.5453 1C76.5453 1 73.3253 8.59738 72.109 10.6233M76.5453 1C75.955 4.04447 74.7429 6.3019 72.109 10.6233M76.5453 1C76.8193 2.26544 77.0359 3.14689 78.5616 7.83001M70.4674 13.6623C71.4804 11.1298 71.1968 12.1428 72.109 10.6233" stroke="white" stroke-width="0.2"/>
<path d="M69.4544 24.2986C76.1237 27.107 85.5264 29.1539 92.579 29.8237M69.4544 24.2986C75.4881 27.7562 84.7848 30.1406 92.579 29.8237M69.4544 24.2986C75.1405 28.7286 84.3283 31.3798 92.579 29.8237M69.4544 24.2986C75.0378 29.9646 84.3979 32.2296 92.579 29.8237M69.4544 24.2986C74.9557 31.2961 84.3028 33.61 92.579 29.8237M69.4544 24.2986C76.2553 26.5577 83.1911 27.3916 92.579 29.8237M69.4544 24.2986C76.0276 25.3858 82.9434 26.2168 92.579 29.8237M69.4544 24.2986C77.0848 24.4311 83.9658 25.2569 92.579 29.8237M69.4544 24.2986C69.4544 24.2986 77.1139 20.3524 82.4372 23.4964C87.7606 26.6405 95.6089 29.5892 95.6089 29.5892M69.4544 24.2986C69.4544 24.2986 79.9123 23.6918 82.5154 24.5064M69.4544 24.2986C73.7021 23.7983 78.5119 21.6763 82.5154 24.5064M69.4544 24.2986C74.7317 33.5622 81.8028 35.8821 88.9548 32.1264C93.5063 30.244 94.3684 29.96 95.6089 29.5892M69.4544 24.2986C69.7653 24.791 71.0751 25.9087 71.9869 26.8311M69.4544 24.2986C69.7746 24.7914 71.6703 26.3785 71.9869 26.8311M92.579 29.8237L95.6089 29.5892M92.579 29.8237C84.3784 34.3535 77.0518 32.909 71.9869 26.8311M92.579 29.8237C84.1944 35.1625 77.0518 34.4284 71.9869 26.8311M95.6089 29.5892C95.6089 29.5892 87.7857 26.965 85.6719 25.9087M95.6089 29.5892C92.528 29.2356 90.1837 28.2013 85.6719 25.9087M82.5154 24.5064C85.1185 25.321 84.0866 25.1164 85.6719 25.9087" stroke="white" stroke-width="0.2"/>
<path d="M49.1946 29.3635C59.3327 36.5332 65.6393 39.5539 80.5971 38.9868M49.1946 29.3635C60.6154 36.2655 67.5186 38.2699 80.5971 38.9868M49.1946 29.3635C60.7927 34.9802 67.6265 37.2038 80.5971 38.9868M49.1946 29.3635C60.9398 33.9942 67.7852 36.1523 80.5971 38.9868M49.1946 29.3635C61.2635 33.2743 68.1469 35.3761 80.5971 38.9868M49.1946 29.3635C61.7948 32.3216 68.6038 34.5871 80.5971 38.9868M49.1946 29.3635C61.6534 31.7364 68.548 33.6533 80.5971 38.9868M49.1946 29.3635C61.9552 30.8299 68.8357 32.9142 80.5971 38.9868M49.1946 29.3635C62.6521 30.0593 69.4297 32.4181 80.5971 38.9868M49.1946 29.3635C62.3004 29.3217 69.1966 31.3351 80.5971 38.9868M49.1946 29.3635C62.9832 28.274 69.7507 30.7244 80.5971 38.9868M49.1946 29.3635C61.6595 27.65 68.5842 28.424 80.5971 38.9868M49.1946 29.3635C62.9255 26.3578 69.9727 27.6737 80.5971 38.9868M49.1946 29.3635C59.3798 38.0834 66.0529 40.6739 80.5971 38.9868M49.1946 29.3635C58.781 39.4596 65.4121 42.1454 80.5971 38.9868" stroke="white" stroke-width="0.2"/>
<path d="M44.6365 29.8701C49.259 23.3051 52.5233 19.9056 60.3377 14.6753M44.6365 29.8701C47.9807 22.592 51.848 19.4721 60.3377 14.6753M44.6365 29.8701C62.3637 25.8181 53.7533 25.3116 60.3377 14.6753M44.6365 29.8701C46.7031 21.945 50.5121 18.8001 60.3377 14.6753M44.6365 29.8701C46.0512 21.1077 49.587 17.8391 60.3377 14.6753M44.6365 29.8701C45.4405 19.7222 49.6553 17.0097 60.3377 14.6753M44.6365 29.8701C50.2079 24.2986 52.9434 20.7532 60.3377 14.6753M44.6365 29.8701C60.8442 24.8051 53.2468 24.8051 60.3377 14.6753M44.6365 29.8701C61.8572 22.7792 50.7144 24.8051 60.3377 14.6753M44.6365 29.8701C60.3377 22.7792 49.7014 23.418 60.3377 14.6753M44.6365 29.8701C58.3118 21.7662 50.2079 22.2727 60.3377 14.6753M44.6365 29.8701C54.097 23.5906 50.2079 21.6758 60.3377 14.6753" stroke="white" stroke-width="0.2"/>
<path d="M9.71875 66V50.6387H10.8467V65.0332H19.6768V50.6387H20.8047V65.0332H22.792V70.082H21.6641V66H9.71875ZM30.9453 65.0332C32.4922 65.0332 33.2656 64.3171 33.2656 62.8848C33.2656 61.4525 32.3597 60.7363 30.5479 60.7363H28.8291V59.8662C31.6937 59.7588 33.126 58.9388 33.126 57.4062C33.126 56.2604 32.4886 55.6875 31.2139 55.6875H26.6162V65.0332H30.9453ZM25.4883 66V54.7207H31.2891C33.2799 54.7207 34.2754 55.6266 34.2754 57.4385C34.2754 58.6774 33.5736 59.5798 32.1699 60.1455C33.7025 60.5251 34.4688 61.4274 34.4688 62.8525C34.4688 64.9508 33.3337 66 31.0635 66H25.4883ZM41.8057 54.7207C44.8923 54.7207 46.4355 56.4287 46.4355 59.8447C46.4355 60.0882 46.4284 60.3424 46.4141 60.6074H37.8525C37.8525 63.5579 39.4137 65.0332 42.5361 65.0332C43.818 65.0332 44.9567 64.8542 45.9521 64.4961V65.4629C44.9567 65.821 43.818 66 42.5361 66C38.6618 66 36.7246 64.0771 36.7246 60.2314C36.7246 56.5576 38.4183 54.7207 41.8057 54.7207ZM37.8525 59.5977H45.3506C45.3076 56.9766 44.126 55.666 41.8057 55.666C39.2992 55.666 37.9814 56.9766 37.8525 59.5977ZM56.6943 54.7207V55.6875H52.7197V66H51.5918V55.6875H47.6172V54.7207H56.6943ZM57.7793 60.3604C57.7793 56.529 59.5697 54.6133 63.1504 54.6133C66.7311 54.6133 68.5215 56.529 68.5215 60.3604C68.5215 64.1917 66.7311 66.1074 63.1504 66.1074C59.584 66.1074 57.7936 64.1917 57.7793 60.3604ZM58.9072 60.3174C58.9072 63.5329 60.3216 65.1406 63.1504 65.1406C65.9792 65.1406 67.3936 63.5329 67.3936 60.3174C67.3936 57.1592 65.9792 55.5801 63.1504 55.5801C60.3216 55.5801 58.9072 57.1592 58.9072 60.3174ZM80.209 54.7207V66H79.0811V61.5527C78.0355 62.3691 76.7858 62.7773 75.332 62.7773C72.403 62.7773 70.9385 61.3057 70.9385 58.3623V54.7207H72.0664V58.3945C72.0664 60.6432 73.1729 61.7676 75.3857 61.7676C76.9541 61.7676 78.1859 61.2913 79.0811 60.3389V54.7207H80.209ZM83.4316 66V54.7207H84.5596V59.7695H91.3809V54.7207H92.5088V66H91.3809V60.7363H84.5596V66H83.4316ZM106.753 66V54.7207H108.096V66H106.753ZM96.8701 54.7207V65.001H101.253C103.029 65.001 103.917 64.181 103.917 62.541C103.917 61.1302 103.015 60.4248 101.21 60.4248H98.3311V59.458H101.199C103.777 59.458 105.066 60.5179 105.066 62.6377C105.066 64.8792 103.82 66 101.328 66H95.7422V54.7207H96.8701ZM119.375 66V56.2031L112.446 66H111.318V54.7207H112.339V64.5176L119.268 54.7207H120.396V66H119.375ZM113.123 50.6387H114.036C114.036 51.9277 114.645 52.5723 115.862 52.5723C117.08 52.5723 117.688 51.9277 117.688 50.6387H118.602C118.602 52.5007 117.688 53.4316 115.862 53.4316C114.036 53.4316 113.123 52.5007 113.123 50.6387Z" fill="white"/>
<path d="M27.3657 77.9229C27.089 78.8415 26.7847 79.7131 26.4526 80.5376C26.1206 81.3621 25.8052 82.0926 25.5063 82.729C25.1632 83.4705 24.8174 84.1567 24.4688 84.7876C24.1865 85.2856 23.9486 85.7201 23.7549 86.0908C23.5667 86.4616 23.4146 86.7798 23.2983 87.0454C23.1821 87.3055 23.0991 87.5241 23.0493 87.7012C22.9995 87.8727 22.9746 88.0138 22.9746 88.1245C22.9746 88.2407 22.9995 88.3293 23.0493 88.3901C23.0991 88.4565 23.1572 88.5063 23.2236 88.5396C23.2956 88.5728 23.3647 88.5921 23.4312 88.5977C23.5031 88.6087 23.5612 88.6143 23.6055 88.6143C23.7992 88.6143 24.0288 88.5589 24.2944 88.4482C24.5656 88.3431 24.8561 88.1937 25.166 88C25.4814 87.8008 25.8107 87.5628 26.1538 87.2861C26.4969 87.0039 26.8372 86.6885 27.1748 86.3398C27.5124 85.9912 27.8389 85.6149 28.1543 85.2109C28.4753 84.8014 28.7686 84.3698 29.0342 83.916C29.4603 83.1745 29.8006 82.4883 30.0552 81.8574C29.8947 81.542 29.7757 81.2183 29.6982 80.8862C29.6208 80.5487 29.582 80.2305 29.582 79.9316C29.582 79.5 29.6484 79.1541 29.7812 78.894C29.9196 78.634 30.1105 78.5039 30.354 78.5039C30.4868 78.5039 30.5975 78.5371 30.686 78.6035C30.7801 78.6699 30.8548 78.7557 30.9102 78.8608C30.9655 78.966 31.0042 79.0822 31.0264 79.2095C31.054 79.3312 31.0679 79.453 31.0679 79.5747C31.0679 79.8348 31.0291 80.1336 30.9517 80.4712C30.8797 80.8088 30.7718 81.174 30.6279 81.5669C30.4896 81.9543 30.318 82.3665 30.1133 82.8037C29.9085 83.2354 29.6733 83.6781 29.4077 84.1318C29.1421 84.5856 28.846 85.0228 28.5195 85.4434C28.1986 85.8584 27.861 86.2485 27.5068 86.6138C27.1582 86.979 26.8013 87.3138 26.436 87.6182C26.0763 87.917 25.7249 88.1715 25.3818 88.3818C25.0443 88.5977 24.7205 88.7637 24.4106 88.8799C24.1063 89.0016 23.8379 89.0625 23.6055 89.0625C23.1683 89.0625 22.8252 88.9629 22.5762 88.7637C22.3271 88.5645 22.2026 88.2463 22.2026 87.8091C22.2026 87.5711 22.2331 87.3332 22.2939 87.0952C22.3604 86.8573 22.4544 86.5999 22.5762 86.3232C22.7035 86.0465 22.8584 85.745 23.041 85.4185C23.2236 85.0864 23.4339 84.7129 23.6719 84.2979C23.1185 85.0339 22.5208 85.7477 21.8789 86.4395C21.2425 87.1257 20.5618 87.7399 19.8369 88.2822C19.5104 88.5257 19.2116 88.7277 18.9404 88.8882C18.6693 89.0542 18.4202 89.187 18.1934 89.2866C17.972 89.3862 17.77 89.4554 17.5874 89.4941C17.4048 89.5384 17.2388 89.5605 17.0894 89.5605C16.8735 89.5605 16.6854 89.5301 16.5249 89.4692C16.37 89.4084 16.2399 89.3254 16.1348 89.2202C16.0352 89.1206 15.9604 88.9989 15.9106 88.855C15.8664 88.7166 15.8442 88.5645 15.8442 88.3984C15.8442 88.1217 15.8857 87.8589 15.9688 87.6099C16.0518 87.3608 16.1735 87.1063 16.334 86.8462C16.5166 86.5584 16.7324 86.2402 16.9814 85.8916C17.236 85.543 17.4989 85.1777 17.77 84.7959C18.0467 84.4141 18.3179 84.0239 18.5835 83.6255C18.8547 83.2271 19.0954 82.8314 19.3057 82.4385C19.5215 82.0456 19.693 81.6637 19.8203 81.293C19.9531 80.9222 20.0195 80.5736 20.0195 80.2471C20.0195 79.7324 19.9172 79.262 19.7124 78.8359C19.5132 78.4098 19.2254 78.0446 18.8491 77.7402C18.4728 77.4359 18.0163 77.2007 17.4795 77.0347C16.9482 76.8687 16.3506 76.7856 15.6865 76.7856C14.7734 76.7856 13.9351 76.9185 13.1714 77.1841C12.4077 77.4497 11.7492 77.8177 11.1958 78.2881C10.6479 78.7529 10.2191 79.3035 9.90918 79.9399C9.60482 80.5708 9.45264 81.2515 9.45264 81.9819C9.45264 82.4302 9.52181 82.8397 9.66016 83.2104C9.80404 83.5757 10.0033 83.8911 10.2578 84.1567C10.5179 84.4224 10.8306 84.6299 11.1958 84.7793C11.5666 84.9232 11.9788 84.9951 12.4326 84.9951C12.9583 84.9951 13.4453 84.9038 13.8936 84.7212C14.3418 84.533 14.7485 84.2785 15.1138 83.9575C15.4845 83.6366 15.8138 83.2603 16.1016 82.8286C16.3893 82.3914 16.6328 81.9238 16.832 81.4258L17.2056 81.5586C16.6688 82.8923 15.9577 83.9022 15.0723 84.5884C14.1868 85.269 13.1354 85.6094 11.918 85.6094C11.4033 85.6094 10.9357 85.5236 10.5151 85.3521C10.0946 85.175 9.73486 84.9315 9.43604 84.6216C9.13721 84.3062 8.90479 83.9326 8.73877 83.501C8.57829 83.0638 8.49805 82.5851 8.49805 82.0649C8.49805 81.3621 8.61426 80.7313 8.84668 80.1724C9.0791 79.6134 9.38623 79.1237 9.76807 78.7031C10.1554 78.277 10.5926 77.9146 11.0796 77.6157C11.5721 77.3169 12.0757 77.0734 12.5903 76.8853C13.105 76.6971 13.6086 76.5615 14.1011 76.4785C14.5936 76.39 15.0363 76.3457 15.4292 76.3457C16.1707 76.3457 16.8569 76.437 17.4878 76.6196C18.1187 76.7967 18.6637 77.0651 19.123 77.4248C19.5879 77.779 19.9504 78.2189 20.2104 78.7446C20.4705 79.2703 20.6006 79.8791 20.6006 80.5708C20.6006 81.0744 20.5037 81.6333 20.3101 82.2476C20.1219 82.8563 19.7926 83.512 19.3223 84.2148C18.8906 84.8623 18.4977 85.424 18.1436 85.8999C17.7894 86.3758 17.485 86.7881 17.2305 87.1367C16.9814 87.4798 16.7878 87.7676 16.6494 88C16.5111 88.2324 16.4419 88.4261 16.4419 88.5811C16.4419 88.7415 16.5 88.8716 16.6162 88.9712C16.7324 89.0708 16.8929 89.1206 17.0977 89.1206C17.391 89.1206 17.7451 89.021 18.1602 88.8218C18.5807 88.6226 19.0511 88.3293 19.5713 87.9419C20.0859 87.5601 20.5757 87.1395 21.0405 86.6802C21.5109 86.2209 21.9536 85.745 22.3687 85.2524C22.7892 84.7544 23.1849 84.248 23.5557 83.7334C23.9264 83.2188 24.2695 82.7152 24.585 82.2227C24.9004 81.7246 25.1882 81.2459 25.4482 80.7866C25.7083 80.3218 25.938 79.8957 26.1372 79.5083C26.3364 79.1154 26.5052 78.7695 26.6436 78.4707C26.7819 78.1663 26.887 77.9284 26.959 77.7568L27.3657 77.9229ZM30.2793 81.2847C30.4066 80.9305 30.4979 80.6095 30.5532 80.3218C30.6086 80.034 30.6362 79.7878 30.6362 79.583C30.6362 79.5443 30.6335 79.4889 30.6279 79.417C30.6279 79.3395 30.6169 79.2676 30.5947 79.2012C30.5781 79.1292 30.5505 79.0684 30.5117 79.0186C30.473 78.9632 30.4204 78.9355 30.354 78.9355C30.2599 78.9355 30.1797 79.0296 30.1133 79.2178C30.0524 79.4059 30.022 79.6356 30.022 79.9067C30.022 80.1115 30.0413 80.3328 30.0801 80.5708C30.1188 80.8032 30.1852 81.0412 30.2793 81.2847ZM35.5088 85.7422C35.5309 85.7477 35.5531 85.7505 35.5752 85.7505C35.5973 85.7505 35.6222 85.7505 35.6499 85.7505C35.8049 85.7505 35.946 85.7367 36.0732 85.709C36.2005 85.6758 36.3167 85.626 36.4219 85.5596C36.5326 85.4932 36.6377 85.4074 36.7373 85.3022C36.8369 85.1916 36.9338 85.0588 37.0278 84.9038L37.3267 85.1362C37.061 85.5125 36.7871 85.7754 36.5049 85.9248C36.2227 86.0742 35.9238 86.1489 35.6084 86.1489C35.4922 86.1489 35.3898 86.1379 35.3013 86.1157C35.0633 86.5142 34.8088 86.8545 34.5376 87.1367C34.2664 87.4134 33.9897 87.6403 33.7075 87.8174C33.4253 87.9945 33.1458 88.1217 32.8691 88.1992C32.5924 88.2822 32.3351 88.3237 32.0972 88.3237C31.8537 88.3237 31.6268 88.2795 31.4165 88.1909C31.2118 88.1079 31.0347 87.9862 30.8853 87.8257C30.7358 87.6652 30.6196 87.4743 30.5366 87.2529C30.4536 87.0316 30.4121 86.7826 30.4121 86.5059C30.4121 86.2292 30.4564 85.9469 30.5449 85.6592C30.6335 85.3714 30.7524 85.0864 30.9019 84.8042C31.0568 84.522 31.2367 84.2508 31.4414 83.9907C31.6462 83.7251 31.8675 83.4788 32.1055 83.252C32.3434 83.0251 32.5897 82.8203 32.8442 82.6377C33.0988 82.4551 33.3534 82.3057 33.6079 82.1895L33.8735 82.5381C33.5802 82.7484 33.2814 83.014 32.9771 83.335C32.6782 83.6559 32.4043 84.0073 32.1553 84.3892C31.9118 84.771 31.7098 85.1694 31.5493 85.5845C31.3944 85.994 31.3169 86.3924 31.3169 86.7798C31.3169 87.1284 31.3944 87.3996 31.5493 87.5933C31.7043 87.7814 31.9395 87.8755 32.2549 87.8755C32.4984 87.8755 32.7391 87.8257 32.9771 87.7261C33.215 87.6265 33.4474 87.4909 33.6743 87.3193C33.9012 87.1478 34.1198 86.9458 34.3301 86.7134C34.5404 86.4754 34.7396 86.2236 34.9277 85.958C34.7673 85.8639 34.6261 85.7394 34.5044 85.5845C34.3826 85.424 34.2803 85.2441 34.1973 85.0449C34.1143 84.8402 34.0506 84.6216 34.0063 84.3892C33.9676 84.1567 33.9482 83.9188 33.9482 83.6753C33.9482 83.4318 33.9787 83.2021 34.0396 82.9863C34.1004 82.7705 34.1834 82.5824 34.2886 82.4219C34.3993 82.2559 34.5265 82.1258 34.6704 82.0317C34.8143 81.9377 34.972 81.8906 35.1436 81.8906C35.2985 81.8906 35.4368 81.9321 35.5586 82.0151C35.6803 82.0926 35.7827 82.2033 35.8657 82.3472C35.9487 82.4855 36.0124 82.6515 36.0566 82.8452C36.1009 83.0389 36.123 83.2464 36.123 83.4678C36.123 83.6338 36.1092 83.8164 36.0815 84.0156C36.0539 84.2148 36.0124 84.4168 35.957 84.6216C35.9072 84.8208 35.8436 85.02 35.7661 85.2192C35.6942 85.4129 35.6084 85.5872 35.5088 85.7422ZM34.3799 83.6753C34.3799 83.8358 34.3937 84.0101 34.4214 84.1982C34.4491 84.3864 34.4933 84.569 34.5542 84.7461C34.6151 84.9232 34.6925 85.0892 34.7866 85.2441C34.8807 85.3936 34.9969 85.5125 35.1353 85.6011C35.2349 85.4074 35.3179 85.2109 35.3843 85.0117C35.4562 84.807 35.5143 84.6105 35.5586 84.4224C35.6084 84.2342 35.6416 84.0599 35.6582 83.8994C35.6803 83.7334 35.6914 83.5895 35.6914 83.4678C35.6914 83.3018 35.6776 83.1496 35.6499 83.0112C35.6222 82.8729 35.5835 82.7539 35.5337 82.6543C35.4894 82.5492 35.4313 82.4689 35.3594 82.4136C35.293 82.3527 35.2183 82.3223 35.1353 82.3223C35.0246 82.3223 34.9222 82.361 34.8281 82.4385C34.734 82.5104 34.6538 82.61 34.5874 82.7373C34.521 82.859 34.4684 83.0029 34.4297 83.1689C34.3965 83.3294 34.3799 83.4982 34.3799 83.6753ZM43.0459 75.9224C43.2396 75.9224 43.4001 75.9694 43.5273 76.0635C43.6602 76.1576 43.7266 76.3291 43.7266 76.5781C43.7266 76.7497 43.6906 76.9544 43.6187 77.1924C43.5522 77.4303 43.4582 77.6904 43.3364 77.9727C43.2202 78.2493 43.0819 78.5426 42.9214 78.8525C42.7609 79.1569 42.5866 79.4613 42.3984 79.7656C42.2158 80.07 42.0221 80.366 41.8174 80.6538C41.6182 80.9416 41.4189 81.2072 41.2197 81.4507C40.8213 81.9432 40.4754 82.3582 40.1821 82.6958C39.8944 83.0334 39.6453 83.3211 39.4351 83.5591C39.2248 83.7915 39.0477 83.9824 38.9038 84.1318C38.7599 84.2757 38.6326 84.4002 38.522 84.5054C38.4113 84.6105 38.3089 84.7074 38.2148 84.7959C38.1208 84.8789 38.0239 84.973 37.9243 85.0781C37.88 85.2884 37.8579 85.4904 37.8579 85.6841C37.8634 85.8722 37.8662 86.0465 37.8662 86.207C37.8662 86.6885 37.9437 87.0454 38.0986 87.2778C38.2536 87.5103 38.4722 87.6265 38.7544 87.6265C38.9425 87.6265 39.1307 87.5794 39.3188 87.4854C39.5125 87.3857 39.7035 87.2585 39.8916 87.1035C40.0798 86.9486 40.2624 86.7743 40.4395 86.5806C40.6165 86.3813 40.7826 86.1821 40.9375 85.9829C41.098 85.7782 41.2419 85.5817 41.3691 85.3936C41.4964 85.2054 41.6071 85.0422 41.7012 84.9038L42.0083 85.1362C41.9917 85.1584 41.9364 85.2469 41.8423 85.4019C41.7537 85.5513 41.6348 85.7339 41.4854 85.9497C41.3359 86.1655 41.1589 86.3979 40.9541 86.647C40.7493 86.8905 40.528 87.1174 40.29 87.3276C40.0521 87.5379 39.8003 87.7122 39.5347 87.8506C39.2746 87.9889 39.009 88.0581 38.7378 88.0581C38.5109 88.0581 38.2923 88.0166 38.082 87.9336C37.8773 87.8451 37.6947 87.7095 37.5342 87.5269C37.3792 87.3387 37.252 87.1007 37.1523 86.813C37.0583 86.5252 37.0112 86.1794 37.0112 85.7754C37.0112 85.2718 37.0693 84.7461 37.1855 84.1982C37.3073 83.6449 37.4705 83.0915 37.6753 82.5381C37.88 81.9792 38.1208 81.4285 38.3975 80.8862C38.6742 80.3439 38.9674 79.8293 39.2773 79.3423C39.5928 78.8498 39.9193 78.396 40.2568 77.981C40.5999 77.5604 40.9347 77.1979 41.2612 76.8936C41.5933 76.5892 41.9115 76.3512 42.2158 76.1797C42.5202 76.0081 42.7969 75.9224 43.0459 75.9224ZM38.0737 84.3394C38.5441 83.8524 38.9979 83.3599 39.4351 82.8618C39.8778 82.3582 40.29 81.863 40.6719 81.376C41.0592 80.8835 41.4134 80.4076 41.7344 79.9482C42.0553 79.4834 42.3293 79.0462 42.5562 78.6367C42.783 78.2272 42.9601 77.8537 43.0874 77.5161C43.2147 77.1785 43.2783 76.888 43.2783 76.6445C43.2783 76.6003 43.2562 76.5422 43.2119 76.4702C43.1676 76.3927 43.1151 76.354 43.0542 76.354C42.8826 76.354 42.6558 76.4674 42.3735 76.6943C42.0913 76.9212 41.7842 77.2311 41.4521 77.624C41.1257 78.0114 40.7853 78.4652 40.4312 78.9854C40.0825 79.5055 39.7533 80.0617 39.4434 80.6538C39.1335 81.2459 38.8568 81.8574 38.6133 82.4883C38.3698 83.1191 38.1899 83.7362 38.0737 84.3394ZM46.939 85.1362C46.856 85.258 46.7563 85.424 46.6401 85.6343C46.5295 85.839 46.3994 86.0632 46.25 86.3066C46.1006 86.5446 45.9346 86.7881 45.752 87.0371C45.5749 87.2861 45.3784 87.5103 45.1626 87.7095C44.9523 87.9087 44.7227 88.0719 44.4736 88.1992C44.2246 88.3265 43.959 88.3901 43.6768 88.3901C43.5218 88.3901 43.3752 88.3652 43.2368 88.3154C43.0985 88.2712 42.9767 88.1992 42.8716 88.0996C42.7664 88 42.6834 87.8783 42.6226 87.7344C42.5617 87.585 42.5312 87.4106 42.5312 87.2114C42.5312 86.9403 42.5838 86.658 42.689 86.3647C42.7996 86.0659 42.9269 85.7782 43.0708 85.5015C43.2147 85.2248 43.3586 84.973 43.5024 84.7461C43.6463 84.5137 43.7515 84.3283 43.8179 84.1899C43.8843 84.0516 43.9175 83.9326 43.9175 83.833C43.9175 83.7611 43.8926 83.6974 43.8428 83.6421C43.7985 83.5868 43.7404 83.5342 43.6685 83.4844C43.6021 83.429 43.5301 83.3737 43.4526 83.3184C43.3807 83.2575 43.3198 83.1855 43.27 83.1025C43.1317 83.3239 42.9906 83.548 42.8467 83.7749C42.7194 83.9686 42.5811 84.1872 42.4316 84.4307C42.2822 84.6686 42.1383 84.9038 42 85.1362L41.7012 84.9038L43.4775 82.123L43.7183 82.2476C43.7072 82.2808 43.6878 82.3333 43.6602 82.4053C43.638 82.4772 43.627 82.5547 43.627 82.6377C43.627 82.6986 43.6353 82.7594 43.6519 82.8203C43.674 82.8757 43.7155 82.9282 43.7764 82.978C43.9977 83.1772 44.172 83.3322 44.2993 83.4429C44.4266 83.548 44.5179 83.6338 44.5732 83.7002C44.6341 83.7611 44.6701 83.8136 44.6812 83.8579C44.6978 83.8966 44.7061 83.9492 44.7061 84.0156C44.7061 84.082 44.695 84.1623 44.6729 84.2563C44.6507 84.3504 44.612 84.4639 44.5566 84.5967C44.5068 84.7295 44.4349 84.8872 44.3408 85.0698C44.2523 85.2469 44.1388 85.4544 44.0005 85.6924C43.9175 85.8363 43.8345 85.9829 43.7515 86.1323C43.674 86.2762 43.6021 86.4229 43.5356 86.5723C43.4748 86.7217 43.425 86.8711 43.3862 87.0205C43.3475 87.1699 43.3281 87.3138 43.3281 87.4521C43.3281 87.5573 43.342 87.6431 43.3696 87.7095C43.4028 87.7703 43.4443 87.8174 43.4941 87.8506C43.5439 87.8838 43.5965 87.9059 43.6519 87.917C43.7127 87.9281 43.7708 87.9336 43.8262 87.9336C44.0088 87.9336 44.1886 87.881 44.3657 87.7759C44.5483 87.6652 44.7254 87.5241 44.897 87.3525C45.0741 87.181 45.2428 86.9873 45.4033 86.7715C45.5693 86.5501 45.7271 86.326 45.8765 86.0991C46.0259 85.8722 46.1642 85.6564 46.2915 85.4517C46.4188 85.2414 46.5322 85.0588 46.6318 84.9038L46.939 85.1362ZM55.8872 77.0928C55.8263 77.1813 55.7267 77.328 55.5884 77.5327C55.45 77.7375 55.2896 77.981 55.1069 78.2632C54.9243 78.5454 54.7251 78.8581 54.5093 79.2012C54.299 79.5443 54.0859 79.8984 53.8701 80.2637C53.6598 80.6289 53.4523 80.9997 53.2476 81.376C53.0483 81.7467 52.8713 82.1037 52.7163 82.4468C52.4728 82.978 52.2708 83.4539 52.1104 83.8745C51.9554 84.2896 51.8309 84.6603 51.7368 84.9868C51.6483 85.3133 51.5846 85.5983 51.5459 85.8418C51.5127 86.0798 51.4961 86.2845 51.4961 86.4561C51.4961 86.7715 51.5431 86.9901 51.6372 87.1118C51.7368 87.2336 51.8696 87.2944 52.0356 87.2944C52.2072 87.2944 52.3704 87.2502 52.5254 87.1616C52.6859 87.0731 52.8381 86.9596 52.9819 86.8213C53.1313 86.6829 53.2697 86.5252 53.397 86.3481C53.5298 86.1711 53.6515 85.994 53.7622 85.8169C53.8784 85.6398 53.9836 85.471 54.0776 85.3105C54.1717 85.1501 54.2547 85.0145 54.3267 84.9038L54.6255 85.1362C54.5646 85.2358 54.4871 85.3687 54.3931 85.5347C54.3045 85.6951 54.2021 85.8722 54.0859 86.0659C53.9697 86.2596 53.8369 86.4561 53.6875 86.6553C53.5381 86.849 53.3721 87.026 53.1895 87.1865C53.0124 87.347 52.8132 87.4798 52.5918 87.585C52.376 87.6846 52.1408 87.7344 51.8862 87.7344C51.7645 87.7344 51.6344 87.7178 51.4961 87.6846C51.3633 87.6514 51.2388 87.5933 51.1226 87.5103C51.0063 87.4272 50.904 87.3138 50.8154 87.1699C50.7269 87.0205 50.6688 86.8324 50.6411 86.6055C50.2261 87.0537 49.8221 87.394 49.4292 87.6265C49.0363 87.8534 48.6655 87.9668 48.3169 87.9668C48.1398 87.9668 47.9434 87.9364 47.7275 87.8755C47.5173 87.8146 47.318 87.7095 47.1299 87.5601C46.9417 87.4106 46.784 87.2142 46.6567 86.9707C46.5295 86.7217 46.4658 86.4146 46.4658 86.0493C46.4658 85.6398 46.5295 85.2497 46.6567 84.8789C46.784 84.5081 46.9556 84.165 47.1714 83.8496C47.3872 83.5286 47.6335 83.2409 47.9102 82.9863C48.1924 82.7262 48.4857 82.5076 48.79 82.3306C49.0944 82.1479 49.3988 82.0068 49.7031 81.9072C50.013 81.8076 50.3035 81.7578 50.5747 81.7578C50.9344 81.7578 51.2166 81.8021 51.4214 81.8906C51.6261 81.9792 51.7811 82.0677 51.8862 82.1562C51.9637 82.0013 52.0688 81.8049 52.2017 81.5669C52.3345 81.3234 52.4894 81.055 52.6665 80.7617C52.8436 80.4629 53.04 80.1475 53.2559 79.8154C53.4717 79.4779 53.7013 79.1403 53.9448 78.8027C54.1883 78.4596 54.4429 78.1221 54.7085 77.79C54.9797 77.458 55.2536 77.1481 55.5303 76.8604L55.8872 77.0928ZM50.6328 85.9829C50.6605 85.5734 50.7546 85.092 50.915 84.5386C51.0811 83.9797 51.3328 83.3377 51.6704 82.6128C51.5929 82.4966 51.4823 82.408 51.3384 82.3472C51.2 82.2808 51.0423 82.2476 50.8652 82.2476C50.5941 82.2476 50.3174 82.3029 50.0352 82.4136C49.7585 82.5243 49.4901 82.6737 49.23 82.8618C48.9754 83.05 48.7347 83.2741 48.5078 83.5342C48.2809 83.7887 48.0817 84.0627 47.9102 84.356C47.7441 84.6493 47.6113 84.9564 47.5117 85.2773C47.4176 85.5928 47.3706 85.9054 47.3706 86.2153C47.3706 86.6304 47.4564 86.9541 47.6279 87.1865C47.805 87.4189 48.0402 87.5352 48.3335 87.5352C48.4718 87.5352 48.624 87.5075 48.79 87.4521C48.9561 87.3968 49.1359 87.3083 49.3296 87.1865C49.5288 87.0592 49.7363 86.8988 49.9521 86.7051C50.168 86.5059 50.3949 86.2651 50.6328 85.9829ZM63.9971 85.7422C64.0192 85.7477 64.0413 85.7505 64.0635 85.7505C64.0856 85.7505 64.1105 85.7505 64.1382 85.7505C64.2931 85.7505 64.4342 85.7367 64.5615 85.709C64.6888 85.6758 64.805 85.626 64.9102 85.5596C65.0208 85.4932 65.126 85.4074 65.2256 85.3022C65.3252 85.1916 65.422 85.0588 65.5161 84.9038L65.8149 85.1362C65.5493 85.5125 65.2754 85.7754 64.9932 85.9248C64.7109 86.0742 64.4121 86.1489 64.0967 86.1489C63.9805 86.1489 63.8781 86.1379 63.7896 86.1157C63.5516 86.5142 63.297 86.8545 63.0259 87.1367C62.7547 87.4134 62.478 87.6403 62.1958 87.8174C61.9136 87.9945 61.6341 88.1217 61.3574 88.1992C61.0807 88.2822 60.8234 88.3237 60.5854 88.3237C60.342 88.3237 60.1151 88.2795 59.9048 88.1909C59.7 88.1079 59.5229 87.9862 59.3735 87.8257C59.2241 87.6652 59.1079 87.4743 59.0249 87.2529C58.9419 87.0316 58.9004 86.7826 58.9004 86.5059C58.9004 86.2292 58.9447 85.9469 59.0332 85.6592C59.1217 85.3714 59.2407 85.0864 59.3901 84.8042C59.5451 84.522 59.7249 84.2508 59.9297 83.9907C60.1344 83.7251 60.3558 83.4788 60.5938 83.252C60.8317 83.0251 61.078 82.8203 61.3325 82.6377C61.5871 82.4551 61.8416 82.3057 62.0962 82.1895L62.3618 82.5381C62.0685 82.7484 61.7697 83.014 61.4653 83.335C61.1665 83.6559 60.8926 84.0073 60.6436 84.3892C60.4001 84.771 60.1981 85.1694 60.0376 85.5845C59.8826 85.994 59.8052 86.3924 59.8052 86.7798C59.8052 87.1284 59.8826 87.3996 60.0376 87.5933C60.1925 87.7814 60.4277 87.8755 60.7432 87.8755C60.9867 87.8755 61.2274 87.8257 61.4653 87.7261C61.7033 87.6265 61.9357 87.4909 62.1626 87.3193C62.3895 87.1478 62.6081 86.9458 62.8184 86.7134C63.0286 86.4754 63.2279 86.2236 63.416 85.958C63.2555 85.8639 63.1144 85.7394 62.9927 85.5845C62.8709 85.424 62.7686 85.2441 62.6855 85.0449C62.6025 84.8402 62.5389 84.6216 62.4946 84.3892C62.4559 84.1567 62.4365 83.9188 62.4365 83.6753C62.4365 83.4318 62.467 83.2021 62.5278 82.9863C62.5887 82.7705 62.6717 82.5824 62.7769 82.4219C62.8875 82.2559 63.0148 82.1258 63.1587 82.0317C63.3026 81.9377 63.4603 81.8906 63.6318 81.8906C63.7868 81.8906 63.9251 81.9321 64.0469 82.0151C64.1686 82.0926 64.271 82.2033 64.354 82.3472C64.437 82.4855 64.5007 82.6515 64.5449 82.8452C64.5892 83.0389 64.6113 83.2464 64.6113 83.4678C64.6113 83.6338 64.5975 83.8164 64.5698 84.0156C64.5422 84.2148 64.5007 84.4168 64.4453 84.6216C64.3955 84.8208 64.3319 85.02 64.2544 85.2192C64.1825 85.4129 64.0967 85.5872 63.9971 85.7422ZM62.8682 83.6753C62.8682 83.8358 62.882 84.0101 62.9097 84.1982C62.9373 84.3864 62.9816 84.569 63.0425 84.7461C63.1034 84.9232 63.1808 85.0892 63.2749 85.2441C63.369 85.3936 63.4852 85.5125 63.6235 85.6011C63.7231 85.4074 63.8062 85.2109 63.8726 85.0117C63.9445 84.807 64.0026 84.6105 64.0469 84.4224C64.0967 84.2342 64.1299 84.0599 64.1465 83.8994C64.1686 83.7334 64.1797 83.5895 64.1797 83.4678C64.1797 83.3018 64.1659 83.1496 64.1382 83.0112C64.1105 82.8729 64.0718 82.7539 64.022 82.6543C63.9777 82.5492 63.9196 82.4689 63.8477 82.4136C63.7812 82.3527 63.7065 82.3223 63.6235 82.3223C63.5129 82.3223 63.4105 82.361 63.3164 82.4385C63.2223 82.5104 63.1421 82.61 63.0757 82.7373C63.0093 82.859 62.9567 83.0029 62.918 83.1689C62.8848 83.3294 62.8682 83.4982 62.8682 83.6753ZM65.6157 87.4106C65.7928 87.549 66.028 87.6182 66.3213 87.6182C66.6367 87.6182 66.9328 87.5684 67.2095 87.4688C67.4917 87.3691 67.7546 87.2391 67.998 87.0786C68.2415 86.9126 68.4657 86.73 68.6704 86.5308C68.8752 86.3315 69.0578 86.1323 69.2183 85.9331C69.3843 85.7284 69.5282 85.5374 69.6499 85.3604C69.7772 85.1777 69.8796 85.0256 69.957 84.9038H70.4219C70.3444 85.0366 70.2365 85.2082 70.0981 85.4185C69.9653 85.6232 69.8049 85.8418 69.6167 86.0742C69.4341 86.3066 69.2266 86.5418 68.9941 86.7798C68.7617 87.0122 68.5044 87.2225 68.2222 87.4106C67.9455 87.5988 67.6494 87.7537 67.334 87.8755C67.0186 87.9917 66.6838 88.0498 66.3296 88.0498C66.1746 88.0498 66.0225 88.0332 65.873 88C65.7292 87.9613 65.5881 87.9032 65.4497 87.8257C65.2671 88.2739 65.09 88.7139 64.9185 89.1455C64.7414 89.5771 64.5754 89.9867 64.4204 90.374C64.2599 90.7614 64.1133 91.1183 63.9805 91.4448C63.8477 91.7713 63.7314 92.0535 63.6318 92.2915C63.5322 92.535 63.4548 92.7259 63.3994 92.8643C63.3441 93.0081 63.3136 93.0828 63.3081 93.0884L62.4365 92.6567C62.7188 91.9927 62.9733 91.384 63.2002 90.8306C63.4215 90.2772 63.6291 89.7598 63.8228 89.2783C64.0109 88.7969 64.1908 88.3459 64.3623 87.9253C64.5283 87.4992 64.6971 87.0869 64.8687 86.6885C64.7801 86.5612 64.7165 86.4367 64.6777 86.3149C64.6335 86.1932 64.6058 86.0936 64.5947 86.0161C64.5837 85.8888 64.6196 85.7837 64.7026 85.7007C64.7801 85.6121 64.8825 85.5679 65.0098 85.5679C65.1149 85.5679 65.2118 85.6038 65.3003 85.6758C65.4663 85.2773 65.613 84.9287 65.7402 84.6299C65.873 84.3255 65.9837 84.071 66.0723 83.8662C66.1719 83.6283 66.2604 83.4207 66.3379 83.2437C66.8193 82.1092 67.2648 81.1297 67.6743 80.3052C68.0894 79.4751 68.4712 78.7723 68.8198 78.1968C69.1685 77.6157 69.4867 77.1481 69.7744 76.7939C70.0622 76.4342 70.3223 76.1548 70.5547 75.9556C70.7926 75.7563 71.0057 75.6235 71.1938 75.5571C71.382 75.4852 71.5508 75.4492 71.7002 75.4492C71.9437 75.4492 72.1484 75.5046 72.3145 75.6152C72.486 75.7204 72.5828 75.903 72.605 76.1631C72.6271 76.4176 72.5801 76.7386 72.4639 77.126C72.3532 77.5133 72.1982 77.9256 71.999 78.3628C71.8053 78.7944 71.5785 79.2316 71.3184 79.6743C71.0583 80.117 70.7926 80.5238 70.5215 80.8945C70.0068 81.5918 69.5392 82.1701 69.1187 82.6294C68.7036 83.0887 68.3384 83.4595 68.0229 83.7417C67.7075 84.0239 67.4447 84.2342 67.2344 84.3726C67.0241 84.5054 66.8691 84.5967 66.7695 84.6465L65.6157 87.4106ZM72.0903 76.2876C72.0848 76.1935 72.0627 76.1133 72.0239 76.0469C71.9907 75.9749 71.9188 75.939 71.8081 75.939C71.7417 75.939 71.6559 75.9556 71.5508 75.9888C71.4456 76.0164 71.3211 76.0801 71.1772 76.1797C71.0389 76.2793 70.8812 76.4259 70.7041 76.6196C70.527 76.8133 70.3278 77.0734 70.1064 77.3999C69.8906 77.7264 69.6527 78.1304 69.3926 78.6118C69.138 79.0933 68.8641 79.6743 68.5708 80.355C68.3771 80.7866 68.153 81.3123 67.8984 81.9321C67.6439 82.5464 67.3644 83.2132 67.0601 83.9326C67.3201 83.75 67.5913 83.5231 67.8735 83.252C68.1613 82.9753 68.4491 82.6737 68.7368 82.3472C69.0301 82.0151 69.3179 81.6637 69.6001 81.293C69.8823 80.9222 70.1507 80.5459 70.4053 80.1641C70.6598 79.7822 70.8923 79.4032 71.1025 79.0269C71.3184 78.6506 71.501 78.2936 71.6504 77.9561C71.8053 77.613 71.9215 77.3003 71.999 77.0181C72.0765 76.7303 72.1069 76.4868 72.0903 76.2876ZM88.7583 78.1719C88.7528 78.1719 88.6504 78.2715 88.4512 78.4707C88.252 78.6644 87.9863 78.9632 87.6543 79.3672C87.3223 79.7656 86.9377 80.272 86.5005 80.8862C86.0688 81.495 85.6151 82.2144 85.1392 83.0444L84.8154 83.6089C84.998 83.5646 85.1834 83.5231 85.3716 83.4844C85.5597 83.4456 85.7507 83.4097 85.9443 83.3765L86.3179 83.3018C86.495 82.9808 86.6554 82.7179 86.7993 82.5132C86.9487 82.3084 87.0843 82.1479 87.2061 82.0317C87.3333 81.91 87.4495 81.827 87.5547 81.7827C87.6598 81.7384 87.7539 81.7163 87.8369 81.7163C87.9421 81.7163 88.0444 81.7523 88.144 81.8242C88.2437 81.8962 88.2935 82.0262 88.2935 82.2144C88.2935 82.3638 88.2575 82.5076 88.1855 82.646C88.1136 82.7843 88.0112 82.9144 87.8784 83.0361C87.7456 83.1579 87.5879 83.2658 87.4053 83.3599C87.2227 83.4539 87.0207 83.5286 86.7993 83.584C86.6942 83.7998 86.5863 84.0267 86.4756 84.2646C86.3649 84.4971 86.2487 84.7323 86.127 84.9702C86.0052 85.2082 85.8807 85.4434 85.7534 85.6758C85.6261 85.9027 85.4933 86.1185 85.355 86.3232L84.7656 85.7671C84.8154 85.7062 84.8901 85.6094 84.9897 85.4766C85.0949 85.3438 85.2056 85.1943 85.3218 85.0283C85.4435 84.8623 85.5625 84.688 85.6787 84.5054C85.7949 84.3172 85.8945 84.1401 85.9775 83.9741L86.0938 83.7251C85.8392 83.7804 85.5819 83.8385 85.3218 83.8994C85.0672 83.9548 84.8044 84.0184 84.5332 84.0903C84.1071 84.8208 83.6893 85.4849 83.2798 86.0825C82.8758 86.6746 82.4442 87.1838 81.9849 87.6099C81.5256 88.0304 81.022 88.3542 80.4741 88.5811C79.9263 88.8135 79.2954 88.9297 78.5815 88.9297C78.1167 88.9297 77.6463 88.8633 77.1704 88.7305C76.7 88.6032 76.2739 88.415 75.8921 88.166C75.5158 87.917 75.2059 87.6126 74.9624 87.2529C74.7244 86.8932 74.6055 86.4837 74.6055 86.0244C74.6055 85.6647 74.6774 85.3465 74.8213 85.0698C74.9596 84.7876 75.1506 84.5524 75.394 84.3643C75.6375 84.1706 75.9198 84.0267 76.2407 83.9326C76.5672 83.833 76.9103 83.7832 77.27 83.7832C77.5688 83.7832 77.8677 83.8192 78.1665 83.8911C78.4709 83.9631 78.7642 84.0654 79.0464 84.1982C79.3286 84.3311 79.5942 84.4943 79.8433 84.688C80.0978 84.8761 80.3247 85.0892 80.5239 85.3271L80.2085 85.5679C80.0425 85.4019 79.8571 85.2552 79.6523 85.1279C79.4476 84.9951 79.229 84.8844 78.9966 84.7959C78.7642 84.7018 78.5262 84.6326 78.2827 84.5884C78.0392 84.5386 77.7985 84.5137 77.5605 84.5137C77.3005 84.5137 77.0459 84.5469 76.7969 84.6133C76.5479 84.6797 76.3265 84.7876 76.1328 84.937C75.9391 85.0809 75.7814 85.269 75.6597 85.5015C75.5379 85.7284 75.4771 86.0078 75.4771 86.3398C75.4771 86.6387 75.5518 86.9181 75.7012 87.1782C75.8506 87.4383 76.0526 87.6652 76.3071 87.8589C76.5672 88.047 76.8688 88.1965 77.2119 88.3071C77.5605 88.4178 77.9313 88.4731 78.3242 88.4731C78.8831 88.4731 79.3867 88.368 79.835 88.1577C80.2832 87.953 80.6955 87.6707 81.0718 87.311C81.4536 86.9513 81.8105 86.5308 82.1426 86.0493C82.4801 85.5623 82.8149 85.0449 83.147 84.4971C82.992 84.5469 82.8343 84.5994 82.6738 84.6548C82.5133 84.7101 82.3529 84.7682 82.1924 84.8291L82.0347 84.4224C82.2892 84.3394 82.5327 84.2619 82.7651 84.1899C82.9976 84.118 83.23 84.0461 83.4624 83.9741C83.7778 83.4484 84.1043 82.9116 84.4419 82.3638C84.785 81.8104 85.1585 81.2708 85.5625 80.7451C85.9665 80.2139 86.4092 79.7075 86.8906 79.2261C87.3776 78.7446 87.9199 78.3075 88.5176 77.9146L88.7583 78.1719ZM83.1553 82.6875C82.6462 82.9199 82.1398 83.0887 81.6362 83.1938C81.1326 83.299 80.6595 83.3516 80.2168 83.3516C79.7021 83.3516 79.2318 83.2824 78.8057 83.144C78.3796 83.0057 78.0116 82.812 77.7017 82.563C77.3918 82.314 77.151 82.0151 76.9795 81.6665C76.8079 81.3179 76.7222 80.9333 76.7222 80.5127C76.7222 79.987 76.8107 79.5194 76.9878 79.1099C77.1704 78.7004 77.4167 78.3407 77.7266 78.0308C78.0365 77.7153 78.4017 77.4497 78.8223 77.2339C79.2428 77.0181 79.6938 76.841 80.1753 76.7026C80.6567 76.5643 81.1576 76.4647 81.6777 76.4038C82.1979 76.3429 82.7126 76.3125 83.2217 76.3125C83.8083 76.3125 84.3783 76.3485 84.9316 76.4204C85.485 76.4924 86.0218 76.5726 86.542 76.6611C87.0677 76.7441 87.5768 76.8216 88.0693 76.8936C88.5618 76.9655 89.0433 77.0015 89.5137 77.0015C90.0505 77.0015 90.5457 76.96 90.9995 76.877C91.4533 76.7939 91.8434 76.7026 92.1699 76.603C92.4964 76.4979 92.751 76.4038 92.9336 76.3208C93.1217 76.2323 93.2186 76.188 93.2241 76.188L93.4316 76.5698C93.415 76.5809 93.3071 76.6335 93.1079 76.7275C92.9087 76.8161 92.6375 76.9157 92.2944 77.0264C91.9569 77.1315 91.5529 77.2284 91.0825 77.3169C90.6121 77.3999 90.0947 77.4414 89.5303 77.4414C89.0046 77.4414 88.4982 77.4082 88.0112 77.3418C87.5243 77.2699 87.0317 77.1924 86.5337 77.1094C86.0412 77.0264 85.5293 76.9517 84.998 76.8853C84.4668 76.8133 83.894 76.7773 83.2798 76.7773C82.3722 76.7773 81.5698 76.8659 80.8726 77.043C80.1808 77.2145 79.5998 77.4635 79.1294 77.79C78.6646 78.111 78.3132 78.5039 78.0752 78.9688C77.8372 79.4281 77.7183 79.9427 77.7183 80.5127C77.7183 80.9056 77.793 81.2487 77.9424 81.542C78.0973 81.8353 78.3021 82.0788 78.5566 82.2725C78.8167 82.4661 79.1128 82.6128 79.4448 82.7124C79.7824 82.8065 80.1338 82.8535 80.499 82.8535C80.82 82.8535 81.1299 82.8258 81.4287 82.7705C81.7275 82.7152 81.9904 82.6543 82.2173 82.5879C82.4442 82.516 82.6268 82.4523 82.7651 82.397C82.9035 82.3361 82.9754 82.3057 82.981 82.3057L83.1553 82.6875ZM87.7539 82.1479C87.6598 82.1479 87.5519 82.2365 87.4302 82.4136C87.314 82.5851 87.1839 82.812 87.04 83.0942C87.2116 83.0278 87.3499 82.9587 87.4551 82.8867C87.5602 82.8148 87.6432 82.7428 87.7041 82.6709C87.765 82.599 87.8065 82.527 87.8286 82.4551C87.8507 82.3831 87.8618 82.314 87.8618 82.2476C87.8618 82.2088 87.8507 82.1839 87.8286 82.1729C87.8065 82.1562 87.7816 82.1479 87.7539 82.1479ZM94.4111 75.9224C94.6048 75.9224 94.7653 75.9694 94.8926 76.0635C95.0254 76.1576 95.0918 76.3291 95.0918 76.5781C95.0918 76.7497 95.0558 76.9544 94.9839 77.1924C94.9175 77.4303 94.8234 77.6904 94.7017 77.9727C94.5854 78.2493 94.4471 78.5426 94.2866 78.8525C94.1261 79.1569 93.9518 79.4613 93.7637 79.7656C93.5811 80.07 93.3874 80.366 93.1826 80.6538C92.9834 80.9416 92.7842 81.2072 92.585 81.4507C92.1865 81.9432 91.8407 82.3582 91.5474 82.6958C91.2596 83.0334 91.0106 83.3211 90.8003 83.5591C90.59 83.7915 90.4129 83.9824 90.269 84.1318C90.1252 84.2757 89.9979 84.4002 89.8872 84.5054C89.7765 84.6105 89.6742 84.7074 89.5801 84.7959C89.486 84.8789 89.3892 84.973 89.2896 85.0781C89.2453 85.2884 89.2231 85.4904 89.2231 85.6841C89.2287 85.8722 89.2314 86.0465 89.2314 86.207C89.2314 86.6885 89.3089 87.0454 89.4639 87.2778C89.6188 87.5103 89.8374 87.6265 90.1196 87.6265C90.3078 87.6265 90.4959 87.5794 90.6841 87.4854C90.8778 87.3857 91.0687 87.2585 91.2568 87.1035C91.445 86.9486 91.6276 86.7743 91.8047 86.5806C91.9818 86.3813 92.1478 86.1821 92.3027 85.9829C92.4632 85.7782 92.6071 85.5817 92.7344 85.3936C92.8617 85.2054 92.9723 85.0422 93.0664 84.9038L93.3735 85.1362C93.3569 85.1584 93.3016 85.2469 93.2075 85.4019C93.119 85.5513 93 85.7339 92.8506 85.9497C92.7012 86.1655 92.5241 86.3979 92.3193 86.647C92.1146 86.8905 91.8932 87.1174 91.6553 87.3276C91.4173 87.5379 91.1655 87.7122 90.8999 87.8506C90.6398 87.9889 90.3742 88.0581 90.103 88.0581C89.8761 88.0581 89.6576 88.0166 89.4473 87.9336C89.2425 87.8451 89.0599 87.7095 88.8994 87.5269C88.7445 87.3387 88.6172 87.1007 88.5176 86.813C88.4235 86.5252 88.3765 86.1794 88.3765 85.7754C88.3765 85.2718 88.4346 84.7461 88.5508 84.1982C88.6725 83.6449 88.8358 83.0915 89.0405 82.5381C89.2453 81.9792 89.486 81.4285 89.7627 80.8862C90.0394 80.3439 90.3327 79.8293 90.6426 79.3423C90.958 78.8498 91.2845 78.396 91.6221 77.981C91.9652 77.5604 92.3 77.1979 92.6265 76.8936C92.9585 76.5892 93.2767 76.3512 93.5811 76.1797C93.8854 76.0081 94.1621 75.9224 94.4111 75.9224ZM89.439 84.3394C89.9093 83.8524 90.3631 83.3599 90.8003 82.8618C91.243 82.3582 91.6553 81.863 92.0371 81.376C92.4245 80.8835 92.7786 80.4076 93.0996 79.9482C93.4206 79.4834 93.6945 79.0462 93.9214 78.6367C94.1483 78.2272 94.3254 77.8537 94.4526 77.5161C94.5799 77.1785 94.6436 76.888 94.6436 76.6445C94.6436 76.6003 94.6214 76.5422 94.5771 76.4702C94.5329 76.3927 94.4803 76.354 94.4194 76.354C94.2479 76.354 94.021 76.4674 93.7388 76.6943C93.4565 76.9212 93.1494 77.2311 92.8174 77.624C92.4909 78.0114 92.1506 78.4652 91.7964 78.9854C91.4478 79.5055 91.1185 80.0617 90.8086 80.6538C90.4987 81.2459 90.222 81.8574 89.9785 82.4883C89.735 83.1191 89.5552 83.7362 89.439 84.3394ZM97.748 85.7422C97.7702 85.7477 97.7923 85.7505 97.8145 85.7505C97.8366 85.7505 97.8615 85.7505 97.8892 85.7505C98.0441 85.7505 98.1852 85.7367 98.3125 85.709C98.4398 85.6758 98.556 85.626 98.6611 85.5596C98.7718 85.4932 98.877 85.4074 98.9766 85.3022C99.0762 85.1916 99.173 85.0588 99.2671 84.9038L99.5659 85.1362C99.3003 85.5125 99.0264 85.7754 98.7441 85.9248C98.4619 86.0742 98.1631 86.1489 97.8477 86.1489C97.7314 86.1489 97.6291 86.1379 97.5405 86.1157C97.3026 86.5142 97.048 86.8545 96.7769 87.1367C96.5057 87.4134 96.229 87.6403 95.9468 87.8174C95.6646 87.9945 95.3851 88.1217 95.1084 88.1992C94.8317 88.2822 94.5744 88.3237 94.3364 88.3237C94.0929 88.3237 93.866 88.2795 93.6558 88.1909C93.451 88.1079 93.2739 87.9862 93.1245 87.8257C92.9751 87.6652 92.8589 87.4743 92.7759 87.2529C92.6929 87.0316 92.6514 86.7826 92.6514 86.5059C92.6514 86.2292 92.6956 85.9469 92.7842 85.6592C92.8727 85.3714 92.9917 85.0864 93.1411 84.8042C93.2961 84.522 93.4759 84.2508 93.6807 83.9907C93.8854 83.7251 94.1068 83.4788 94.3447 83.252C94.5827 83.0251 94.8289 82.8203 95.0835 82.6377C95.3381 82.4551 95.5926 82.3057 95.8472 82.1895L96.1128 82.5381C95.8195 82.7484 95.5207 83.014 95.2163 83.335C94.9175 83.6559 94.6436 84.0073 94.3945 84.3892C94.151 84.771 93.9491 85.1694 93.7886 85.5845C93.6336 85.994 93.5562 86.3924 93.5562 86.7798C93.5562 87.1284 93.6336 87.3996 93.7886 87.5933C93.9435 87.7814 94.1787 87.8755 94.4941 87.8755C94.7376 87.8755 94.9784 87.8257 95.2163 87.7261C95.4543 87.6265 95.6867 87.4909 95.9136 87.3193C96.1405 87.1478 96.359 86.9458 96.5693 86.7134C96.7796 86.4754 96.9788 86.2236 97.167 85.958C97.0065 85.8639 96.8654 85.7394 96.7437 85.5845C96.6219 85.424 96.5195 85.2441 96.4365 85.0449C96.3535 84.8402 96.2899 84.6216 96.2456 84.3892C96.2069 84.1567 96.1875 83.9188 96.1875 83.6753C96.1875 83.4318 96.2179 83.2021 96.2788 82.9863C96.3397 82.7705 96.4227 82.5824 96.5278 82.4219C96.6385 82.2559 96.7658 82.1258 96.9097 82.0317C97.0535 81.9377 97.2113 81.8906 97.3828 81.8906C97.5378 81.8906 97.6761 81.9321 97.7979 82.0151C97.9196 82.0926 98.022 82.2033 98.105 82.3472C98.188 82.4855 98.2516 82.6515 98.2959 82.8452C98.3402 83.0389 98.3623 83.2464 98.3623 83.4678C98.3623 83.6338 98.3485 83.8164 98.3208 84.0156C98.2931 84.2148 98.2516 84.4168 98.1963 84.6216C98.1465 84.8208 98.0828 85.02 98.0054 85.2192C97.9334 85.4129 97.8477 85.5872 97.748 85.7422ZM96.6191 83.6753C96.6191 83.8358 96.633 84.0101 96.6606 84.1982C96.6883 84.3864 96.7326 84.569 96.7935 84.7461C96.8543 84.9232 96.9318 85.0892 97.0259 85.2441C97.12 85.3936 97.2362 85.5125 97.3745 85.6011C97.4741 85.4074 97.5571 85.2109 97.6235 85.0117C97.6955 84.807 97.7536 84.6105 97.7979 84.4224C97.8477 84.2342 97.8809 84.0599 97.8975 83.8994C97.9196 83.7334 97.9307 83.5895 97.9307 83.4678C97.9307 83.3018 97.9168 83.1496 97.8892 83.0112C97.8615 82.8729 97.8228 82.7539 97.7729 82.6543C97.7287 82.5492 97.6706 82.4689 97.5986 82.4136C97.5322 82.3527 97.4575 82.3223 97.3745 82.3223C97.2638 82.3223 97.1615 82.361 97.0674 82.4385C96.9733 82.5104 96.8931 82.61 96.8267 82.7373C96.7603 82.859 96.7077 83.0029 96.6689 83.1689C96.6357 83.3294 96.6191 83.4982 96.6191 83.6753ZM101.575 82.48C101.259 82.9614 100.991 83.4207 100.77 83.8579C100.548 84.2896 100.366 84.6908 100.222 85.0615C100.078 85.4323 99.9727 85.7699 99.9062 86.0742C99.8398 86.3786 99.8066 86.6414 99.8066 86.8628C99.8066 87.3719 99.9533 87.6265 100.247 87.6265C100.424 87.6265 100.626 87.5379 100.853 87.3608C101.085 87.1838 101.32 86.9486 101.558 86.6553C101.796 86.362 102.028 86.0244 102.255 85.6426C102.482 85.2607 102.681 84.8651 102.853 84.4556L102.861 84.4639C103.022 84.0654 103.196 83.6753 103.384 83.2935C103.578 82.9116 103.774 82.563 103.974 82.2476L104.347 82.48C104.253 82.7401 104.14 83.0555 104.007 83.4263C103.874 83.797 103.747 84.1872 103.625 84.5967C103.509 85.0007 103.406 85.4046 103.318 85.8086C103.235 86.2126 103.193 86.5778 103.193 86.9043C103.193 86.9984 103.196 87.0897 103.202 87.1782C103.213 87.2612 103.229 87.3359 103.251 87.4023C103.274 87.4688 103.307 87.5213 103.351 87.5601C103.395 87.5988 103.451 87.6182 103.517 87.6182C103.705 87.6182 103.918 87.5352 104.156 87.3691C104.4 87.2031 104.64 86.9901 104.878 86.73C105.122 86.4644 105.352 86.1738 105.567 85.8584C105.789 85.5374 105.974 85.2275 106.124 84.9287C105.902 84.5192 105.792 84.0544 105.792 83.5342C105.792 83.2464 105.816 83.0029 105.866 82.8037C105.922 82.6045 105.988 82.444 106.065 82.3223C106.143 82.195 106.229 82.1064 106.323 82.0566C106.417 82.0013 106.503 81.9736 106.58 81.9736C106.724 81.9736 106.848 82.0456 106.954 82.1895C107.064 82.3333 107.12 82.5907 107.12 82.9614C107.12 83.2271 107.073 83.5314 106.979 83.8745C106.884 84.2121 106.754 84.5635 106.588 84.9287C106.688 85.0726 106.81 85.1888 106.954 85.2773C107.097 85.3659 107.266 85.4129 107.46 85.4185L107.385 85.8169C107.186 85.8058 107.003 85.7588 106.837 85.6758C106.671 85.5872 106.525 85.471 106.397 85.3271C106.215 85.6758 106.002 86.0161 105.758 86.3481C105.52 86.6746 105.263 86.9652 104.986 87.2197C104.715 87.4743 104.43 87.679 104.131 87.834C103.833 87.9889 103.531 88.0664 103.227 88.0664C103.099 88.0664 102.978 88.0415 102.861 87.9917C102.751 87.9419 102.651 87.8672 102.562 87.7676C102.474 87.668 102.405 87.5407 102.355 87.3857C102.305 87.2308 102.28 87.0482 102.28 86.8379C102.28 86.7604 102.283 86.6774 102.289 86.5889C102.294 86.5003 102.305 86.409 102.322 86.3149C102.161 86.564 101.995 86.7964 101.824 87.0122C101.658 87.228 101.486 87.4134 101.309 87.5684C101.132 87.7233 100.947 87.8451 100.753 87.9336C100.565 88.0221 100.371 88.0664 100.172 88.0664C99.9561 88.0664 99.7707 88.0304 99.6157 87.9585C99.4608 87.881 99.3335 87.7759 99.2339 87.6431C99.1343 87.5047 99.0623 87.3442 99.0181 87.1616C98.9683 86.979 98.9434 86.7798 98.9434 86.564C98.9434 86.1821 99.007 85.792 99.1343 85.3936C99.256 84.9951 99.422 84.605 99.6323 84.2231C99.8426 83.8413 100.083 83.4816 100.354 83.144C100.631 82.8065 100.919 82.5076 101.218 82.2476L101.575 82.48ZM106.356 84.4224C106.461 84.1733 106.541 83.9215 106.597 83.667C106.652 83.4124 106.68 83.1634 106.68 82.9199C106.68 82.7373 106.666 82.6073 106.638 82.5298C106.611 82.4523 106.588 82.408 106.572 82.397C106.566 82.397 106.544 82.4136 106.505 82.4468C106.472 82.4744 106.433 82.5298 106.389 82.6128C106.345 82.6958 106.303 82.812 106.265 82.9614C106.231 83.1053 106.215 83.2935 106.215 83.5259C106.215 83.6864 106.226 83.8441 106.248 83.999C106.276 84.154 106.312 84.2951 106.356 84.4224ZM108.307 86.1074C108.296 86.1738 108.287 86.2402 108.282 86.3066C108.276 86.373 108.273 86.4395 108.273 86.5059C108.273 86.7051 108.301 86.896 108.356 87.0786C108.417 87.2557 108.503 87.4134 108.614 87.5518C108.73 87.6846 108.871 87.7897 109.037 87.8672C109.209 87.9447 109.402 87.9834 109.618 87.9834C110.343 87.9834 111.043 87.7371 111.718 87.2446C112.393 86.7521 113.066 85.9718 113.735 84.9038L114.018 85.1528C113.652 85.7616 113.282 86.2762 112.905 86.6968C112.529 87.1118 112.153 87.4494 111.776 87.7095C111.406 87.9696 111.04 88.1577 110.681 88.2739C110.321 88.3901 109.978 88.4482 109.651 88.4482C109.413 88.4482 109.162 88.415 108.896 88.3486C108.63 88.2822 108.384 88.1715 108.157 88.0166C107.936 87.8617 107.753 87.6541 107.609 87.394C107.46 87.134 107.385 86.8102 107.385 86.4229C107.385 86.0078 107.457 85.6094 107.601 85.2275C107.739 84.8402 107.922 84.4805 108.149 84.1484C108.376 83.8164 108.636 83.5148 108.929 83.2437C109.222 82.967 109.519 82.7318 109.817 82.5381C110.122 82.3444 110.418 82.195 110.706 82.0898C110.993 81.9792 111.248 81.9238 111.469 81.9238C111.613 81.9238 111.76 81.946 111.909 81.9902C112.059 82.0345 112.191 82.1037 112.308 82.1978C112.429 82.2918 112.526 82.4163 112.598 82.5713C112.676 82.7262 112.714 82.9116 112.714 83.1274C112.714 83.4207 112.645 83.6974 112.507 83.9575C112.374 84.2121 112.194 84.45 111.967 84.6714C111.74 84.8872 111.478 85.0837 111.179 85.2607C110.88 85.4323 110.567 85.5789 110.241 85.7007C109.914 85.8224 109.585 85.9193 109.253 85.9912C108.921 86.0632 108.605 86.1019 108.307 86.1074ZM108.373 85.7505C108.744 85.7118 109.092 85.6343 109.419 85.5181C109.745 85.4019 110.044 85.2607 110.315 85.0947C110.587 84.9232 110.827 84.7378 111.038 84.5386C111.253 84.3394 111.433 84.1374 111.577 83.9326C111.721 83.7279 111.832 83.5314 111.909 83.3433C111.987 83.1551 112.025 82.9863 112.025 82.8369C112.025 82.6875 111.984 82.5685 111.901 82.48C111.823 82.3914 111.729 82.3472 111.619 82.3472C111.375 82.3472 111.101 82.4357 110.797 82.6128C110.493 82.7843 110.188 83.0251 109.884 83.335C109.579 83.6393 109.292 83.999 109.021 84.4141C108.755 84.8291 108.539 85.2746 108.373 85.7505ZM118.973 85.1362C118.89 85.258 118.791 85.424 118.674 85.6343C118.564 85.839 118.434 86.0632 118.284 86.3066C118.135 86.5446 117.969 86.7881 117.786 87.0371C117.609 87.2861 117.413 87.5103 117.197 87.7095C116.986 87.9087 116.757 88.0719 116.508 88.1992C116.259 88.3265 115.993 88.3901 115.711 88.3901C115.556 88.3901 115.409 88.3652 115.271 88.3154C115.133 88.2712 115.011 88.1992 114.906 88.0996C114.801 88 114.718 87.8783 114.657 87.7344C114.596 87.585 114.565 87.4106 114.565 87.2114C114.565 86.9403 114.618 86.658 114.723 86.3647C114.834 86.0659 114.961 85.7782 115.105 85.5015C115.249 85.2248 115.393 84.973 115.537 84.7461C115.681 84.5137 115.786 84.3283 115.852 84.1899C115.918 84.0516 115.952 83.9326 115.952 83.833C115.952 83.7611 115.927 83.6974 115.877 83.6421C115.833 83.5868 115.775 83.5342 115.703 83.4844C115.636 83.429 115.564 83.3737 115.487 83.3184C115.415 83.2575 115.354 83.1855 115.304 83.1025C115.166 83.3239 115.025 83.548 114.881 83.7749C114.754 83.9686 114.615 84.1872 114.466 84.4307C114.316 84.6686 114.173 84.9038 114.034 85.1362L113.735 84.9038L115.512 82.123L115.752 82.2476C115.741 82.2808 115.722 82.3333 115.694 82.4053C115.672 82.4772 115.661 82.5547 115.661 82.6377C115.661 82.6986 115.669 82.7594 115.686 82.8203C115.708 82.8757 115.75 82.9282 115.811 82.978C116.032 83.1772 116.206 83.3322 116.333 83.4429C116.461 83.548 116.552 83.6338 116.607 83.7002C116.668 83.7611 116.704 83.8136 116.715 83.8579C116.732 83.8966 116.74 83.9492 116.74 84.0156C116.74 84.082 116.729 84.1623 116.707 84.2563C116.685 84.3504 116.646 84.4639 116.591 84.5967C116.541 84.7295 116.469 84.8872 116.375 85.0698C116.286 85.2469 116.173 85.4544 116.035 85.6924C115.952 85.8363 115.869 85.9829 115.786 86.1323C115.708 86.2762 115.636 86.4229 115.57 86.5723C115.509 86.7217 115.459 86.8711 115.42 87.0205C115.382 87.1699 115.362 87.3138 115.362 87.4521C115.362 87.5573 115.376 87.6431 115.404 87.7095C115.437 87.7703 115.479 87.8174 115.528 87.8506C115.578 87.8838 115.631 87.9059 115.686 87.917C115.747 87.9281 115.805 87.9336 115.86 87.9336C116.043 87.9336 116.223 87.881 116.4 87.7759C116.583 87.6652 116.76 87.5241 116.931 87.3525C117.108 87.181 117.277 86.9873 117.438 86.7715C117.604 86.5501 117.761 86.326 117.911 86.0991C118.06 85.8722 118.198 85.6564 118.326 85.4517C118.453 85.2414 118.566 85.0588 118.666 84.9038L118.973 85.1362ZM121.331 81.4839C121.303 81.5337 121.267 81.589 121.223 81.6499C121.178 81.7052 121.134 81.7716 121.09 81.8491C121.051 81.9211 121.015 82.0068 120.982 82.1064C120.954 82.2061 120.94 82.325 120.94 82.4634C120.94 82.5796 120.968 82.7373 121.023 82.9365C121.084 83.1357 121.148 83.3654 121.214 83.6255C121.281 83.88 121.342 84.1595 121.397 84.4639C121.458 84.7627 121.488 85.0726 121.488 85.3936C121.488 85.8639 121.425 86.279 121.297 86.6387C121.17 86.9984 121.001 87.3055 120.791 87.5601C121.223 87.3276 121.646 86.9956 122.061 86.564C122.476 86.1268 122.894 85.5734 123.314 84.9038L123.597 85.1528C123.359 85.5457 123.088 85.9359 122.783 86.3232C122.484 86.7051 122.155 87.0509 121.795 87.3608C121.436 87.6652 121.048 87.9115 120.633 88.0996C120.218 88.2933 119.778 88.3901 119.313 88.3901C118.898 88.3901 118.55 88.2905 118.268 88.0913C117.98 87.8976 117.803 87.6043 117.736 87.2114L118.035 87.1533C118.035 87.1865 118.052 87.2419 118.085 87.3193C118.113 87.3913 118.16 87.4632 118.226 87.5352C118.292 87.6071 118.384 87.6707 118.5 87.7261C118.611 87.7814 118.749 87.8091 118.915 87.8091C119.136 87.8091 119.333 87.7593 119.504 87.6597C119.676 87.5545 119.825 87.4189 119.953 87.2529C120.08 87.0869 120.188 86.8988 120.276 86.6885C120.365 86.4727 120.434 86.2513 120.484 86.0244C120.539 85.7975 120.578 85.5762 120.6 85.3604C120.622 85.1445 120.633 84.9481 120.633 84.771C120.633 84.5939 120.625 84.3975 120.608 84.1816C120.597 83.9658 120.583 83.7611 120.567 83.5674C120.55 83.3682 120.534 83.1966 120.517 83.0527C120.506 82.9033 120.5 82.8065 120.5 82.7622V82.7456C120.429 82.8231 120.343 82.9365 120.243 83.0859C120.144 83.2354 120.036 83.3986 119.919 83.5757C119.809 83.7528 119.695 83.9326 119.579 84.1152C119.468 84.2979 119.366 84.4639 119.272 84.6133C119.183 84.7627 119.109 84.8872 119.048 84.9868C118.993 85.0809 118.965 85.1307 118.965 85.1362L118.666 84.9038C118.672 84.8983 118.741 84.7793 118.874 84.5469C119.006 84.3145 119.181 84.0212 119.396 83.667C119.618 83.3073 119.867 82.9116 120.144 82.48C120.42 82.0428 120.705 81.6195 120.999 81.21L121.331 81.4839Z" fill="white"/>
<circle cx="130" cy="85" r="2" fill="white"/>
<circle cx="2" cy="85" r="2" fill="white"/>
</svg>
